<svg width="130" height="130" viewBox="0 0 130 130" fill="none" xmlns="http://www.w3.org/2000/svg">
<path d="M130 64.9999C130 100.898 100.898 130 64.9999 130C29.1014 130 0 100.898 0 64.9999C0 29.1014 29.1014 0 64.9999 0C100.898 0 130 29.1014 130 64.9999Z" fill="#87D4FE"/>
<path d="M81.4002 8.1138C81.1371 7.54734 81.2237 6.89912 81.6266 6.42203L84.1639 2.87319C85.86 3.39573 87.5256 3.98707 89.1595 4.64164V21.0206C89.1595 22.0301 88.3384 22.8515 87.3286 22.8515H85.8646C84.855 22.8515 84.0337 22.0304 84.0337 21.0206V9.03218H82.8388C82.2144 9.03218 81.6632 8.68027 81.4002 8.1138ZM80.0075 62.6063H81.2024V74.595C81.2024 75.6045 82.0235 76.4259 83.0333 76.4259H84.4973C85.5068 76.4259 86.3282 75.6047 86.3282 74.595V55.405C86.3282 54.3955 85.5071 53.5741 84.4973 53.5741H84.4458C83.8331 53.5741 83.2549 53.8427 82.8601 54.3109L78.7951 59.9961C78.3921 60.4735 78.3056 61.1214 78.5686 61.6879C78.8314 62.2544 79.3829 62.6063 80.0075 62.6063ZM60.1752 13.9648V8.88669C60.1752 4.35117 63.5739 0.611903 67.963 0.0700684C69.118 0.121865 70.2651 0.202861 71.4036 0.314072C75.1752 1.34214 77.9486 4.78941 77.9486 8.88669V13.9648C77.9486 18.8728 73.9699 22.8515 69.0619 22.8515C64.1539 22.8515 60.1752 18.8728 60.1752 13.9648ZM65.2533 13.9648C65.2533 16.0682 66.9585 17.7734 69.0619 17.7734C71.1652 17.7734 72.8704 16.0682 72.8704 13.9648V8.88669C72.8704 6.78334 71.1652 5.07811 69.0619 5.07811C66.9585 5.07811 65.2533 6.78334 65.2533 8.88669V13.9648ZM36.5678 103.213H38.0318C39.0413 103.213 39.8627 102.392 39.8627 101.382V82.1918C39.8627 81.1823 39.0416 80.3609 38.0318 80.3609H37.9802C37.3676 80.3609 36.7894 80.6295 36.3946 81.0977L32.3296 86.7829C31.9266 87.2603 31.84 87.9082 32.1031 88.4747C32.3661 89.0412 32.9174 89.3931 33.542 89.3931H34.7368V101.382C34.7371 102.392 35.5582 103.213 36.5678 103.213ZM87.5975 103.213C82.6895 103.213 78.7108 99.234 78.7108 94.326V89.2479C78.7108 84.3399 82.6895 80.3612 87.5975 80.3612C92.5055 80.3612 96.4842 84.3399 96.4842 89.2479V94.326C96.4842 99.234 92.5055 103.213 87.5975 103.213ZM91.4061 89.2479C91.4061 87.1445 89.7008 85.4393 87.5975 85.4393C85.4941 85.4393 83.7889 87.1445 83.7889 89.2479V94.326C83.7889 96.4293 85.4941 98.1346 87.5975 98.1346C89.7008 98.1346 91.4061 96.4293 91.4061 94.326V89.2479ZM82.3312 35.8192H83.5261V47.8079C83.5261 48.8174 84.3472 49.6388 85.357 49.6388H86.821C87.8306 49.6388 88.652 48.8177 88.652 47.8079V28.618C88.652 27.6084 87.8308 26.787 86.821 26.787H86.7695C86.1568 26.787 85.5787 27.0557 85.1839 27.5239L81.1188 33.2091C80.7159 33.6864 80.6293 34.3344 80.8923 34.9009C81.1554 35.4673 81.7066 35.8192 82.3312 35.8192ZM31.4457 107.148C27.1088 107.148 23.4995 110.256 22.718 114.365C24.2942 115.717 25.9355 116.994 27.6371 118.191V116.035C27.6371 113.932 29.3424 112.226 31.4457 112.226C33.5491 112.226 35.2543 113.932 35.2543 116.035V121.113C35.2543 121.656 35.139 122.171 34.9344 122.638C36.4314 123.421 37.9614 124.149 39.5242 124.815C40.0417 123.688 40.3324 122.435 40.3324 121.113V116.035C40.3324 111.127 36.3537 107.148 31.4457 107.148ZM13.992 35.8192H15.1869V47.8079C15.1869 48.8174 16.008 49.6388 17.0178 49.6388H18.4818C19.4913 49.6388 20.3127 48.8177 20.3127 47.8079V28.618C20.3127 27.6084 19.4916 26.787 18.4818 26.787H18.4303C17.8176 26.787 17.2394 27.0557 16.8446 27.5239L12.7796 33.2091C12.3766 33.6864 12.2901 34.3344 12.5531 34.9009C12.8159 35.4673 13.3674 35.8192 13.992 35.8192ZM6.07901 80.3612H6.02747C5.41479 80.3612 4.83665 80.6298 4.44183 81.098L2.69013 83.5479C3.99673 87.9438 5.75249 92.1459 7.90993 96.0982V82.1921C7.90967 81.1823 7.08854 80.3612 6.07901 80.3612ZM99.024 107.148C94.116 107.148 90.1373 111.127 90.1373 116.035V121.113C90.1373 122.368 90.3988 123.561 90.8681 124.644C92.4301 123.965 93.9599 123.228 95.4554 122.433C95.303 122.021 95.2157 121.578 95.2157 121.113V116.035C95.2157 113.932 96.9209 112.226 99.0243 112.226C101.128 112.226 102.833 113.932 102.833 116.035V117.858C104.51 116.656 106.127 115.376 107.68 114.023C106.768 110.085 103.24 107.148 99.024 107.148ZM121.113 80.3612C116.205 80.3612 112.226 84.3399 112.226 89.2479V94.326C112.226 98.1358 114.624 101.384 117.993 102.648C119.034 101.185 120.012 99.6748 120.932 98.1254C118.913 98.0302 117.304 96.3684 117.304 94.326V89.2479C117.304 87.1445 119.01 85.4393 121.113 85.4393C123.216 85.4393 124.922 87.1445 124.922 89.2479V90.2274C125.905 87.8958 126.754 85.4941 127.463 83.033C125.85 81.3852 123.602 80.3612 121.113 80.3612ZM102.832 22.8515C106.067 22.8515 108.897 21.1229 110.451 18.5394C109.183 17.2988 107.867 16.108 106.501 14.9738C106.058 16.5869 104.585 17.7734 102.832 17.7734C100.728 17.7734 99.0233 16.0682 99.0233 13.9648V9.60905C97.4488 8.6399 95.8299 7.73675 94.1703 6.90166C94.0246 7.54048 93.9451 8.20419 93.9451 8.88669V13.9648C93.9451 18.8728 97.9238 22.8515 102.832 22.8515ZM115.47 35.8192H116.665V47.8079C116.665 48.8174 117.486 49.6388 118.496 49.6388H119.96C120.969 49.6388 121.79 48.8177 121.79 47.8079V33.3652C120.695 31.4031 119.502 29.5031 118.216 27.6727L114.258 33.2091C113.855 33.6864 113.768 34.3344 114.031 34.9009C114.294 35.4673 114.845 35.8192 115.47 35.8192ZM4.61499 49.6386H6.07901C7.08854 49.6386 7.90993 48.8174 7.90993 47.8076V33.9015C5.80429 37.7591 4.08052 41.8543 2.78433 46.1357V47.8079C2.78408 48.8174 3.60521 49.6386 4.61499 49.6386ZM114.125 62.6063V74.595C114.125 75.6045 114.946 76.4259 115.956 76.4259H117.42C118.43 76.4259 119.251 75.6047 119.251 74.595V55.405C119.251 54.3955 118.43 53.5741 117.42 53.5741H117.369C116.756 53.5741 116.178 53.8427 115.783 54.3109L111.718 59.9961C111.315 60.4735 111.229 61.1214 111.492 61.6879C111.755 62.2544 112.306 62.6063 112.93 62.6063H114.125ZM25.8979 22.8515C30.8059 22.8515 34.7846 18.8728 34.7846 13.9648V8.88669C34.7846 8.41392 34.747 7.95029 34.6759 7.49757C32.9735 8.39716 31.3152 9.3686 29.7065 10.4109V13.9648C29.7065 16.0682 28.0012 17.7734 25.8979 17.7734C24.4509 17.7734 23.1925 16.9665 22.5478 15.7779C21.2479 16.9002 19.9941 18.0745 18.787 19.295C20.4082 21.4545 22.9899 22.8515 25.8979 22.8515ZM20.8198 103.213C15.9118 103.213 11.9331 99.234 11.9331 94.326V89.2479C11.9331 84.3399 15.9118 80.3612 20.8198 80.3612C25.7278 80.3612 29.7065 84.3399 29.7065 89.2479V94.326C29.7065 99.234 25.7278 103.213 20.8198 103.213ZM24.6284 89.2479C24.6284 87.1445 22.9231 85.4393 20.8198 85.4393C18.7164 85.4393 17.0112 87.1445 17.0112 89.2479V94.326C17.0112 96.4293 18.7164 98.1346 20.8198 98.1346C22.9231 98.1346 24.6284 96.4293 24.6284 94.326V89.2479ZM103.638 103.213H105.102C106.112 103.213 106.933 102.392 106.933 101.382V82.1918C106.933 81.1823 106.112 80.3609 105.102 80.3609H105.051C104.438 80.3609 103.86 80.6295 103.465 81.0977L99.4 86.7829C98.9971 87.2603 98.9105 87.9082 99.1736 88.4747C99.4366 89.0412 99.9878 89.3931 100.612 89.3931H101.807V101.382C101.807 102.392 102.628 103.213 103.638 103.213ZM72.9862 107.148H72.9347C72.322 107.148 71.7439 107.417 71.3491 107.885L67.284 113.57C66.8811 114.048 66.7945 114.696 67.0575 115.262C67.3206 115.828 67.8718 116.18 68.4964 116.18H69.6913V128.169C69.6913 128.848 70.0633 129.44 70.613 129.756C71.8891 129.647 73.1546 129.501 74.4086 129.32C74.6635 129.005 74.8171 128.605 74.8171 128.169V108.979C74.8171 107.969 73.9958 107.148 72.9862 107.148ZM68.7996 89.3933V101.382C68.7996 102.392 69.6207 103.213 70.6305 103.213H72.0945C73.104 103.213 73.9254 102.392 73.9254 101.382V82.1921C73.9254 81.1825 73.1043 80.3612 72.0945 80.3612H72.043C71.4303 80.3612 70.8521 80.6298 70.4573 81.098L66.3923 86.7832C65.9893 87.2605 65.9028 87.9085 66.1658 88.475C66.4289 89.0414 66.9801 89.3933 67.6047 89.3933H68.7996ZM67.3122 62.6063H68.5071V74.595C68.5071 75.6045 69.3282 76.4259 70.338 76.4259H71.802C72.8115 76.4259 73.6329 75.6047 73.6329 74.595V55.405C73.6329 54.3955 72.8118 53.5741 71.802 53.5741H71.7505C71.1378 53.5741 70.5597 53.8427 70.1648 54.3109L66.0998 59.9961C65.6968 60.4735 65.6103 61.1214 65.8733 61.6879C66.1361 62.2544 66.6876 62.6063 67.3122 62.6063ZM84.497 107.148H84.4455C83.8328 107.148 83.2547 107.417 82.8599 107.885L78.7948 113.57C78.3919 114.048 78.3053 114.696 78.5683 115.262C78.8314 115.828 79.3826 116.18 80.0072 116.18H81.2021V127.964C82.9404 127.518 84.6489 126.998 86.3277 126.415V108.979C86.328 107.969 85.5068 107.148 84.497 107.148ZM33.3002 28.618C33.3002 27.6084 32.4791 26.787 31.4693 26.787H31.4178C30.8051 26.787 30.227 27.0557 29.8321 27.5239L25.7671 33.2091C25.3642 33.6864 25.2776 34.3344 25.5406 34.9009C25.8037 35.4673 26.3549 35.8192 26.9795 35.8192H28.1744V47.8079C28.1744 48.8174 28.9955 49.6388 30.0053 49.6388H31.4693C32.4789 49.6388 33.3002 48.8177 33.3002 47.8079V28.618ZM108.672 62.4608V67.5389C108.672 72.4469 104.693 76.4256 99.785 76.4256C94.877 76.4256 90.8983 72.4469 90.8983 67.5389V62.4608C90.8983 57.5528 94.877 53.5741 99.785 53.5741C104.693 53.5741 108.672 57.5528 108.672 62.4608ZM103.594 62.4608C103.594 60.3574 101.888 58.6522 99.785 58.6522C97.6816 58.6522 95.9764 60.3574 95.9764 62.4608V67.5389C95.9764 69.6423 97.6816 71.3475 99.785 71.3475C101.888 71.3475 103.594 69.6423 103.594 67.5389V62.4608ZM8.8867 76.4256C4.49032 76.4256 0.841698 73.2322 0.128476 69.0387C0.0467187 67.7027 0 66.3567 0 64.9999C0 63.643 0.0467187 62.297 0.128476 60.961C0.841698 56.7675 4.49032 53.5741 8.8867 53.5741C13.7947 53.5741 17.7734 57.5528 17.7734 62.4608V67.5389C17.7734 72.4469 13.7947 76.4256 8.8867 76.4256ZM12.6953 62.4608C12.6953 60.3574 10.9901 58.6522 8.8867 58.6522C6.78335 58.6522 5.07812 60.3574 5.07812 62.4608V67.5389C5.07812 69.6423 6.78335 71.3475 8.8867 71.3475C10.9901 71.3475 12.6953 69.6423 12.6953 67.5389V62.4608ZM111.211 35.6737V40.7519C111.211 45.6599 107.232 49.6386 102.324 49.6386C97.416 49.6386 93.4373 45.6599 93.4373 40.7519V35.6737C93.4373 30.7657 97.416 26.787 102.324 26.787C107.232 26.787 111.211 30.7657 111.211 35.6737ZM106.133 35.6737C106.133 33.5704 104.427 31.8652 102.324 31.8652C100.221 31.8652 98.5154 33.5704 98.5154 35.6737V40.7519C98.5154 42.8552 100.221 44.5604 102.324 44.5604C104.427 44.5604 106.133 42.8552 106.133 40.7519V35.6737ZM129.05 53.89C128.869 54.0032 128.704 54.1436 128.563 54.3107L124.498 59.9959C124.095 60.4732 124.009 61.1212 124.272 61.6877C124.535 62.2541 125.086 62.606 125.711 62.606H126.905V74.5947C126.905 75.6042 127.727 76.4256 128.736 76.4256H128.998C129.656 72.7161 130 68.8983 130 64.9999C130 61.2118 129.672 57.5005 129.05 53.89ZM78.203 35.6737V40.7519C78.203 45.6599 74.2243 49.6386 69.3163 49.6386C64.4083 49.6386 60.4296 45.6599 60.4296 40.7519V35.6737C60.4296 30.7657 64.4083 26.787 69.3163 26.787C74.2243 26.787 78.203 30.7657 78.203 35.6737ZM73.1249 35.6737C73.1249 33.5704 71.4196 31.8652 69.3163 31.8652C67.2129 31.8652 65.5077 33.5704 65.5077 35.6737V40.7519C65.5077 42.8552 67.2129 44.5604 69.3163 44.5604C71.4196 44.5604 73.1249 42.8552 73.1249 40.7519V35.6737ZM46.9726 26.787C51.8806 26.787 55.8593 30.7657 55.8593 35.6737V40.7519C55.8593 45.6599 51.8806 49.6386 46.9726 49.6386C42.0646 49.6386 38.0859 45.6599 38.0859 40.7519V35.6737C38.0859 30.7657 42.0646 26.787 46.9726 26.787ZM43.164 40.7519C43.164 42.8552 44.8692 44.5604 46.9726 44.5604C49.0759 44.5604 50.7812 42.8552 50.7812 40.7519V35.6737C50.7812 33.5704 49.0759 31.8652 46.9726 31.8652C44.8692 31.8652 43.164 33.5704 43.164 35.6737V40.7519ZM24.6347 76.4256H26.0987C27.1082 76.4256 27.9296 75.6045 27.9296 74.5947V55.4048C27.9296 54.3952 27.1085 53.5738 26.0987 53.5738H26.0472C25.4345 53.5738 24.8564 53.8425 24.4615 54.3107L20.3965 59.9959C19.9936 60.4732 19.907 61.1212 20.17 61.6877C20.4331 62.2541 20.9843 62.606 21.6089 62.606H22.8038V74.5947C22.804 75.6045 23.6252 76.4256 24.6347 76.4256ZM44.4327 94.326V89.2479C44.4327 84.3399 48.4114 80.3612 53.3195 80.3612C58.2274 80.3612 62.2062 84.3399 62.2062 89.2479V94.326C62.2062 99.234 58.2274 103.213 53.3195 103.213C48.4114 103.213 44.4327 99.234 44.4327 94.326ZM49.5109 94.326C49.5109 96.4293 51.2161 98.1346 53.3195 98.1346C55.4228 98.1346 57.128 96.4293 57.128 94.326V89.2479C57.128 87.1445 55.4228 85.4393 53.3195 85.4393C51.2161 85.4393 49.5109 87.1445 49.5109 89.2479V94.326ZM41.8945 76.4256C36.9865 76.4256 33.0078 72.4469 33.0078 67.5389V62.4608C33.0078 57.5528 36.9865 53.5741 41.8945 53.5741C46.8025 53.5741 50.7812 57.5528 50.7812 62.4608V67.5389C50.7812 72.4469 46.8025 76.4256 41.8945 76.4256ZM45.703 62.4608C45.703 60.3574 43.9978 58.6522 41.8945 58.6522C39.7911 58.6522 38.0859 60.3574 38.0859 62.4608V67.5389C38.0859 69.6423 39.7911 71.3475 41.8945 71.3475C43.9978 71.3475 45.703 69.6423 45.703 67.5389V62.4608ZM53.4705 61.6879C53.7336 62.2544 54.2848 62.6063 54.9094 62.6063H56.1043V74.595C56.1043 75.6045 56.9254 76.4259 57.9352 76.4259H59.3992C60.4088 76.4259 61.2301 75.6047 61.2301 74.595V55.405C61.2301 54.3955 60.409 53.5741 59.3992 53.5741H59.3477C58.735 53.5741 58.1569 53.8427 57.762 54.3109L53.697 59.9961C53.2941 60.4732 53.2072 61.1214 53.4705 61.6879ZM38.6203 9.03218H39.8152V21.0208C39.8152 22.0304 40.6363 22.8518 41.6461 22.8518H43.1102C44.1197 22.8518 44.9411 22.0306 44.9411 21.0208V3.15934C42.4642 3.96219 40.0526 4.90926 37.7159 5.9914L37.4079 6.42203C37.005 6.89937 36.9184 7.54734 37.1815 8.1138C37.4442 8.68027 37.9957 9.03218 38.6203 9.03218ZM62.7142 116.035V121.113C62.7142 124.976 60.248 128.263 56.8046 129.487C53.7592 129.104 50.7812 128.507 47.8823 127.717C46.0765 126.091 44.9408 123.735 44.9408 121.113V116.035C44.9408 111.127 48.9195 107.148 53.8275 107.148C58.7355 107.148 62.7142 111.127 62.7142 116.035ZM57.6361 116.035C57.6361 113.932 55.9309 112.226 53.8275 112.226C51.7242 112.226 50.0189 113.932 50.0189 116.035V121.113C50.0189 123.216 51.7242 124.922 53.8275 124.922C55.9309 124.922 57.6361 123.216 57.6361 121.113V116.035ZM49.0691 9.03218H50.2639V21.0208C50.2639 22.0304 51.0851 22.8518 52.0949 22.8518H53.5589C54.5684 22.8518 55.3898 22.0306 55.3898 21.0208V1.8309C55.3898 1.4305 55.259 1.06081 55.0402 0.759169C53.8255 0.946043 52.623 1.16973 51.4314 1.42288L47.8569 6.42228C47.454 6.89963 47.3674 7.54759 47.6304 8.11406C47.8932 8.68027 48.4445 9.03218 49.0691 9.03218Z" fill="#D1EFFF"/>
<path d="M79.0413 85.8331H76.99C76.5202 85.8331 76.0658 85.8973 75.6336 86.0156C75.2093 82.8474 74.3834 79.8069 73.2085 76.9461C73.6404 76.8324 74.0645 76.6613 74.4697 76.4274L76.2463 75.4016C78.6993 73.9856 79.5397 70.8488 78.1234 68.3959C76.7071 65.9429 73.5706 65.1024 71.1176 66.5187L69.3411 67.5445C68.9335 67.7799 68.5715 68.0635 68.2559 68.3827C66.3333 65.8984 64.1015 63.6666 61.6172 61.744C61.9364 61.4284 62.2203 61.0666 62.4554 60.6591L63.4812 58.8825C64.8975 56.4295 64.057 53.2928 61.604 51.8768C59.1511 50.4607 56.0146 51.3009 54.5983 53.7539L53.5725 55.5305C53.3384 55.9357 53.1675 56.36 53.0538 56.7916C50.1927 55.617 47.1522 54.7908 43.9842 54.3668C44.1026 53.9344 44.1668 53.4802 44.1668 53.0104V50.9589C44.1668 48.1266 41.8707 45.8302 39.0382 45.8302C36.2056 45.8302 33.9095 48.1263 33.9095 50.9589V53.0104C33.9095 53.4802 33.974 53.9347 34.0921 54.3668C30.9238 54.7908 27.8833 55.617 25.0226 56.7916C24.9088 56.36 24.7377 55.9357 24.5038 55.5305L23.478 53.7539C22.0618 51.3009 18.9253 50.4605 16.4723 51.8768C14.0193 53.293 13.1789 56.4295 14.5952 58.8825L15.6209 60.6591C15.8563 61.0666 16.1399 61.4287 16.4591 61.744C13.9749 63.6666 11.743 65.8984 9.82045 68.3827C9.50485 68.0635 9.14303 67.7796 8.73526 67.5445L6.95868 66.5187C4.57374 65.1418 1.54693 65.9028 0.0791016 68.2006C0.182441 70.3319 0.39039 72.4355 0.694315 74.5079C1.02185 74.8494 1.39967 75.1533 1.83004 75.4016L3.60662 76.4274C4.01185 76.6613 4.43587 76.8326 4.86777 76.9461C3.95777 79.1622 3.26003 81.487 2.7931 83.8945C9.07346 104.597 25.4027 120.927 46.1054 127.207C48.5129 126.74 50.8377 126.042 53.0538 125.132C53.1675 125.564 53.3386 125.988 53.5725 126.394L54.5983 128.17C54.8468 128.6 55.1508 128.978 55.4923 129.306C57.5647 129.61 59.6683 129.818 61.7995 129.921C64.0974 128.453 64.8583 125.427 63.4814 123.041L62.4556 121.265C62.2203 120.857 61.9367 120.495 61.6175 120.18C64.1017 118.257 66.3335 116.026 68.2561 113.541C68.5717 113.86 68.9335 114.144 69.3413 114.379L71.1179 115.405C73.5709 116.822 76.7074 115.981 78.1237 113.528C79.5399 111.075 78.6995 107.938 76.2465 106.522L74.47 105.497C74.0647 105.263 73.6407 105.091 73.2088 104.978C74.3836 102.117 75.2096 99.0763 75.6339 95.9083C76.066 96.0266 76.5205 96.0909 76.9902 96.0909H79.0415C81.8741 96.0909 84.1702 93.7948 84.1702 90.9622C84.1702 88.1297 81.8738 85.8331 79.0413 85.8331ZM39.0382 108.604C29.2945 108.604 21.3958 100.705 21.3958 90.9617C21.3958 81.2181 29.2945 73.3193 39.0382 73.3193C48.7818 73.3193 56.6805 81.2181 56.6805 90.9617C56.6805 100.705 48.7818 108.604 39.0382 108.604ZM127.099 37.5161L125.587 37.1109C125.239 37.0179 124.891 36.9788 124.548 36.9809C124.852 34.6013 124.852 32.1907 124.548 29.8111C124.891 29.8131 125.239 29.7743 125.587 29.6813L127.099 29.2761C129.186 28.7167 130.425 26.571 129.866 24.4836C129.306 22.3963 127.16 21.1572 125.073 21.7168L123.561 22.1218C123.216 22.2142 122.897 22.3539 122.602 22.5255C121.692 20.346 120.496 18.2579 119.014 16.318C119.311 16.1487 119.593 15.941 119.846 15.6876L120.953 14.5808C122.481 13.0525 122.481 10.5752 120.953 9.04691C119.425 7.51865 116.947 7.51865 115.419 9.04691L114.312 10.1537C114.059 10.4073 113.851 10.6887 113.682 10.986C111.742 9.50394 109.654 8.30805 107.474 7.39779C107.646 7.10326 107.786 6.7841 107.878 6.43879L108.283 4.92678C108.842 2.83917 107.604 0.693665 105.516 0.134311C103.429 -0.425043 101.283 0.813763 100.724 2.90138L100.319 4.41338C100.226 4.76047 100.187 5.10858 100.189 5.45135C97.809 5.14793 95.3984 5.14793 93.0188 5.45135C93.0208 5.10858 92.982 4.76047 92.8888 4.41338L92.4836 2.90138C91.9242 0.813763 89.7785 -0.425043 87.6911 0.134311C85.6035 0.693665 84.3647 2.83942 84.924 4.92678L85.329 6.43879C85.4214 6.78385 85.5608 7.10326 85.7327 7.39779C83.5532 8.30805 81.4651 9.50394 79.5252 10.986C79.3559 10.6887 79.1484 10.4071 78.8948 10.1537L77.788 9.04691C76.2597 7.51865 73.7821 7.51865 72.2541 9.04691C70.7261 10.5752 70.7259 13.0528 72.2541 14.5808L73.3609 15.6876C73.6145 15.9412 73.8961 16.1487 74.1932 16.318C72.7112 18.2579 71.5153 20.346 70.605 22.5255C70.3105 22.3536 69.9913 22.2142 69.646 22.1218L68.134 21.7168C66.0464 21.1575 63.9009 22.3963 63.3415 24.4836C62.7822 26.5712 64.021 28.7167 66.1086 29.2761L67.6206 29.6813C67.9677 29.7743 68.316 29.8134 68.6588 29.8111C68.3551 32.1909 68.3551 34.6013 68.6588 36.9809C68.316 36.9788 67.9679 37.0179 67.6206 37.1109L66.1086 37.5161C64.021 38.0755 62.7822 40.2212 63.3415 42.3086C63.9009 44.3959 66.0466 45.635 68.134 45.0754L69.646 44.6701C69.9911 44.5777 70.3105 44.4383 70.605 44.2664C71.5153 46.446 72.7112 48.5341 74.1932 50.4739C73.8959 50.6433 73.6143 50.851 73.3609 51.1044L72.2541 52.2111C70.7259 53.7394 70.7259 56.2168 72.2541 57.745C73.7824 59.2733 76.26 59.2733 77.788 57.745L78.8948 56.6382C79.1484 56.3846 79.3559 56.1033 79.5252 55.8059C81.4651 57.288 83.5532 58.4839 85.7327 59.3941C85.5608 59.6887 85.4214 60.0078 85.329 60.3531L84.924 61.8652C84.3647 63.9528 85.6035 66.0983 87.6911 66.6579C89.7787 67.2172 91.9242 65.9784 92.4836 63.8908L92.8888 62.3788C92.9817 62.0317 93.0208 61.6836 93.0188 61.3408C95.3984 61.6443 97.809 61.6443 100.189 61.3408C100.187 61.6836 100.225 62.0317 100.319 62.3788L100.724 63.8908C101.283 65.9784 103.429 67.2172 105.516 66.6579C107.604 66.0985 108.842 63.9528 108.283 61.8652L107.878 60.3531C107.786 60.0081 107.646 59.6887 107.474 59.3941C109.654 58.4839 111.742 57.288 113.682 55.8059C113.851 56.1033 114.059 56.3846 114.312 56.6382L115.419 57.745C116.947 59.2733 119.425 59.2733 120.953 57.745C122.481 56.2168 122.481 53.7394 120.953 52.2111L119.846 51.1044C119.593 50.8507 119.311 50.6433 119.014 50.4739C120.496 48.5341 121.692 46.446 122.602 44.2664C122.897 44.4383 123.216 44.5777 123.561 44.6701L125.073 45.0754C127.161 45.6347 129.306 44.3959 129.866 42.3086C130.425 40.2212 129.186 38.0757 127.099 37.5161ZM106.122 42.9146C100.865 48.1715 92.3421 48.1715 87.0853 42.9146C81.8284 37.6578 81.8284 29.1347 87.0853 23.8778C92.3421 18.6209 100.865 18.6209 106.122 23.8778C111.379 29.1347 111.379 37.6578 106.122 42.9146Z" fill="#396CAA"/>
<path d="M39.0378 66.3445C25.442 66.3445 14.4204 77.366 14.4204 90.9619C14.4204 104.558 25.442 115.579 39.0378 115.579C52.6337 115.579 63.6553 104.558 63.6553 90.9619C63.6553 77.366 52.6337 66.3445 39.0378 66.3445ZM39.0378 108.604C29.2942 108.604 21.3955 100.705 21.3955 90.9617C21.3955 81.218 29.2942 73.3193 39.0378 73.3193C48.7815 73.3193 56.6802 81.218 56.6802 90.9617C56.6802 100.705 48.7815 108.604 39.0378 108.604ZM109.885 20.1146C102.55 12.7795 90.6572 12.7795 83.3218 20.1146C75.9865 27.4497 75.9867 39.3424 83.3218 46.6777C90.6569 54.0128 102.55 54.0128 109.885 46.6777C117.22 39.3424 117.22 27.4497 109.885 20.1146ZM106.122 42.9146C100.865 48.1714 92.3418 48.1714 87.0849 42.9146C81.8281 37.6577 81.8281 29.1346 87.0849 23.8777C92.3418 18.6209 100.865 18.6209 106.122 23.8777C111.379 29.1346 111.379 37.6577 106.122 42.9146Z" fill="#0D477C"/>
</svg>
