<svg width="130" height="130" viewBox="0 0 130 130" fill="none" xmlns="http://www.w3.org/2000/svg">
<g clip-path="url(#clip0)">
<path d="M130 65C130 94.6791 110.108 119.711 82.9298 127.494C82.6671 126.372 81.6623 125.536 80.4601 125.536H49.5399C48.3377 125.536 47.333 126.372 47.0702 127.494C19.8918 119.711 0 94.6791 0 65C0 29.1015 29.1015 0 65 0C100.899 0 130 29.1015 130 65Z" fill="#173D7A"/>
<path d="M118.875 46.2579C118.875 76.0124 94.7544 100.133 65.0001 100.133C35.2458 100.133 11.125 76.0124 11.125 46.2579C11.125 36.8789 13.5237 28.061 17.7377 20.3803C29.5883 7.8325 46.3786 0 65.0001 0C83.6216 0 100.412 7.8325 112.262 20.3803C116.477 28.061 118.875 36.8789 118.875 46.2579Z" fill="#396CAA"/>
<path d="M36.8897 62.8147L54.8436 80.7687L36.962 98.6503C36.2092 99.4029 34.9201 98.9509 34.8025 97.8929L33.4111 85.3689C33.3456 84.7789 32.8797 84.313 32.2896 84.2474L19.7657 82.856C18.7077 82.7385 18.2555 81.4494 19.0083 80.6966L36.8897 62.8147ZM110.991 80.6961L93.1098 62.8145L75.1561 80.7687L93.0377 98.6503C93.7906 99.4029 95.0796 98.9509 95.1972 97.8929L96.5886 85.3689C96.6541 84.7789 97.12 84.313 97.7101 84.2474L110.234 82.856C111.292 82.738 111.744 81.4489 110.991 80.6961Z" fill="#FC2A9B"/>
<path d="M49.2012 75.126L54.8438 80.7688L36.9622 98.6504C36.2093 99.403 34.9203 98.951 34.8027 97.893L33.9658 90.3616L49.2012 75.126ZM80.7988 75.126L75.1563 80.7688L93.0379 98.6504C93.7907 99.403 95.0798 98.951 95.1974 97.893L96.0342 90.3616L80.7988 75.126Z" fill="#D3008D"/>
<path d="M73.1811 111.437H56.8184V75.9839H73.1811V111.437Z" fill="#F2B42A"/>
<path d="M63.4763 111.437H56.8184V75.9839H63.4763V111.437Z" fill="#E8A200"/>
<path d="M77.5446 100.34V128.786C73.4851 129.579 69.2918 130 64.9998 130C60.7078 130 56.5145 129.579 52.4551 128.786V100.34C52.4551 98.9375 53.5918 97.8008 54.9941 97.8008H75.0057C76.4078 97.8008 77.5446 98.9375 77.5446 100.34Z" fill="#E8A200"/>
<path d="M82.9993 105.794V127.473C77.2831 129.117 71.245 130 65.0001 130C58.7553 130 52.7172 129.117 47.001 127.473V105.794C47.001 104.392 48.1377 103.255 49.54 103.255H80.4602C81.8626 103.255 82.9993 104.392 82.9993 105.794Z" fill="#F2B42A"/>
<path d="M56.2262 129.41C53.0742 128.983 49.993 128.334 47.001 127.473V105.794C47.001 104.392 48.1377 103.255 49.54 103.255H58.7652C57.3629 103.255 56.2262 104.392 56.2262 105.794V129.41Z" fill="#E8A200"/>
<path d="M106.18 46.2579C106.18 69.0008 87.743 87.4377 65.0001 87.4377C42.2572 87.4377 23.8203 69.0011 23.8203 46.2579C23.8203 23.5148 42.2572 5.07812 65.0001 5.07812C87.743 5.07812 106.18 23.515 106.18 46.2579Z" fill="#E8A200"/>
<path d="M99.362 46.2579C99.362 65.2353 83.9775 80.6198 65.0001 80.6198C46.0226 80.6198 30.6382 65.2353 30.6382 46.2579C30.6382 27.2804 46.0224 11.896 65.0001 11.896C83.9778 11.896 99.362 27.2804 99.362 46.2579Z" fill="#F2B42A"/>
<path d="M66.5209 27.276L71.6546 37.6783C71.9016 38.179 72.3792 38.5259 72.9317 38.6061L84.4113 40.2743C85.8025 40.4764 86.3581 42.1859 85.3513 43.1673L77.0445 51.2643C76.6449 51.6541 76.4623 52.2155 76.5568 52.7657L78.5177 64.1988C78.7553 65.5844 77.301 66.6409 76.0568 65.9868L65.7891 60.5888C65.295 60.329 64.7047 60.329 64.2106 60.5888L53.9429 65.9868C52.6985 66.6409 51.2443 65.5844 51.482 64.1988L53.4429 52.7657C53.5374 52.2155 53.3548 51.6541 52.9552 51.2643L44.6484 43.1673C43.6416 42.1859 44.1972 40.4764 45.5883 40.2743L57.0679 38.6061C57.6204 38.5259 58.098 38.1788 58.3451 37.6783L63.4788 27.276C64.1011 26.0154 65.8988 26.0154 66.5209 27.276Z" fill="#FDD762"/>
<path d="M75.1562 114.258V121.875C75.1562 123.277 74.0195 124.414 72.6172 124.414H57.3828C55.9805 124.414 54.8438 123.277 54.8438 121.875V114.258C54.8438 112.855 55.9805 111.719 57.3828 111.719H72.6172C74.0195 111.719 75.1562 112.855 75.1562 114.258Z" fill="#FDD762"/>
<path d="M70.0781 114.766V116.289C70.0781 116.569 69.8509 116.797 69.5703 116.797H60.4297C60.1491 116.797 59.9219 116.569 59.9219 116.289V114.766C59.9219 114.485 60.1491 114.258 60.4297 114.258H69.5703C69.8509 114.258 70.0781 114.485 70.0781 114.766ZM68.5547 119.336H61.4453C61.1647 119.336 60.9375 119.563 60.9375 119.844V121.367C60.9375 121.648 61.1647 121.875 61.4453 121.875H68.5547C68.8353 121.875 69.0625 121.648 69.0625 121.367V119.844C69.0625 119.563 68.8353 119.336 68.5547 119.336Z" fill="#E8A200"/>
<path d="M37.7644 51.4739L33.7992 53.6428C33.6547 53.7217 33.5359 53.8406 33.4566 53.9853L31.288 57.9505C30.9612 58.548 30.1033 58.548 29.7765 57.9505L27.6079 53.9853C27.5289 53.8408 27.4101 53.7217 27.2654 53.6428L23.3001 51.4739C22.7027 51.1471 22.7027 50.2889 23.3001 49.9624L27.2654 47.7935C27.4099 47.7143 27.5287 47.5957 27.6079 47.451L29.7765 43.4858C30.1033 42.8883 30.9612 42.8883 31.288 43.4858L33.4566 47.451C33.5356 47.5955 33.6544 47.7143 33.7992 47.7935L37.7644 49.9624C38.3618 50.2892 38.3618 51.1471 37.7644 51.4739ZM98.334 16.7289L93.1162 13.8752C92.926 13.7711 92.7696 13.6147 92.6655 13.4245L89.8119 8.20676C89.382 7.42066 88.2529 7.42066 87.823 8.20676L84.9694 13.4245C84.8653 13.6147 84.7089 13.7711 84.5187 13.8752L79.3009 16.7289C78.5148 17.1587 78.5148 18.2879 79.3009 18.7177L84.5187 21.5714C84.7089 21.6752 84.8653 21.8316 84.9694 22.0218L87.823 27.2396C88.2529 28.0257 89.382 28.0257 89.8119 27.2396L92.6655 22.0218C92.7696 21.8316 92.926 21.6752 93.1162 21.5714L98.334 18.7177C99.1201 18.2879 99.1201 17.159 98.334 16.7289ZM106.687 27.5889L103.974 26.1051C103.875 26.051 103.794 25.9698 103.74 25.8708L102.256 23.1578C102.032 22.7492 101.445 22.7492 101.222 23.1578L99.7378 25.8708C99.6838 25.9698 99.6025 26.051 99.5035 26.1051L96.7905 27.5889C96.3817 27.8124 96.3817 28.3994 96.7905 28.6231L99.5035 30.1067C99.6023 30.1608 99.6838 30.242 99.7378 30.341L101.222 33.054C101.445 33.4628 102.032 33.4628 102.256 33.054L103.74 30.341C103.794 30.242 103.875 30.161 103.974 30.1067L106.687 28.6231C107.096 28.3997 107.096 27.8126 106.687 27.5889Z" fill="#FDD762"/>
<path d="M26.1815 12.2466L30.1467 14.4152C30.7442 14.742 30.7442 15.5999 30.1467 15.9267L26.1815 18.0953C26.037 18.1743 25.9182 18.2931 25.839 18.4378L23.6703 22.4031C23.3436 23.0005 22.4856 23.0005 22.1588 22.4031L19.9902 18.4378C19.9113 18.2934 19.7924 18.1745 19.6477 18.0953L15.6825 15.9267C15.085 15.5999 15.085 14.742 15.6825 14.4152L19.6477 12.2466C19.7922 12.1676 19.911 12.0488 19.9902 11.9041L22.1588 7.9388C22.4856 7.34136 23.3436 7.34136 23.6703 7.9388L25.839 11.9041C25.9182 12.0488 26.037 12.1676 26.1815 12.2466Z" fill="#FDD762"/>
</g>
<defs>
<clipPath id="clip0">
<rect width="130" height="130" fill="white"/>
</clipPath>
</defs>
</svg>
