<svg width="130" height="130" viewBox="0 0 130 130" fill="none" xmlns="http://www.w3.org/2000/svg">
<path d="M65 130C99.356 130 127.207 102.149 127.207 67.793C127.207 33.437 99.356 5.58594 65 5.58594C30.644 5.58594 2.79297 33.437 2.79297 67.793C2.79297 102.149 30.644 130 65 130Z" fill="#0D477C"/>
<path d="M25.5728 107.058C24.8746 107.058 24.3033 106.487 24.3033 105.789V18.0901H15.9033C15.2051 18.0901 14.6338 18.6614 14.6338 19.3596V104.303C18.0275 108.977 22.0524 113.162 26.5887 116.728H96.7679C97.4661 116.728 98.0374 116.157 98.0374 115.458V107.058L25.5728 107.058Z" fill="#FDD762"/>
<path d="M19.458 19.3596C19.458 18.6614 20.0293 18.0901 20.7275 18.0901H15.9033C15.2051 18.0901 14.6338 18.6614 14.6338 19.3596V104.303C16.1235 106.354 17.7353 108.312 19.458 110.164V19.3596Z" fill="#F2B42A"/>
<path d="M33.9518 97.918C33.2535 97.918 32.6822 97.3467 32.6822 96.6484V9.14014H24.853C24.1548 9.14014 23.5835 9.71143 23.5835 10.4097V106.508C23.5835 107.207 24.1548 107.778 24.853 107.778H105.718C106.416 107.778 106.988 107.207 106.988 106.508V97.918H33.9518Z" fill="#F2B42A"/>
<path d="M28.1538 106.508V10.4097C28.1538 9.71143 28.7251 9.14014 29.4233 9.14014H24.853C24.1548 9.14014 23.5835 9.71143 23.5835 10.4097V106.508C23.5835 107.207 24.1548 107.778 24.853 107.778H29.4233C28.7251 107.778 28.1538 107.207 28.1538 106.508Z" fill="#E8A200"/>
<path d="M115.366 97.368C115.366 98.0662 114.795 98.6375 114.097 98.6375H33.2319C32.5337 98.6375 31.9624 98.0662 31.9624 97.368V1.26953C31.9624 0.571289 32.5337 0 33.2319 0H114.097C114.795 0 115.366 0.571289 115.366 1.26953V97.368Z" fill="#D1EFFF"/>
<path d="M37.0012 97.368V1.26953C37.0012 0.571289 37.5725 0 38.2707 0H33.2319C32.5337 0 31.9624 0.571289 31.9624 1.26953V97.368C31.9624 98.0662 32.5337 98.6375 33.2319 98.6375H38.2707C37.5725 98.6375 37.0012 98.0662 37.0012 97.368Z" fill="#87D4FE"/>
<path d="M105.394 12.897H87.7319C86.68 12.897 85.8276 12.0446 85.8276 10.9927C85.8276 9.941 86.68 9.08838 87.7319 9.08838H105.394C106.446 9.08838 107.298 9.941 107.298 10.9927C107.298 12.0446 106.446 12.897 105.394 12.897Z" fill="#396CAA"/>
<path d="M105.394 19.3713H87.7319C86.68 19.3713 85.8276 18.5187 85.8276 17.467C85.8276 16.4151 86.68 15.5627 87.7319 15.5627H105.394C106.446 15.5627 107.298 16.4151 107.298 17.467C107.298 18.5187 106.446 19.3713 105.394 19.3713Z" fill="#396CAA"/>
<path d="M105.394 25.8455H87.7319C86.68 25.8455 85.8276 24.9928 85.8276 23.9412C85.8276 22.8895 86.68 22.0369 87.7319 22.0369H105.394C106.446 22.0369 107.298 22.8895 107.298 23.9412C107.298 24.9931 106.446 25.8455 105.394 25.8455Z" fill="#396CAA"/>
<path d="M105.394 32.3198H87.7319C86.68 32.3198 85.8276 31.4672 85.8276 30.4155C85.8276 29.3636 86.68 28.5112 87.7319 28.5112H105.394C106.446 28.5112 107.298 29.3636 107.298 30.4155C107.298 31.4672 106.446 32.3198 105.394 32.3198Z" fill="#396CAA"/>
<path d="M72.4642 77.5127H42.7168C41.6649 77.5127 40.8125 76.6601 40.8125 75.6084C40.8125 74.5567 41.6649 73.7041 42.7168 73.7041H72.4639C73.5159 73.7041 74.3682 74.5567 74.3682 75.6084C74.3685 76.6601 73.5159 77.5127 72.4642 77.5127Z" fill="#3BB9FF"/>
<path d="M72.4642 83.9868H42.7168C41.6649 83.9868 40.8125 83.1345 40.8125 82.0825C40.8125 81.0308 41.6649 80.1782 42.7168 80.1782H72.4639C73.5159 80.1782 74.3682 81.0308 74.3682 82.0825C74.3685 83.1345 73.5159 83.9868 72.4642 83.9868Z" fill="#3BB9FF"/>
<path d="M72.4642 90.4612H42.7168C41.6649 90.4612 40.8125 89.6088 40.8125 88.5569C40.8125 87.5052 41.6649 86.6526 42.7168 86.6526H72.4639C73.5159 86.6526 74.3682 87.5052 74.3682 88.5569C74.3685 89.6086 73.5159 90.4612 72.4642 90.4612Z" fill="#3BB9FF"/>
<path d="M105.394 43.6179H78.2939C77.242 43.6179 76.3896 42.7653 76.3896 41.7136C76.3896 40.6619 77.242 39.8093 78.2939 39.8093H105.394C106.446 39.8093 107.298 40.6619 107.298 41.7136C107.298 42.7653 106.446 43.6179 105.394 43.6179Z" fill="#FF2C9C"/>
<path d="M105.394 50.0923H78.2939C77.242 50.0923 76.3896 49.2397 76.3896 48.188C76.3896 47.1363 77.242 46.2837 78.2939 46.2837H105.394C106.446 46.2837 107.298 47.1363 107.298 48.188C107.298 49.2397 106.446 50.0923 105.394 50.0923Z" fill="#FF2C9C"/>
<path d="M105.394 56.5664H78.2939C77.242 56.5664 76.3896 55.7135 76.3896 54.6621C76.3896 53.6102 77.242 52.7578 78.2939 52.7578H105.394C106.446 52.7578 107.298 53.6102 107.298 54.6621C107.298 55.7135 106.446 56.5664 105.394 56.5664Z" fill="#FF2C9C"/>
<path d="M105.394 63.0405H78.2939C77.242 63.0405 76.3896 62.1879 76.3896 61.1362C76.3896 60.0846 77.242 59.2319 78.2939 59.2319H105.394C106.446 59.2319 107.298 60.0846 107.298 61.1362C107.298 62.1879 106.446 63.0405 105.394 63.0405Z" fill="#FF2C9C"/>
<path d="M39.2969 54.7816H46.7216C46.7216 50.681 50.0455 47.3566 54.1461 47.3566V39.9324C45.9457 39.9324 39.2969 46.5804 39.2969 54.7816Z" fill="#FF2C9C"/>
<path d="M57.9121 36.167V43.5915C62.0127 43.5915 65.3366 46.9153 65.3366 51.0159H72.7615C72.7615 42.8148 66.113 36.167 57.9121 36.167Z" fill="#87D4FE"/>
<path d="M61.5706 54.7812C61.5706 58.8813 58.2469 62.2057 54.1463 62.2057C50.0457 62.2057 46.7219 58.8813 46.7219 54.7812H39.2969C39.2969 62.9819 45.9457 69.6305 54.1461 69.6305C62.347 69.6305 68.9955 62.9819 68.9955 54.7812H61.5706Z" fill="#F2B42A"/>
<path d="M47.8255 29.2306V11.4993C47.8255 11.0803 47.4827 10.7375 47.0638 10.7375H42.4473C42.0283 10.7375 41.6855 11.0803 41.6855 11.4993V29.2306H47.8255Z" fill="#F2B42A"/>
<path d="M57.7579 29.2306V16.3235C57.7579 15.9045 57.4151 15.5618 56.9961 15.5618H52.3799C51.9609 15.5618 51.6182 15.9045 51.6182 16.3235V29.2306H57.7579Z" fill="#FF2C9C"/>
<path d="M67.6895 29.2306V22.1633C67.6895 21.7444 67.3467 21.4016 66.9278 21.4016H62.3115C61.8926 21.4016 61.5498 21.7444 61.5498 22.1633V29.2306H67.6895Z" fill="#37C450"/>
<path d="M77.6214 29.2306V11.4993C77.6214 11.0803 77.2786 10.7375 76.8597 10.7375H72.2432C71.8242 10.7375 71.4814 11.0803 71.4814 11.4993V29.2306H77.6214Z" fill="#87D4FE"/>
<path d="M96.381 81.1759C96.381 80.7559 96.7227 80.4142 97.1427 80.4142H100.586V71.8931C100.586 71.1948 100.015 70.6235 99.3164 70.6235H87.8599C87.1616 70.6235 86.5903 71.1948 86.5903 71.8931V83.3496C86.5903 84.0478 87.1616 84.6191 87.8599 84.6191H96.381V81.1759Z" fill="#FF2C9C"/>
<path d="M105.394 88.1577C105.394 88.8559 104.823 89.4272 104.124 89.4272H97.1426C96.4443 89.4272 95.873 88.8559 95.873 88.1577V81.1758C95.873 80.4775 96.4443 79.9062 97.1426 79.9062H104.124C104.823 79.9062 105.394 80.4775 105.394 81.1758V88.1577Z" fill="#37C450"/>
<path d="M78.934 32.3196H40.373C39.3211 32.3196 38.4688 31.467 38.4688 30.4153C38.4688 29.3633 39.3211 28.511 40.373 28.511H78.934C79.986 28.511 80.8383 29.3633 80.8383 30.4153C80.8383 31.467 79.986 32.3196 78.934 32.3196Z" fill="#3BB9FF"/>
</svg>
