<svg width="130" height="130" viewBox="0 0 130 130" fill="none" xmlns="http://www.w3.org/2000/svg">
<g clip-path="url(#clip0)">
<path d="M65 127.207C99.356 127.207 127.207 99.356 127.207 65C127.207 30.644 99.356 2.79297 65 2.79297C30.644 2.79297 2.79297 30.644 2.79297 65C2.79297 99.356 30.644 127.207 65 127.207Z" fill="#F3B62E"/>
<path d="M36.1722 56.6709H1.77734C0.799805 56.6709 0 57.4707 0 58.4482V90.4331C0 91.4106 0.799805 92.2104 1.77734 92.2104H21.0996L24.2826 97.723C24.7713 98.5695 25.5712 98.5695 26.0599 97.723L29.2429 92.2104H36.1725V56.6709H36.1722Z" fill="#FC2A9B"/>
<path d="M5.03801 90.4331V58.4482C5.03801 57.4707 5.83781 56.6709 6.81535 56.6709H1.77734C0.799805 56.6709 0 57.4707 0 58.4482V90.4331C0 91.4106 0.799805 92.2104 1.77734 92.2104H6.81535C5.83781 92.2104 5.03801 91.4106 5.03801 90.4331Z" fill="#D3008D"/>
<path d="M36.1721 65.127H12.4756C11.4239 65.127 10.5713 65.9796 10.5713 67.0312C10.5713 68.0829 11.4239 68.9355 12.4756 68.9355H36.1721V65.127Z" fill="white"/>
<path d="M36.1721 71.9822H12.4756C11.4239 71.9822 10.5713 72.8348 10.5713 73.8865C10.5713 74.9382 11.4239 75.7908 12.4756 75.7908H36.1721V71.9822Z" fill="white"/>
<path d="M26.6984 82.6458H12.4756C11.4239 82.6458 10.5713 81.7931 10.5713 80.7415C10.5713 79.6898 11.4239 78.8372 12.4756 78.8372H26.6984C27.7501 78.8372 28.6027 79.6898 28.6027 80.7415C28.6027 81.7931 27.7503 82.6458 26.6984 82.6458Z" fill="white"/>
<path d="M81.0064 39.3575C80.1662 39.3575 79.483 38.6743 79.483 37.8341V12.4656H38.457C37.0605 12.4656 35.918 13.6082 35.918 15.0046V114.248C35.918 115.645 37.0605 116.788 38.457 116.788H91.5422C92.9387 116.788 94.0813 115.645 94.0813 114.248V39.3575H81.0064Z" fill="#396CAA"/>
<path d="M40.956 114.248V15.0046C40.956 13.6082 42.0986 12.4656 43.495 12.4656H38.457C37.0605 12.4656 35.918 13.6082 35.918 15.0046V114.248C35.918 115.645 37.0605 116.788 38.457 116.788H43.495C42.0986 116.788 40.956 115.645 40.956 114.248Z" fill="#0D477C"/>
<path d="M81.0064 39.3578C80.1662 39.3578 79.483 38.6745 79.483 37.8344V26.7734H35.918V102.48H94.0813V39.3578H81.0064Z" fill="white"/>
<path d="M40.956 26.772H35.918V102.479H40.956V26.772Z" fill="#D5DAE0"/>
<path d="M71.0051 111.672C71.0051 112.37 70.4338 112.941 69.7356 112.941H60.2646C59.5664 112.941 58.9951 112.37 58.9951 111.672V107.426C58.9951 106.728 59.5664 106.156 60.2646 106.156H69.7356C70.4338 106.156 71.0051 106.728 71.0051 107.426V111.672Z" fill="#0D477C"/>
<path d="M72.851 21.3565C72.851 22.0547 72.2797 22.626 71.5815 22.626H58.418C57.7197 22.626 57.1484 22.0547 57.1484 21.3565V19.28C57.1484 18.5818 57.7197 18.0105 58.418 18.0105H71.5815C72.2797 18.0105 72.851 18.5818 72.851 19.28V21.3565Z" fill="#185087"/>
<path d="M49.4612 20.3183C49.4612 21.5931 48.4281 22.626 47.1535 22.626C45.8786 22.626 44.8457 21.5931 44.8457 20.3183C44.8457 19.0434 45.8786 18.0105 47.1535 18.0105C48.4281 18.0108 49.4612 19.0436 49.4612 20.3183Z" fill="#0D477C"/>
<path d="M87.8851 89.2429H79.0918V98.1662H87.8851C88.5833 98.1662 89.1546 97.5949 89.1546 96.8967V90.5125C89.1546 89.8142 88.5833 89.2429 87.8851 89.2429Z" fill="#F3B62E"/>
<path d="M42.1143 89.2429C41.416 89.2429 40.8447 89.8142 40.8447 90.5125V96.8967C40.8447 97.5949 41.416 98.1662 42.1143 98.1662H79.3453V89.2429H42.1143Z" fill="#87D4FE"/>
<path d="M45.8837 96.8967V90.5125C45.8837 89.8142 46.455 89.2429 47.1532 89.2429H42.1152C41.417 89.2429 40.8457 89.8142 40.8457 90.5125V96.8967C40.8457 97.5949 41.417 98.1662 42.1152 98.1662H47.1532C46.455 98.1662 45.8837 97.5949 45.8837 96.8967Z" fill="#3BB9FF"/>
<path d="M77.2991 47.1042C77.2991 47.8025 76.7278 48.3738 76.0295 48.3738H42.1143C41.416 48.3738 40.8447 47.8025 40.8447 47.1042V34.5105C40.8447 33.8123 41.416 33.241 42.1143 33.241H76.0295C76.7278 33.241 77.2991 33.8123 77.2991 34.5105V47.1042Z" fill="#FDD762"/>
<path d="M45.8837 47.1042V34.5105C45.8837 33.8123 46.455 33.241 47.1532 33.241H42.1152C41.417 33.241 40.8457 33.8123 40.8457 34.5105V47.1042C40.8457 47.8025 41.417 48.3738 42.1152 48.3738H47.1532C46.455 48.3738 45.8837 47.8025 45.8837 47.1042Z" fill="#F2B42A"/>
<path d="M89.1543 65.5386C89.1543 66.2368 88.583 66.8081 87.8847 66.8081H53.9697C53.2715 66.8081 52.7002 66.2368 52.7002 65.5386V52.9448C52.7002 52.2466 53.2715 51.6753 53.9697 51.6753H87.8847C88.583 51.6753 89.1543 52.2466 89.1543 52.9448V65.5386Z" fill="#87D4FE"/>
<path d="M57.7382 65.5386V52.9448C57.7382 52.2466 58.3095 51.6753 59.0077 51.6753H53.9697C53.2715 51.6753 52.7002 52.2466 52.7002 52.9448V65.5386C52.7002 66.2368 53.2715 66.8081 53.9697 66.8081H59.0077C58.3095 66.8081 57.7382 66.2368 57.7382 65.5386Z" fill="#3BB9FF"/>
<path d="M77.2991 83.9734C77.2991 84.6716 76.7278 85.2429 76.0295 85.2429H42.1143C41.416 85.2429 40.8447 84.6716 40.8447 83.9734V71.3796C40.8447 70.6814 41.416 70.1101 42.1143 70.1101H76.0295C76.7278 70.1101 77.2991 70.6814 77.2991 71.3796V83.9734Z" fill="#FDD762"/>
<path d="M45.8837 83.9734V71.3796C45.8837 70.6814 46.455 70.1101 47.1532 70.1101H42.1152C41.417 70.1101 40.8457 70.6814 40.8457 71.3796V83.9734C40.8457 84.6716 41.417 85.2429 42.1152 85.2429H47.1532C46.455 85.2429 45.8837 84.6716 45.8837 83.9734Z" fill="#F2B42A"/>
<path d="M128.223 4.07202H81.0068C80.0293 4.07202 79.2295 4.87183 79.2295 5.84937V37.8342C79.2295 38.8117 80.0293 39.6115 81.0068 39.6115H99.9338L103.726 46.1801C104.215 47.0266 105.015 47.0266 105.503 46.1801L109.296 39.6115H128.223C129.2 39.6115 130 38.8117 130 37.8342V5.84937C130 4.87183 129.2 4.07202 128.223 4.07202Z" fill="#87D4FE"/>
<path d="M84.2675 37.8342V5.84937C84.2675 4.87183 85.0673 4.07202 86.0448 4.07202H81.0068C80.0293 4.07202 79.2295 4.87183 79.2295 5.84937V37.8342C79.2295 38.8117 80.0293 39.6115 81.0068 39.6115H86.0448C85.0673 39.6115 84.2675 38.8117 84.2675 37.8342Z" fill="#3BB9FF"/>
<path d="M117.31 17.1387H91.9189C90.8673 17.1387 90.0146 16.2861 90.0146 15.2344C90.0146 14.1827 90.8673 13.3301 91.9189 13.3301H117.31C118.361 13.3301 119.214 14.1827 119.214 15.2344C119.214 16.2861 118.361 17.1387 117.31 17.1387Z" fill="white"/>
<path d="M117.31 23.9939H91.9189C90.8673 23.9939 90.0146 23.1413 90.0146 22.0896C90.0146 21.0379 90.8673 20.1853 91.9189 20.1853H117.31C118.361 20.1853 119.214 21.0379 119.214 22.0896C119.214 23.1413 118.361 23.9939 117.31 23.9939Z" fill="white"/>
<path d="M106.142 30.8489H91.9189C90.8673 30.8489 90.0146 29.9963 90.0146 28.9446C90.0146 27.8929 90.8673 27.0403 91.9189 27.0403H106.142C107.193 27.0403 108.046 27.8929 108.046 28.9446C108.046 29.9963 107.193 30.8489 106.142 30.8489Z" fill="white"/>
</g>
<defs>
<clipPath id="clip0">
<rect width="130" height="130" fill="white"/>
</clipPath>
</defs>
</svg>
