<svg width="100" height="100" viewBox="0 0 100 100" fill="none" xmlns="http://www.w3.org/2000/svg">
<path d="M13.6719 84.3523C5.19785 75.3941 0 63.3045 0 50C0 22.3857 22.3857 0 50 0C77.6143 0 100 22.3857 100 50C100 63.3045 94.8021 75.3941 86.3281 84.3523V82.0312H13.6719V84.3523Z" fill="#0D477C"/>
<path d="M81.4453 9.76562H93.1641C96.9395 9.76562 100 12.8262 100 16.6016V31.25C100 33.4074 98.2512 35.1562 96.0938 35.1562H81.4453C77.6699 35.1562 74.6094 32.0957 74.6094 28.3203V16.6016C74.6094 12.8262 77.6699 9.76562 81.4453 9.76562Z" fill="#87D4FE"/>
<path d="M95.1172 9.76562C91.3418 9.76562 88.2812 12.8262 88.2812 16.6016V17.8391V46.875V82.1609C79.1094 93.0668 65.3652 100 50 100C34.8521 100 21.2785 93.2629 12.1094 82.6228V46.875V17.3771V16.6016C12.1094 12.8262 15.1699 9.76562 18.9453 9.76562H20.3141H79.6859H95.1172Z" fill="#D1EFFF"/>
<path d="M18.5547 88.8715C16.2246 86.984 14.0658 84.8932 12.1094 82.6228V46.875V17.3771V16.6016C12.1094 12.8262 15.1699 9.76562 18.9453 9.76562H20.3141H25.3906C21.6152 9.76562 18.5547 12.8262 18.5547 16.6016V17.3771V46.875V88.8715Z" fill="#87D4FE"/>
<path d="M73.2422 37.1094H28.3203C23.4662 37.1094 19.5312 33.1744 19.5312 28.3203C19.5312 23.4662 23.4662 19.5312 28.3203 19.5312H73.2422C78.0963 19.5312 82.0312 23.4662 82.0312 28.3203C82.0312 33.1744 78.0963 37.1094 73.2422 37.1094Z" fill="#E1FFFA"/>
<path d="M81.6437 35.913L77.2983 31.5677C78.6968 28.9776 78.3048 25.6688 76.1194 23.4833C73.4542 20.8181 69.1173 20.8181 66.4521 23.4833C63.7868 26.1485 63.7868 30.4854 66.4521 33.1507C68.6376 35.336 71.9462 35.7282 74.5364 34.3296L78.8817 38.6749C79.6444 39.4376 80.8812 39.4376 81.6439 38.6749C82.4065 37.9122 82.4065 36.6759 81.6437 35.913ZM69.2142 30.3888C68.0718 29.2464 68.0718 27.388 69.2142 26.2456C70.3566 25.1032 72.2151 25.1032 73.3573 26.2456C74.4997 27.3878 74.4997 29.2464 73.3573 30.3888C72.2149 31.5312 70.3564 31.5312 69.2142 30.3888Z" fill="#3BB9FF"/>
<path d="M28.4404 26.2455C29.5826 27.3876 29.5828 29.2462 28.4404 30.3886C27.298 31.531 25.4394 31.5308 24.2972 30.3886C23.1548 29.2464 23.1548 27.3876 24.2972 26.2455C25.4394 25.1031 27.298 25.1031 28.4404 26.2455ZM34.0601 26.2455C32.9177 27.3878 32.9177 29.2464 34.0601 30.3886C35.2023 31.5308 37.0609 31.531 38.2033 30.3886C39.3457 29.2462 39.3457 27.3876 38.2033 26.2455C37.0609 25.1031 35.2023 25.1031 34.0601 26.2455ZM47.9716 26.2455C46.8294 25.1031 44.9707 25.1031 43.8285 26.2455C42.6861 27.3878 42.6861 29.2464 43.8285 30.3886C44.9707 31.5308 46.8292 31.531 47.9716 30.3886C49.114 29.2462 49.1138 27.3876 47.9716 26.2455Z" fill="#87D4FE"/>
<path d="M74.2188 45.8984V47.8516C74.2188 48.3908 73.7814 48.8281 73.2422 48.8281H33.7891C33.2498 48.8281 32.8125 48.3908 32.8125 47.8516V45.8984C32.8125 45.3592 33.2498 44.9219 33.7891 44.9219H73.2422C73.7814 44.9219 74.2188 45.3592 74.2188 45.8984ZM33.7891 56.6406H65.4297C65.9689 56.6406 66.4062 56.2033 66.4062 55.6641V53.7109C66.4062 53.1717 65.9689 52.7344 65.4297 52.7344H33.7891C33.2498 52.7344 32.8125 53.1717 32.8125 53.7109V55.6641C32.8125 56.2033 33.2498 56.6406 33.7891 56.6406ZM73.2422 72.2656H33.7891C33.2498 72.2656 32.8125 72.7029 32.8125 73.2422V75.1953C32.8125 75.7346 33.2498 76.1719 33.7891 76.1719H73.2422C73.7814 76.1719 74.2188 75.7346 74.2188 75.1953V73.2422C74.2188 72.7029 73.7814 72.2656 73.2422 72.2656ZM65.4297 80.0781H33.7891C33.2498 80.0781 32.8125 80.5154 32.8125 81.0547V83.0078C32.8125 83.5471 33.2498 83.9844 33.7891 83.9844H65.4297C65.9689 83.9844 66.4062 83.5471 66.4062 83.0078V81.0547C66.4062 80.5154 65.9689 80.0781 65.4297 80.0781Z" fill="#87D4FE"/>
<path d="M56.6406 61.5234V63.4766C56.6406 64.0158 56.2033 64.4531 55.6641 64.4531H33.7891C33.2498 64.4531 32.8125 64.0158 32.8125 63.4766V61.5234C32.8125 60.9842 33.2498 60.5469 33.7891 60.5469H55.6641C56.2033 60.5469 56.6406 60.9842 56.6406 61.5234ZM55.6641 87.8906H33.7891C33.2498 87.8906 32.8125 88.3279 32.8125 88.8672V90.8203C32.8125 91.3596 33.2498 91.7969 33.7891 91.7969H55.6641C56.2033 91.7969 56.6406 91.3596 56.6406 90.8203V88.8672C56.6406 88.3279 56.2033 87.8906 55.6641 87.8906Z" fill="#3BB9FF"/>
<path d="M5.35962 51.9491C4.82271 51.4256 5.119 50.5139 5.86099 50.4059L11.9838 49.5163C12.2786 49.4735 12.5333 49.2883 12.6649 49.0213L15.4032 43.4731C15.735 42.8006 16.6938 42.8006 17.0256 43.4731L19.7639 49.0213C19.8958 49.2883 20.1504 49.4735 20.4452 49.5163L26.568 50.4059C27.31 50.5137 27.6063 51.4256 27.0694 51.9491L22.6387 56.2678C22.4254 56.4756 22.3282 56.7751 22.3786 57.0686L23.4245 63.1668C23.5512 63.9059 22.7754 64.4694 22.1118 64.1206L16.6352 61.2415C16.3717 61.103 16.0569 61.103 15.7932 61.2415L10.3167 64.1206C9.65298 64.4694 8.8772 63.9059 9.00415 63.1668L10.0501 57.0686C10.1004 56.7751 10.0032 56.4756 9.7899 56.2678L5.35962 51.9491ZM26.5682 77.7499L20.4454 76.8602C20.1506 76.8174 19.896 76.6323 19.7641 76.3653L17.0258 70.817C16.694 70.1446 15.7352 70.1446 15.4034 70.817L12.6651 76.3653C12.5333 76.6323 12.2786 76.8174 11.984 76.8602L5.86119 77.7499C5.11919 77.8577 4.8229 78.7696 5.35982 79.293L9.79048 83.6118C10.0038 83.8196 10.101 84.119 10.0506 84.4125L9.00474 90.5108C8.87798 91.2499 9.65376 91.8133 10.3172 91.4645L15.7938 88.5854C16.0573 88.4469 16.3721 88.4469 16.6358 88.5854L22.1124 91.4645C22.776 91.8133 23.5518 91.2499 23.4251 90.5108L22.3792 84.4125C22.3288 84.119 22.426 83.8196 22.6393 83.6118L27.07 79.293C27.6065 78.7694 27.3102 77.8577 26.5682 77.7499Z" fill="#FDD762"/>
<path d="M5.35962 51.9492C4.82271 51.4258 5.119 50.5141 5.86099 50.4061L8.78345 49.9814C10.7952 55.0268 15.7217 58.5939 21.4844 58.5939C21.8711 58.5939 22.253 58.5738 22.6317 58.5424L23.4249 63.167C23.5516 63.9061 22.7758 64.4695 22.1122 64.1207L16.6356 61.2416C16.3721 61.1031 16.0573 61.1031 15.7936 61.2416L10.317 64.1207C9.65337 64.4695 8.87759 63.9061 9.00454 63.167L10.0504 57.0688C10.1008 56.7752 10.0036 56.4758 9.79029 56.268L5.35962 51.9492ZM22.6317 85.8861C22.253 85.9176 21.8711 85.9377 21.4844 85.9377C15.7217 85.9377 10.7952 82.3705 8.78345 77.3252L5.86099 77.7498C5.119 77.8576 4.82271 78.7695 5.35962 79.293L9.79029 83.6117C10.0036 83.8195 10.1008 84.1189 10.0504 84.4125L9.00454 90.5107C8.87779 91.2498 9.65357 91.8133 10.317 91.4645L15.7936 88.5854C16.0571 88.4469 16.3719 88.4469 16.6356 88.5854L22.1122 91.4645C22.7758 91.8133 23.5516 91.2498 23.4249 90.5107L22.6317 85.8861Z" fill="#F2B42A"/>
</svg>
