<svg width="100" height="100" viewBox="0 0 100 100" fill="none" xmlns="http://www.w3.org/2000/svg">
<g clip-path="url(#clip0)">
<path d="M50 97.8516C76.4277 97.8516 97.8516 76.4277 97.8516 50C97.8516 23.5723 76.4277 2.14844 50 2.14844C23.5723 2.14844 2.14844 23.5723 2.14844 50C2.14844 76.4277 23.5723 97.8516 50 97.8516Z" fill="#E8A200"/>
<path d="M48.1457 13.2068H11.8443C10.7736 13.2068 9.89746 14.0828 9.89746 15.1535V24.8873H48.1457V13.2068Z" fill="#396CAA"/>
<path d="M15.7199 13.2068H11.8443C10.7736 13.2068 9.89746 14.0828 9.89746 15.1535V24.8873H13.773V15.1537C13.773 14.083 14.649 13.2068 15.7199 13.2068Z" fill="#0D477C"/>
<path d="M16.4887 20.9847C16.0557 20.9847 15.6336 20.8097 15.3278 20.5056C15.0237 20.1995 14.8489 19.7774 14.8489 19.3446C14.8489 18.9138 15.0239 18.4917 15.3278 18.1856C15.6336 17.8794 16.0559 17.7046 16.4887 17.7046C16.9194 17.7046 17.3436 17.8794 17.6475 18.1856C17.9536 18.4917 18.1288 18.9136 18.1288 19.3446C18.1288 19.7774 17.9538 20.1995 17.6475 20.5056C17.3436 20.8097 16.9194 20.9847 16.4887 20.9847Z" fill="#FF2C9C"/>
<path d="M21.8664 20.9847C21.4355 20.9847 21.0113 20.8097 20.7074 20.5035C20.4016 20.1996 20.2266 19.7777 20.2266 19.3449C20.2266 18.914 20.4016 18.4919 20.7074 18.1859C21.0137 17.8796 21.4357 17.7048 21.8664 17.7048C22.2992 17.7048 22.7211 17.8796 23.0275 18.1859C23.3314 18.4919 23.5063 18.9138 23.5063 19.3449C23.5063 19.7755 23.3313 20.1998 23.0275 20.5035C22.7211 20.8097 22.2992 20.9847 21.8664 20.9847Z" fill="#F2B42A"/>
<path d="M27.2467 20.9847C26.8137 20.9847 26.3917 20.8097 26.0877 20.5056C25.7817 20.1995 25.6067 19.7774 25.6067 19.3446C25.6067 18.9138 25.7817 18.4917 26.0877 18.1856C26.3917 17.8794 26.8137 17.7046 27.2467 17.7046C27.6774 17.7046 28.1016 17.8794 28.4055 18.1856C28.7116 18.4917 28.8868 18.9136 28.8868 19.3446C28.8868 19.7774 28.7118 20.1995 28.4055 20.5056C28.0995 20.8097 27.6774 20.9847 27.2467 20.9847Z" fill="#37C47A"/>
<path d="M49.1223 33.1375C48.5852 33.1375 48.1457 32.698 48.1457 32.1609V24.8875H9.89746V76.1113C12.5203 80.131 15.7297 83.7326 19.4066 86.7933H80.5936C84.2703 83.7326 87.4799 80.1312 90.1027 76.1113V33.1375H49.1223Z" fill="#87D4FE"/>
<path d="M13.773 74.8447V24.8875H9.89746V76.1113C9.9252 76.1535 9.95352 76.1953 9.98125 76.2374L13.773 74.8447Z" fill="#3BB9FF"/>
<path d="M49.1222 33.1374C48.5851 33.1374 48.1457 32.6979 48.1457 32.1608V29.7542H15.741C15.2039 29.7542 14.7644 30.1936 14.7644 30.7307V74.4805L23.1929 71.3848C23.2779 71.3538 23.356 71.3372 23.4189 71.3372C23.4818 71.3372 23.5244 71.3522 23.5451 71.3817C23.5765 71.4268 23.5871 71.5377 23.5224 71.7139L19.7712 81.9264H84.2593C84.7964 81.9264 85.2359 81.487 85.2359 80.9499V33.1374H49.1222Z" fill="#D1EFFF"/>
<path d="M47.9504 32.3561C47.9504 32.8932 48.3899 33.3327 48.927 33.3327H99.0235C99.5606 33.3327 100 32.8932 100 32.3561V5.85962C100 5.32251 99.5606 4.88306 99.0235 4.88306H48.927C48.3899 4.88306 47.9504 5.32251 47.9504 5.85962V32.3561Z" fill="#FDD762"/>
<path d="M51.826 32.3561V5.85962C51.826 5.32251 52.2655 4.88306 52.8026 4.88306H48.927C48.3899 4.88306 47.9504 5.32251 47.9504 5.85962V32.3561C47.9504 32.8932 48.3899 33.3327 48.927 33.3327H52.8026C52.2655 33.3327 51.826 32.8932 51.826 32.3561Z" fill="#F2B42A"/>
<path d="M100 5.85962C100 5.32251 99.5605 4.88306 99.0234 4.88306H89.8105V14.4866C89.8105 14.8102 90.0729 15.0725 90.3965 15.0725H100V5.85962Z" fill="#D3008D"/>
<path d="M79.2104 40.1345H45.3184C44.5092 40.1345 43.8535 39.4787 43.8535 38.6697C43.8535 37.8607 44.5092 37.2048 45.3184 37.2048H79.2104C80.0195 37.2048 80.6752 37.8607 80.6752 38.6697C80.6752 39.4787 80.0193 40.1345 79.2104 40.1345Z" fill="#396CAA"/>
<path d="M79.2104 45.1145H45.3184C44.5092 45.1145 43.8535 44.4586 43.8535 43.6497C43.8535 42.8407 44.5092 42.1848 45.3184 42.1848H79.2104C80.0195 42.1848 80.6752 42.8407 80.6752 43.6497C80.6752 44.4586 80.0193 45.1145 79.2104 45.1145Z" fill="#396CAA"/>
<path d="M68.134 50.0947H45.3184C44.5092 50.0947 43.8535 49.4389 43.8535 48.6299C43.8535 47.8209 44.5092 47.165 45.3184 47.165H68.134C68.9432 47.165 69.5988 47.8209 69.5988 48.6299C69.5988 49.4389 68.9432 50.0947 68.134 50.0947Z" fill="#396CAA"/>
<path d="M46.9669 75.3862H22.1736L21.0974 78.3159H46.9669C47.7761 78.3159 48.4318 77.6601 48.4318 76.8511C48.4318 76.0421 47.7761 75.3862 46.9669 75.3862Z" fill="#396CAA"/>
<path d="M46.9671 70.6992H20.8931C20.0839 70.6992 19.4282 71.3551 19.4282 72.1641C19.4282 72.3635 19.4685 72.5531 19.5403 72.7264L23.1931 71.3848C23.278 71.3537 23.3562 71.3371 23.419 71.3371C23.4819 71.3371 23.5245 71.3521 23.5452 71.3816C23.5767 71.4268 23.5872 71.5377 23.5226 71.7139L22.8192 73.6287H46.9671C47.7763 73.6287 48.4319 72.9728 48.4319 72.1639C48.4319 71.3549 47.7763 70.6992 46.9671 70.6992Z" fill="#396CAA"/>
<path d="M46.9671 68.9414H20.8931C20.0839 68.9414 19.4282 68.2855 19.4282 67.4766C19.4282 66.6676 20.0839 66.0117 20.8931 66.0117H46.9671C47.7763 66.0117 48.4319 66.6676 48.4319 67.4766C48.4319 68.2855 47.7763 68.9414 46.9671 68.9414Z" fill="#396CAA"/>
<path d="M79.1072 78.3159H53.0332C52.224 78.3159 51.5684 77.6601 51.5684 76.8511C51.5684 76.0421 52.224 75.3862 53.0332 75.3862H79.1072C79.9164 75.3862 80.5721 76.0421 80.5721 76.8511C80.5721 77.6601 79.9162 78.3159 79.1072 78.3159Z" fill="#396CAA"/>
<path d="M79.1072 73.6289H53.0332C52.224 73.6289 51.5684 72.973 51.5684 72.1641C51.5684 71.3551 52.224 70.6992 53.0332 70.6992H79.1072C79.9164 70.6992 80.5721 71.3551 80.5721 72.1641C80.5721 72.973 79.9162 73.6289 79.1072 73.6289Z" fill="#396CAA"/>
<path d="M79.1072 68.9414H53.0332C52.224 68.9414 51.5684 68.2855 51.5684 67.4766C51.5684 66.6676 52.224 66.0117 53.0332 66.0117H79.1072C79.9164 66.0117 80.5721 66.6676 80.5721 67.4766C80.5721 68.2855 79.9162 68.9414 79.1072 68.9414Z" fill="#396CAA"/>
<path d="M23.7057 71.7814C23.8908 71.2771 23.6297 71.0162 23.1256 71.2015L1.16328 79.2683C0.65918 79.4535 0.557227 79.9158 0.937109 80.2955L5.21973 84.5779C5.59941 84.9578 5.59941 85.5791 5.21973 85.959L0.284766 90.8937C-0.0949219 91.2736 -0.0949219 91.8949 0.284766 92.2748L2.63262 94.6224C3.0123 95.0023 3.63379 95.0023 4.01348 94.6224L8.94844 89.6877C9.32812 89.3078 9.94961 89.3078 10.3293 89.6877L14.6117 93.9699C14.9914 94.3498 15.4537 94.248 15.6389 93.7437L23.7057 71.7814Z" fill="#396CAA"/>
<path d="M3.08118 82.4394L22.3968 75.3447L23.7056 71.7814C23.8907 71.2771 23.6296 71.0162 23.1255 71.2015L1.16321 79.2683C0.659109 79.4535 0.557156 79.9158 0.937039 80.2955L3.08118 82.4394Z" fill="#0D477C"/>
<path d="M40.0391 51.1719C40.0391 51.709 39.5996 52.1484 39.0625 52.1484H19.5312C18.9941 52.1484 18.5547 51.709 18.5547 51.1719V36.3281C18.5547 35.791 18.9941 35.3516 19.5312 35.3516H39.0625C39.5996 35.3516 40.0391 35.791 40.0391 36.3281V51.1719Z" fill="#396CAA"/>
<path d="M81.1025 62.4017C81.1025 62.9388 80.6631 63.3783 80.126 63.3783H19.874C19.3369 63.3783 18.8975 62.9388 18.8975 62.4017V55.4675C18.8975 54.9304 19.3369 54.491 19.874 54.491H80.126C80.6631 54.491 81.1025 54.9304 81.1025 55.4675V62.4017Z" fill="#396CAA"/>
<path d="M22.4303 51.1719V36.3281C22.4303 35.791 22.8697 35.3516 23.4068 35.3516H19.5312C18.9941 35.3516 18.5547 35.791 18.5547 36.3281V51.1719C18.5547 51.709 18.9941 52.1484 19.5312 52.1484H23.4068C22.8697 52.1484 22.4303 51.709 22.4303 51.1719Z" fill="#0D477C"/>
<path d="M22.773 62.4017V55.4675C22.773 54.9304 23.2125 54.491 23.7496 54.491H19.874C19.3369 54.491 18.8975 54.9304 18.8975 55.4675V62.4017C18.8975 62.9388 19.3369 63.3783 19.874 63.3783H23.7496C23.2125 63.3783 22.773 62.9388 22.773 62.4017Z" fill="#0D477C"/>
<path d="M71.0071 27.9297H66.7102C65.901 27.9297 65.2454 27.2738 65.2454 26.4648V12.9883C65.2454 12.1793 65.901 11.5234 66.7102 11.5234H71.0071C73.4301 11.5234 75.4016 13.4947 75.4016 15.918V23.5352C75.4016 25.9584 73.4301 27.9297 71.0071 27.9297ZM68.175 25H71.0071C71.8149 25 72.4719 24.343 72.4719 23.5352V15.918C72.4719 15.1102 71.8149 14.4531 71.0071 14.4531H68.175V25Z" fill="#0D477C"/>
<path d="M83.1165 27.9297H77.843C77.0338 27.9297 76.3782 27.2738 76.3782 26.4648C76.3782 25.6559 77.0338 25 77.843 25H83.1165C83.3811 25 83.6047 24.7764 83.6047 24.5117V21.6797C83.6047 21.415 83.3811 21.1914 83.1165 21.1914H79.7961C77.9116 21.1914 76.3782 19.658 76.3782 17.7734V14.9414C76.3782 13.0568 77.9116 11.5234 79.7961 11.5234H85.0696C85.8786 11.5234 86.5344 12.1793 86.5344 12.9883C86.5344 13.7973 85.8786 14.4531 85.0696 14.4531H79.7961C79.5315 14.4531 79.3079 14.6768 79.3079 14.9414V17.7734C79.3079 18.0381 79.5315 18.2617 79.7961 18.2617H83.1165C85.001 18.2617 86.5344 19.7951 86.5344 21.6797V24.5117C86.5344 26.3965 85.001 27.9297 83.1165 27.9297Z" fill="#0D477C"/>
<path d="M59.8743 11.5234H58.5071C56.084 11.5234 54.1125 13.4947 54.1125 15.918V26.4648C54.1125 27.2738 54.7682 27.9297 55.5774 27.9297C56.3864 27.9297 57.0422 27.2738 57.0422 26.4648V21.224H61.3391V26.4648C61.3391 27.2738 61.9948 27.9297 62.804 27.9297C63.6129 27.9297 64.2688 27.2738 64.2688 26.4648V15.918C64.2688 13.4947 62.2973 11.5234 59.8743 11.5234ZM57.0422 18.2943V15.918C57.0422 15.1102 57.6993 14.4531 58.5071 14.4531H59.8743C60.6821 14.4531 61.3391 15.1102 61.3391 15.918V18.2943H57.0422Z" fill="#0D477C"/>
<path d="M96.9769 9.97766L98.3017 8.65305C98.874 8.08098 98.874 7.15344 98.3019 6.58157C97.7299 6.0095 96.8023 6.0095 96.2303 6.58137L94.9051 7.90637L93.5801 6.58137C93.0082 6.0093 92.0806 6.0093 91.5084 6.58157C90.9363 7.15364 90.9363 8.08118 91.5086 8.65305L92.8334 9.97766L91.5086 11.3023C90.9363 11.8743 90.9363 12.8019 91.5084 13.3738C91.7945 13.6599 92.1693 13.8029 92.5443 13.8029C92.9191 13.8029 93.2941 13.6599 93.5801 13.374L94.9051 12.049L96.2303 13.374C96.5162 13.6599 96.8912 13.8029 97.266 13.8029C97.6408 13.8029 98.0158 13.6599 98.3019 13.3738C98.874 12.8017 98.874 11.8741 98.3017 11.3023L96.9769 9.97766Z" fill="#FF2C9C"/>
</g>
<defs>
<clipPath id="clip0">
<rect width="100" height="100" fill="white"/>
</clipPath>
</defs>
</svg>
