<svg width="100" height="100" viewBox="0 0 100 100" fill="none" xmlns="http://www.w3.org/2000/svg">
<path d="M50 100C76.4277 100 97.8516 78.5761 97.8516 52.1484C97.8516 25.7207 76.4277 4.29688 50 4.29688C23.5723 4.29688 2.14844 25.7207 2.14844 52.1484C2.14844 78.5761 23.5723 100 50 100Z" fill="#61C7FF"/>
<path d="M73.1857 47.6562L72.5848 48.6973C72.3613 49.0842 72.0746 49.2973 71.7774 49.2973C71.4801 49.2973 71.1934 49.0842 70.9699 48.6973L70.3689 47.6562H29.6311L29.0301 48.6973C28.8066 49.0842 28.5199 49.2973 28.2227 49.2973C27.9254 49.2973 27.6387 49.0842 27.4152 48.6973L26.8143 47.6562H7.75098V74.6295C11.3787 81.4328 16.6008 87.2561 22.9195 91.6016H77.0805C83.3992 87.2561 88.6213 81.4328 92.249 74.6295V47.6562H73.1857Z" fill="white"/>
<path d="M7.75098 47.6562V74.6295C8.89043 76.7664 10.1877 78.8064 11.6264 80.7346V47.6562H7.75098Z" fill="#D5DAE0"/>
<path d="M19.8504 35.5942C19.627 35.2071 19.5857 34.8524 19.7344 34.595C19.883 34.3376 20.2109 34.1958 20.6578 34.1958H24.5992C24.707 34.1958 24.7945 34.1085 24.7945 34.0005V25.3647H7.75098V47.8517H26.927L19.8504 35.5942Z" fill="#F2B42A"/>
<path d="M31.6509 34.0005C31.6509 34.1085 31.7384 34.1958 31.8462 34.1958H35.7876C36.2345 34.1958 36.5625 34.3376 36.7111 34.595C36.8597 34.8524 36.8185 35.2073 36.5951 35.5942L29.5183 47.8517H70.4816L63.405 35.5942C63.1816 35.2071 63.1404 34.8524 63.289 34.595C63.4376 34.3376 63.7656 34.1958 64.2125 34.1958H68.1539C68.2617 34.1958 68.3492 34.1085 68.3492 34.0005V25.3647H58.0763L50.8074 37.9552C50.5839 38.3421 50.2972 38.5552 50 38.5552C49.7027 38.5552 49.416 38.3421 49.1925 37.9552L41.9236 25.3647H31.6507L31.6509 34.0005Z" fill="#F2B42A"/>
<path d="M75.2056 25.3647V34.0005C75.2056 34.1085 75.2931 34.1958 75.4009 34.1958H79.3423C79.7892 34.1958 80.1171 34.3376 80.2658 34.595C80.4144 34.8524 80.3732 35.2073 80.1498 35.5942L73.073 47.8517H92.249V25.3647H75.2056Z" fill="#F2B42A"/>
<path d="M11.6264 25.3652H7.75098V47.8516H11.6264V25.3652Z" fill="#E8A200"/>
<path d="M7.75098 16.8857V25.5602H24.7943V24.349C24.7943 23.9182 25.1447 23.5678 25.5756 23.5678H30.8695C31.3004 23.5678 31.6508 23.9182 31.6508 24.349V25.5602H42.0363L41.6275 24.8521C41.4041 24.465 41.3629 24.1104 41.5115 23.8529C41.6602 23.5955 41.9881 23.4537 42.435 23.4537H46.3764C46.4842 23.4537 46.5717 23.3664 46.5717 23.2584V14.8447H9.79199C8.66953 14.8447 7.75098 15.7633 7.75098 16.8857Z" fill="#396CAA"/>
<path d="M90.2079 14.8447H53.4282V23.2584C53.4282 23.3664 53.5157 23.4537 53.6235 23.4537H57.5649C58.0118 23.4537 58.3397 23.5955 58.4884 23.8529C58.637 24.1104 58.5958 24.4652 58.3724 24.8521L57.9636 25.5602H68.3491V24.349C68.3491 23.9182 68.6995 23.5678 69.1304 23.5678H74.4243C74.8552 23.5678 75.2056 23.9182 75.2056 24.349V25.5602H92.2489V16.8857C92.2489 15.7633 91.3304 14.8447 90.2079 14.8447Z" fill="#396CAA"/>
<path d="M13.6674 14.8447H9.79199C8.66953 14.8447 7.75098 15.7633 7.75098 16.8857V25.5602H11.6264V16.8857C11.6264 15.7633 12.5449 14.8447 13.6674 14.8447Z" fill="#0D477C"/>
<path d="M13.9793 21.4028C13.5752 21.4028 13.1813 21.2394 12.8956 20.9556C12.612 20.6698 12.4485 20.2761 12.4485 19.8722C12.4485 19.4698 12.6118 19.0761 12.8956 18.7903C13.1813 18.5044 13.5752 18.3413 13.9793 18.3413C14.3813 18.3413 14.7774 18.5044 15.061 18.7903C15.3467 19.0761 15.5102 19.4698 15.5102 19.8722C15.5102 20.2759 15.3469 20.6698 15.061 20.9556C14.7774 21.2394 14.3813 21.4028 13.9793 21.4028Z" fill="#FF2C9C"/>
<path d="M18.9989 21.4028C18.5968 21.4028 18.2009 21.2394 17.9171 20.9534C17.6313 20.6698 17.4683 20.2759 17.4683 19.8722C17.4683 19.4698 17.6313 19.0761 17.9171 18.7903C18.2028 18.5044 18.5968 18.3413 18.9989 18.3413C19.403 18.3413 19.7968 18.5044 20.0827 18.7903C20.3663 19.0761 20.5298 19.4698 20.5298 19.8722C20.5298 20.2739 20.3665 20.6698 20.0827 20.9534C19.7968 21.2394 19.403 21.4028 18.9989 21.4028Z" fill="#F2B42A"/>
<path d="M24.0208 21.4028C23.6167 21.4028 23.2228 21.2394 22.9392 20.9556C22.6535 20.6698 22.49 20.2761 22.49 19.8722C22.49 19.4698 22.6535 19.0761 22.9392 18.7903C23.2228 18.5044 23.6167 18.3413 24.0208 18.3413C24.423 18.3413 24.8189 18.5044 25.1027 18.7903C25.3884 19.0761 25.5517 19.4698 25.5517 19.8722C25.5517 20.2759 25.3886 20.6698 25.1027 20.9556C24.8167 21.2394 24.423 21.4028 24.0208 21.4028Z" fill="#2BB381"/>
<path d="M87.3506 21.3369H82.4521C81.6432 21.3369 80.9873 20.6813 80.9873 19.8721C80.9873 19.0629 81.6432 18.4072 82.4521 18.4072H87.3506C88.1596 18.4072 88.8154 19.0629 88.8154 19.8721C88.8154 20.6813 88.1596 21.3369 87.3506 21.3369Z" fill="#0D477C"/>
<path d="M57.5649 23.2582H53.6235V0.976562C53.6235 0.439453 53.1841 0 52.647 0H47.353C46.8159 0 46.3765 0.439453 46.3765 0.976562V23.2582H42.435C41.3608 23.2582 40.9214 24.0193 41.4585 24.9496L49.0235 38.0527C49.5606 38.983 50.4395 38.983 50.9766 38.0527L58.5415 24.9496C59.0786 24.0193 58.6391 23.2582 57.5649 23.2582Z" fill="#FC2A9B"/>
<path d="M41.7048 25.376H47.9083C48.232 25.376 48.4943 25.1137 48.4943 24.79V0H47.3533C46.8161 0 46.3767 0.439453 46.3767 0.976562V23.2582H42.4353C41.3611 23.2582 40.9216 24.0193 41.4587 24.9496L41.7048 25.376Z" fill="#D3008D"/>
<path d="M79.3423 34.0002H75.4009V24.3486C75.4009 23.8115 74.9614 23.3721 74.4243 23.3721H69.1304C68.5932 23.3721 68.1538 23.8115 68.1538 24.3486V34.0002H64.2124C63.1382 34.0002 62.6987 34.7615 63.2358 35.6916L70.8009 48.7947C71.338 49.725 72.2169 49.725 72.754 48.7947L80.3188 35.6916C80.8559 34.7615 80.4165 34.0002 79.3423 34.0002Z" fill="#FC2A9B"/>
<path d="M63.4999 36.1486H69.7165C70.0402 36.1486 70.3025 35.8863 70.3025 35.5627V23.3721H69.1306C68.5935 23.3721 68.154 23.8115 68.154 24.3486V34.0002H64.2126C63.1384 34.0002 62.699 34.7615 63.2361 35.6916L63.4999 36.1486Z" fill="#D3008D"/>
<path d="M35.7876 34.0002H31.8462V24.3486C31.8462 23.8115 31.4067 23.3721 30.8696 23.3721H25.5757C25.0386 23.3721 24.5991 23.8115 24.5991 24.3486V34.0002H20.6577C19.5835 34.0002 19.144 34.7615 19.6811 35.6916L27.2462 48.7947C27.7833 49.725 28.6622 49.725 29.1993 48.7947L36.7641 35.6916C37.3013 34.7615 36.8618 34.0002 35.7876 34.0002Z" fill="#FF2C9C"/>
<path d="M19.9453 36.1486H26.1619C26.4855 36.1486 26.7478 35.8863 26.7478 35.5627V23.3721H25.5759C25.0388 23.3721 24.5994 23.8115 24.5994 24.3486V34.0002H20.6579C19.5837 34.0002 19.1443 34.7615 19.6814 35.6916L19.9453 36.1486Z" fill="#D3008D"/>
<path d="M24 82.473C24 83.0102 24.4395 83.4496 24.9766 83.4496H75.0731C75.6102 83.4496 76.0496 83.0102 76.0496 82.473V55.9766C76.0496 55.4395 75.6102 55 75.0731 55H24.9766C24.4395 55 24 55.4395 24 55.9766V82.473Z" fill="#396CAA"/>
<path d="M27.8756 82.473V55.9766C27.8756 55.4395 28.315 55 28.8521 55H24.9766C24.4395 55 24 55.4395 24 55.9766V82.473C24 83.0102 24.4395 83.4496 24.9766 83.4496H28.8521C28.315 83.4496 27.8756 83.0102 27.8756 82.473Z" fill="#265C8C"/>
<path d="M76.0496 55.9766C76.0496 55.4395 75.6101 55 75.073 55H65.8601V64.6035C65.8601 64.9271 66.1224 65.1895 66.446 65.1895H76.0496V55.9766Z" fill="#D3008D"/>
<path d="M47.0566 78.0469H42.7598C41.9506 78.0469 41.2949 77.391 41.2949 76.582V63.1055C41.2949 62.2965 41.9506 61.6406 42.7598 61.6406H47.0566C49.4797 61.6406 51.4512 63.6119 51.4512 66.0352V73.6523C51.4512 76.0756 49.4797 78.0469 47.0566 78.0469ZM44.2246 75.1172H47.0566C47.8645 75.1172 48.5215 74.4602 48.5215 73.6523V66.0352C48.5215 65.2273 47.8645 64.5703 47.0566 64.5703H44.2246V75.1172Z" fill="#D1EFFF"/>
<path d="M59.166 78.0469H53.8926C53.0834 78.0469 52.4277 77.391 52.4277 76.582C52.4277 75.773 53.0834 75.1172 53.8926 75.1172H59.166C59.4307 75.1172 59.6543 74.8936 59.6543 74.6289V71.7969C59.6543 71.5322 59.4307 71.3086 59.166 71.3086H55.8457C53.9611 71.3086 52.4277 69.7752 52.4277 67.8906V65.0586C52.4277 63.174 53.9611 61.6406 55.8457 61.6406H61.1191C61.9281 61.6406 62.584 62.2965 62.584 63.1055C62.584 63.9145 61.9281 64.5703 61.1191 64.5703H55.8457C55.5811 64.5703 55.3574 64.7939 55.3574 65.0586V67.8906C55.3574 68.1553 55.5811 68.3789 55.8457 68.3789H59.166C61.0506 68.3789 62.584 69.9123 62.584 71.7969V74.6289C62.584 76.5137 61.0506 78.0469 59.166 78.0469Z" fill="#D1EFFF"/>
<path d="M35.9238 61.6406H34.5566C32.1336 61.6406 30.1621 63.6119 30.1621 66.0352V76.582C30.1621 77.391 30.8178 78.0469 31.627 78.0469C32.4359 78.0469 33.0918 77.391 33.0918 76.582V71.3412H37.3887V76.582C37.3887 77.391 38.0443 78.0469 38.8535 78.0469C39.6625 78.0469 40.3184 77.391 40.3184 76.582V66.0352C40.3184 63.6119 38.3469 61.6406 35.9238 61.6406ZM33.0918 68.4115V66.0352C33.0918 65.2273 33.7488 64.5703 34.5566 64.5703H35.9238C36.7316 64.5703 37.3887 65.2273 37.3887 66.0352V68.4115H33.0918Z" fill="#D1EFFF"/>
<path d="M73.0265 60.0948L74.3513 58.7702C74.9236 58.1982 74.9236 57.2706 74.3515 56.6988C73.7794 56.1267 72.8519 56.1267 72.2798 56.6986L70.9546 58.0236L69.6296 56.6986C69.0577 56.1265 68.1302 56.1265 67.5579 56.6988C66.9859 57.2708 66.9859 58.1984 67.5581 58.7702L68.8829 60.0948L67.5581 61.4195C66.9859 61.9915 66.9859 62.9191 67.5579 63.4909C67.8441 63.7771 68.2189 63.92 68.5939 63.92C68.9687 63.92 69.3437 63.7771 69.6296 63.4911L70.9546 62.1661L72.2798 63.4911C72.5657 63.7771 72.9408 63.92 73.3156 63.92C73.6904 63.92 74.0654 63.7771 74.3515 63.4909C74.9236 62.9189 74.9236 61.9913 74.3513 61.4195L73.0265 60.0948Z" fill="#FF2C9C"/>
</svg>
