<svg width="100" height="100" viewBox="0 0 100 100" fill="none" xmlns="http://www.w3.org/2000/svg">
<path d="M50 100C76.4277 100 97.8516 78.5761 97.8516 52.1484C97.8516 25.7207 76.4277 4.29688 50 4.29688C23.5723 4.29688 2.14844 25.7207 2.14844 52.1484C2.14844 78.5761 23.5723 100 50 100Z" fill="#0D477C"/>
<path d="M9.57031 10.0586V59.7656C9.57031 60.3027 10.0098 60.7422 10.5469 60.7422H27.167C25.9277 57.7965 25.2418 54.5627 25.2418 51.1719C25.2418 37.5199 36.3482 26.4135 50 26.4135C63.6518 26.4135 74.7582 37.5199 74.7582 51.1719C74.7582 54.5627 74.0723 57.7965 72.833 60.7422H89.4531C89.9902 60.7422 90.4297 60.3027 90.4297 59.7656V10.0586H9.57031Z" fill="#D1EFFF"/>
<path d="M13.4457 59.7656V10.0586H9.57031V59.7656C9.57031 60.3027 10.0098 60.7422 10.5469 60.7422H14.4223C13.8852 60.7422 13.4457 60.3027 13.4457 59.7656Z" fill="#87D4FE"/>
<path d="M49.9999 76.1259C36.2403 76.1259 25.0464 64.9318 25.0464 51.1722C25.0464 37.4126 36.2403 26.2185 49.9999 26.2185C63.7595 26.2185 74.9534 37.4128 74.9534 51.1722C74.9534 64.9316 63.7595 76.1259 49.9999 76.1259Z" fill="white"/>
<path d="M88.4766 0H11.5234C10.4492 0 9.57031 0.878906 9.57031 1.95312V10.2539H90.4297V1.95312C90.4297 0.878906 89.5508 0 88.4766 0Z" fill="#396CAA"/>
<path d="M15.3988 0H11.5234C10.4492 0 9.57031 0.878906 9.57031 1.95312V10.2539H13.4457V1.95312C13.4457 0.878906 14.3246 0 15.3988 0Z" fill="#173D7A"/>
<path d="M88.4764 0H73.7949V10.2539H90.4295V1.95312C90.4295 0.878906 89.5506 0 88.4764 0Z" fill="#173D7A"/>
<path d="M50 71.0135C60.9648 71.0135 69.8535 62.1248 69.8535 51.16C69.8535 40.1951 60.9648 31.3064 50 31.3064C39.0352 31.3064 30.1465 40.1951 30.1465 51.16C30.1465 62.1248 39.0352 71.0135 50 71.0135Z" fill="#D1EFFF"/>
<path d="M34.0219 51.1609C34.0219 40.8492 41.8828 32.3748 51.9382 31.4005C51.3005 31.3388 50.6542 31.3064 50.0005 31.3064C39.0355 31.3064 30.1465 40.1955 30.1465 51.1609C30.1465 62.1265 39.0357 71.0152 50.0005 71.0152C50.6544 71.0152 51.3007 70.9826 51.9382 70.9209C41.8828 69.947 34.0219 61.4726 34.0219 51.1609Z" fill="#87D4FE"/>
<path d="M71.32 51.1609C71.32 39.4054 61.7561 29.8416 50.0006 29.8416C38.2451 29.8416 28.6816 39.4054 28.6816 51.1609C28.6816 62.8273 38.1014 72.3334 49.7346 72.4767C49.8209 72.4925 49.9096 72.5021 50.0006 72.5021C50.0916 72.5021 50.1803 72.4925 50.2666 72.4767C61.9001 72.3335 71.32 62.8273 71.32 51.1609ZM31.6697 52.6257H38.4867C38.5795 55.2675 38.9213 57.764 39.4711 60.0369C37.7631 60.4324 36.1918 60.9255 34.8067 61.508C33.0506 58.9378 31.9291 55.9013 31.6697 52.6257ZM34.8067 40.8134C36.1918 41.3959 37.7631 41.8894 39.4709 42.2847C38.9211 44.558 38.5793 47.0543 38.4865 49.696H31.6695C31.9291 46.4205 33.0506 43.3839 34.8067 40.8134ZM68.3319 49.696H61.5149C61.4221 47.0543 61.0803 44.5578 60.5305 42.2847C62.2383 41.8894 63.8096 41.3959 65.1948 40.8134C66.951 43.3837 68.0725 46.4205 68.3319 49.696ZM58.5821 49.696H51.4655V43.3875C53.6163 43.3285 55.7024 43.1406 57.6643 42.8351C58.1649 44.8785 58.4897 47.1837 58.5821 49.696ZM51.4655 40.4564V33.073C53.4864 33.8878 55.4442 36.3396 56.7985 39.9968C55.0991 40.2451 53.3024 40.4015 51.4655 40.4564ZM48.5358 33.0728V40.4564C46.6991 40.4017 44.9022 40.2451 43.203 39.9968C44.5573 36.3392 46.5149 33.8876 48.5358 33.0728ZM48.5358 43.3876V49.6962H41.4196C41.5119 47.1839 41.8365 44.8787 42.3373 42.8353C44.2991 43.1408 46.3852 43.3287 48.5358 43.3876ZM41.4196 52.6257H48.5358V58.9343C46.385 58.9933 44.2991 59.1812 42.3373 59.4867C41.8365 57.4431 41.5119 55.1382 41.4196 52.6257ZM48.5358 61.8656V69.249C46.5149 68.4341 44.5573 65.9826 43.203 62.3252C44.9022 62.0769 46.6991 61.9203 48.5358 61.8656ZM51.4655 69.2488V61.8656C53.3024 61.9203 55.0991 62.0769 56.7985 62.325C55.4442 65.9824 53.4864 68.4337 51.4655 69.2488ZM51.4655 58.9343V52.6257H58.5821C58.4897 55.138 58.1649 57.4431 57.6643 59.4867C55.7024 59.1812 53.6163 58.9933 51.4655 58.9343ZM61.5151 52.6257H68.3321C68.0727 55.9013 66.9512 58.9377 65.195 61.5082C63.81 60.9257 62.2385 60.4324 60.5305 60.0371C61.0805 57.764 61.4223 55.2677 61.5151 52.6257ZM63.2567 38.4285C62.1819 38.8265 60.9858 39.1728 59.7012 39.4625C58.9901 37.4279 58.0954 35.6423 57.0567 34.1796C59.4094 35.1609 61.5163 36.6171 63.2567 38.4285ZM42.9446 34.1798C41.9059 35.6425 41.0113 37.4279 40.3002 39.4623C39.0158 39.1728 37.8197 38.8263 36.7449 38.4285C38.4852 36.6171 40.5918 35.1611 42.9446 34.1798ZM36.7445 63.8931C37.8194 63.4953 39.0156 63.1488 40.3002 62.8593C41.0113 64.8939 41.9059 66.6794 42.9446 68.1419C40.5918 67.1607 38.485 65.7044 36.7445 63.8931ZM57.0565 68.1421C58.0954 66.6794 58.9899 64.8939 59.7012 62.8593C60.9858 63.1488 62.1819 63.4953 63.2567 63.8933C61.5165 65.7044 59.4094 67.1607 57.0565 68.1421Z" fill="#0D477C"/>
<path d="M33.1459 91.2312C32.5402 91.2312 31.9955 90.858 31.7781 90.2904L28.4654 81.6425C28.1762 80.8871 28.5539 80.04 29.3094 79.7507C30.065 79.4619 30.9119 79.8394 31.2014 80.5947L33.0506 85.422L34.0485 82.4293C34.2479 81.831 34.8076 81.4277 35.4381 81.4277C36.0686 81.4277 36.6283 81.831 36.8278 82.4293L37.8254 85.422L39.6746 80.5947C39.9641 79.8392 40.8112 79.4617 41.5666 79.7507C42.3221 80.0402 42.6998 80.8873 42.4106 81.6425L39.0977 90.2904C38.8764 90.8683 38.3176 91.2451 37.6975 91.2308C37.0789 91.2174 36.5358 90.8166 36.3401 90.2297L35.4379 87.5238L34.5358 90.2297C34.3402 90.8166 33.7969 91.2174 33.1783 91.2308C33.1676 91.231 33.1567 91.2312 33.1459 91.2312Z" fill="#3BB9FF"/>
<path d="M47.7079 91.2312C47.1022 91.2312 46.5575 90.858 46.3401 90.2904L43.0274 81.6425C42.7382 80.8871 43.1159 80.04 43.8714 79.7507C44.6268 79.4619 45.4739 79.8394 45.7634 80.5947L47.6126 85.422L48.6104 82.4293C48.8098 81.831 49.3696 81.4277 50.0001 81.4277C50.6305 81.4277 51.1903 81.831 51.3897 82.4293L52.3874 85.422L54.2366 80.5947C54.526 79.8392 55.3733 79.4617 56.1286 79.7507C56.884 80.0402 57.2618 80.8873 56.9725 81.6425L53.6596 90.2904C53.4383 90.8683 52.8807 91.2451 52.2594 91.2308C51.6409 91.2174 51.0977 90.8166 50.902 90.2297L49.9999 87.5238L49.0977 90.2297C48.9022 90.8166 48.3589 91.2174 47.7403 91.2308C47.7296 91.231 47.7186 91.2312 47.7079 91.2312Z" fill="#3BB9FF"/>
<path d="M62.2705 91.2312C61.6648 91.2312 61.1201 90.858 60.9027 90.2904L57.59 81.6425C57.3006 80.8871 57.6785 80.04 58.434 79.7507C59.1894 79.4619 60.0363 79.8394 60.326 80.5947L62.1752 85.422L63.173 82.4293C63.3724 81.831 63.9322 81.4277 64.5627 81.4277C65.1932 81.4277 65.7529 81.831 65.9523 82.4293L66.95 85.422L68.7992 80.5947C69.0887 79.8392 69.9357 79.4617 70.6912 79.7507C71.4467 80.0402 71.8244 80.8873 71.5351 81.6425L68.2223 90.2904C68.001 90.8683 67.4445 91.2451 66.8221 91.2308C66.2035 91.2174 65.6603 90.8166 65.4646 90.2297L64.5625 87.5238L63.6603 90.2297C63.4648 90.8166 62.9215 91.2174 62.3029 91.2308C62.2922 91.231 62.2812 91.2312 62.2705 91.2312Z" fill="#3BB9FF"/>
<path d="M16.2097 6.2771C15.823 6.2771 15.446 6.12065 15.1726 5.84917C14.9011 5.57573 14.7449 5.19878 14.7449 4.81226C14.7449 4.42729 14.9011 4.05054 15.1726 3.7769C15.4459 3.50347 15.823 3.34741 16.2097 3.34741C16.5945 3.34741 16.9734 3.50347 17.2447 3.7769C17.5181 4.05034 17.6746 4.42729 17.6746 4.81226C17.6746 5.19878 17.5183 5.57554 17.2447 5.84917C16.9734 6.12065 16.5943 6.2771 16.2097 6.2771Z" fill="#FF2C9C"/>
<path d="M21.0132 6.2771C20.6284 6.2771 20.2495 6.12065 19.978 5.84722C19.7046 5.57554 19.5483 5.19878 19.5483 4.81226C19.5483 4.42729 19.7046 4.05054 19.978 3.7769C20.2515 3.50347 20.6284 3.34741 21.0132 3.34741C21.3999 3.34741 21.7767 3.50347 22.0503 3.7769C22.3218 4.05034 22.478 4.42729 22.478 4.81226C22.478 5.19683 22.3218 5.57554 22.0503 5.84722C21.7769 6.12065 21.3999 6.2771 21.0132 6.2771Z" fill="#F2B42A"/>
<path d="M25.8191 6.2771C25.4324 6.2771 25.0554 6.12065 24.7841 5.84917C24.5107 5.57573 24.3542 5.19878 24.3542 4.81226C24.3542 4.42729 24.5105 4.05054 24.7841 3.7769C25.0554 3.50347 25.4324 3.34741 25.8191 3.34741C26.2039 3.34741 26.5828 3.50347 26.8543 3.7769C27.1277 4.05034 27.2839 4.42729 27.2839 4.81226C27.2839 5.19878 27.1277 5.57554 26.8543 5.84917C26.5808 6.12065 26.2039 6.2771 25.8191 6.2771Z" fill="#37C47A"/>
<path d="M72.8516 15.0391C72.8516 14.7168 72.5879 14.4531 72.2656 14.4531H27.7344C27.4121 14.4531 27.1484 14.7168 27.1484 15.0391V20.1172C27.1484 20.4395 27.4121 20.7031 27.7344 20.7031H72.2656C72.5879 20.7031 72.8516 20.4395 72.8516 20.1172V15.0391Z" fill="white"/>
<path d="M31.0238 20.1172V15.0391C31.0238 14.7168 31.2875 14.4531 31.6098 14.4531H27.7344C27.4121 14.4531 27.1484 14.7168 27.1484 15.0391V20.1172C27.1484 20.4395 27.4121 20.7031 27.7344 20.7031H31.6098C31.2875 20.7031 31.0238 20.4395 31.0238 20.1172Z" fill="#D5DAE0"/>
<path d="M84.375 6.2771H79.6875C78.8785 6.2771 78.2227 5.62144 78.2227 4.81226C78.2227 4.00308 78.8785 3.34741 79.6875 3.34741H84.375C85.184 3.34741 85.8398 4.00308 85.8398 4.81226C85.8398 5.62144 85.184 6.2771 84.375 6.2771Z" fill="#396CAA"/>
</svg>
