<svg width="60" height="60" viewBox="0 0 60 60" fill="none" xmlns="http://www.w3.org/2000/svg">
<g filter="url(#filter0_d)">
<path d="M30 5C16.1364 5 5 16.1364 5 30C5 43.8636 16.1364 55 30 55C43.8636 55 55 43.8636 55 30C55 16.1364 43.8636 5 30 5ZM43.6364 31.1364C43.6364 31.8182 43.1818 32.2727 42.5 32.2727H32.8409C32.5 32.2727 32.2727 32.5 32.2727 32.8409V42.5C32.2727 43.1818 31.8182 43.6364 31.1364 43.6364H28.8636C28.1818 43.6364 27.7273 43.1818 27.7273 42.5V32.8409C27.7273 32.5 27.5 32.2727 27.1591 32.2727H17.5C16.8182 32.2727 16.3636 31.8182 16.3636 31.1364V28.8636C16.3636 28.1818 16.8182 27.7273 17.5 27.7273H27.1591C27.5 27.7273 27.7273 27.5 27.7273 27.1591V17.5C27.7273 16.8182 28.1818 16.3636 28.8636 16.3636H31.1364C31.8182 16.3636 32.2727 16.8182 32.2727 17.5V27.1591C32.2727 27.5 32.5 27.7273 32.8409 27.7273H42.5C43.1818 27.7273 43.6364 28.1818 43.6364 28.8636V31.1364Z" fill="#3BB9FF"/>
</g>
<defs>
<filter id="filter0_d" x="0" y="0" width="60" height="60" filterUnits="userSpaceOnUse" color-interpolation-filters="sRGB">
<feFlood flood-opacity="0" result="BackgroundImageFix"/>
<feColorMatrix in="SourceAlpha" type="matrix" values="0 0 0 0 0 0 0 0 0 0 0 0 0 0 0 0 0 0 127 0"/>
<feOffset/>
<feGaussianBlur stdDeviation="2.5"/>
<feColorMatrix type="matrix" values="0 0 0 0 0 0 0 0 0 0 0 0 0 0 0 0 0 0 0.25 0"/>
<feBlend mode="normal" in2="BackgroundImageFix" result="effect1_dropShadow"/>
<feBlend mode="normal" in="SourceGraphic" in2="effect1_dropShadow" result="shape"/>
</filter>
</defs>
</svg>
