<svg width="130" height="130" viewBox="0 0 130 130" fill="none" xmlns="http://www.w3.org/2000/svg">
<path d="M13.5291 104.694C5.04867 93.7135 0 79.9475 0 65C0 29.1015 29.1015 0 65 0C100.899 0 130 29.1015 130 65C130 79.9475 124.951 93.7135 116.471 104.694H13.5291ZM19.8999 111.803C31.5885 123.069 47.484 130 65 130C82.516 130 98.4115 123.069 110.1 111.803H19.8999Z" fill="#FC2A9B"/>
<path d="M110.471 112.03C107.498 114.931 104.249 117.551 100.765 119.844H29.4078C25.863 117.511 22.5612 114.841 19.5463 111.879C19.0141 111.356 19.3907 110.449 20.1369 110.449H109.833C110.659 110.449 111.062 111.452 110.471 112.03Z" fill="#DD0A90"/>
<path d="M114.258 38.0859H15.2344C13.8321 38.0859 12.6953 36.9492 12.6953 35.5469V20.3125C12.6953 18.9102 13.8321 17.7734 15.2344 17.7734H114.258C115.66 17.7734 116.797 18.9102 116.797 20.3125V35.5469C116.797 36.9492 115.66 38.0859 114.258 38.0859Z" fill="#396CAA"/>
<path d="M116.797 104.269C114.785 106.919 112.574 109.409 110.187 111.719H19.8131C17.2235 109.213 14.8413 106.495 12.6953 103.592V30.4688H116.797V104.269Z" fill="#D1EFFF"/>
<path d="M20.1431 111.719H19.8131C17.2235 109.213 14.8413 106.495 12.6953 103.592V30.4688H20.1431V111.719Z" fill="#87D4FE"/>
<path d="M25.3906 39.3555C25.3906 41.4588 23.6854 43.1641 21.582 43.1641C19.4787 43.1641 17.7734 41.4588 17.7734 39.3555C17.7734 37.2521 19.4787 35.5469 21.582 35.5469C23.6854 35.5469 25.3906 37.2521 25.3906 39.3555ZM53.3203 40.625V38.0859C53.3203 37.3849 52.7518 36.8164 52.0508 36.8164H31.7383C31.0372 36.8164 30.4688 37.3849 30.4688 38.0859V40.625C30.4688 41.326 31.0372 41.8945 31.7383 41.8945H52.0508C52.7518 41.8945 53.3203 41.326 53.3203 40.625ZM92.9297 86.3281H37.0703C36.3693 86.3281 35.8008 86.8966 35.8008 87.5977V90.1367C35.8008 90.838 36.3693 91.4062 37.0703 91.4062H92.9297C93.6307 91.4062 94.1992 90.838 94.1992 90.1367V87.5977C94.1992 86.8964 93.6307 86.3281 92.9297 86.3281ZM92.9297 96.4844H37.0703C36.3693 96.4844 35.8008 97.0529 35.8008 97.7539V100.293C35.8008 100.994 36.3693 101.562 37.0703 101.562H92.9297C93.6307 101.562 94.1992 100.994 94.1992 100.293V97.7539C94.1992 97.0526 93.6307 96.4844 92.9297 96.4844Z" fill="#396CAA"/>
<path d="M33.2617 60.9375H96.7383C98.1406 60.9375 99.2773 62.0742 99.2773 63.4766V68.5547C99.2773 69.957 98.1406 71.0938 96.7383 71.0938H33.2617C31.8594 71.0938 30.7227 69.957 30.7227 68.5547V63.4766C30.7227 62.0742 31.8594 60.9375 33.2617 60.9375Z" fill="#396CAA"/>
<path d="M99.2773 63.4766V68.5547C99.2773 67.1524 98.1406 66.0156 96.7383 66.0156H33.2617C31.8594 66.0156 30.7227 67.1524 30.7227 68.5547V63.4766C30.7227 62.0742 31.8594 60.9375 33.2617 60.9375H96.7383C98.1406 60.9375 99.2773 62.0742 99.2773 63.4766Z" fill="#0D477C"/>
<path d="M109.18 38.0859C109.18 46.4996 102.359 53.3203 93.9453 53.3203C85.5316 53.3203 78.7109 46.4996 78.7109 38.0859C78.7109 29.6722 85.5316 22.8516 93.9453 22.8516C102.359 22.8516 109.18 29.6722 109.18 38.0859ZM60.9375 25.3906C69.3512 25.3906 76.1719 18.5699 76.1719 10.1562C76.1719 6.46953 74.8622 3.08928 72.6829 0.454238C70.1627 0.157422 67.6 0 65 0C59.0797 0 53.3462 0.795996 47.8959 2.27906C46.5045 4.57768 45.7031 7.2734 45.7031 10.1562C45.7031 18.5699 52.5238 25.3906 60.9375 25.3906ZM64.7461 48.2422C56.3324 48.2422 49.5117 55.0629 49.5117 63.4766C49.5117 66.2525 50.2577 68.8525 51.5549 71.0938H77.9373C79.2342 68.8525 79.9805 66.2525 79.9805 63.4766C79.9805 55.0629 73.1598 48.2422 64.7461 48.2422Z" fill="#F2B42A"/>
<path d="M62.4645 58.7253H63.2399V60.7149H62.43C61.8384 60.7149 61.3658 60.1959 61.4435 59.5891C61.5078 59.0879 61.959 58.7253 62.4645 58.7253ZM74.9023 63.4766C74.9023 66.5111 73.5698 69.2327 71.4601 71.0938H58.0318C55.9223 69.2327 54.5898 66.5111 54.5898 63.4766C54.5898 57.8676 59.1371 53.3204 64.7461 53.3204C70.3551 53.3204 74.9023 57.8676 74.9023 63.4766ZM71.0397 64.8147C71.1064 62.5659 69.2964 60.7152 67.0622 60.7152H66.2523V58.7255H68.4734C69.0676 58.7255 69.5492 58.2439 69.5492 57.6497V56.8172C69.5492 56.223 69.0676 55.7414 68.4734 55.7414H66.2523V55.4928C66.2523 54.8984 65.7706 54.4168 65.1762 54.4168H64.3157C63.7216 54.4168 63.2397 54.8984 63.2397 55.4928V55.7414H62.4297C60.1956 55.7414 58.3855 57.5921 58.4523 59.841C58.5165 62.0053 60.3492 63.6996 62.5145 63.6996H63.2397V65.6892H61.0185C60.4244 65.6892 59.9427 66.1708 59.9427 66.765V67.5975C59.9427 68.1919 60.4244 68.6733 61.0185 68.6733H63.2397V68.9222C63.2397 69.5163 63.7213 69.998 64.3155 69.998H65.176C65.7701 69.998 66.252 69.5163 66.252 68.9222V68.6733H66.9774C69.143 68.6733 70.9754 66.979 71.0397 64.8147ZM67.0622 63.6993H66.2523V65.6889H67.0274C67.533 65.6889 67.9842 65.3266 68.0484 64.8254C68.1266 64.2186 67.6538 63.6993 67.0622 63.6993ZM90.6428 35.468C90.5648 36.0748 91.0376 36.5938 91.6292 36.5938H92.4391V34.6042H91.6637C91.1582 34.6042 90.707 34.9668 90.6428 35.468ZM96.2614 39.5782H95.4515V41.5678H96.2267C96.7322 41.5678 97.1834 41.2055 97.2476 40.7043C97.3258 40.0975 96.8531 39.5782 96.2614 39.5782ZM104.102 38.086C104.102 43.6951 99.5544 48.2423 93.9453 48.2423C88.3363 48.2423 83.7891 43.6951 83.7891 38.086C83.7891 32.477 88.3363 27.9298 93.9453 27.9298C99.5544 27.9298 104.102 32.477 104.102 38.086ZM100.239 40.6936C100.306 38.4448 98.4956 36.5941 96.2614 36.5941H95.4515V34.6045H97.6727C98.2668 34.6045 98.7485 34.1228 98.7485 33.5287V32.6961C98.7485 32.102 98.2668 31.6203 97.6727 31.6203H95.4515V31.3717C95.4515 30.7773 94.9698 30.2957 94.3754 30.2957H93.5149C92.9208 30.2957 92.4389 30.7773 92.4389 31.3717V31.6203H91.6289C89.3948 31.6203 87.5847 33.471 87.6515 35.7199C87.7157 37.8842 89.5484 39.5785 91.7137 39.5785H92.4389V41.5681H90.2177C89.6236 41.5681 89.1419 42.0497 89.1419 42.6439V43.4764C89.1419 44.0708 89.6236 44.5522 90.2177 44.5522H92.4389V44.8011C92.4389 45.3952 92.9205 45.8769 93.5147 45.8769H94.3752C94.9693 45.8769 95.4512 45.3952 95.4512 44.8011V44.5522H96.1766C98.3422 44.5522 100.175 42.8579 100.239 40.6936ZM57.6349 7.57232C57.557 8.17891 58.0298 8.69814 58.6214 8.69814H59.4313V6.70854H58.6559C58.1504 6.70854 57.6992 7.07086 57.6349 7.57232ZM64.2401 12.8084C64.318 12.2018 63.8452 11.6826 63.2536 11.6826H62.4437V13.6722H63.2188C63.7246 13.6722 64.1756 13.3096 64.2401 12.8084ZM60.9375 20.3126C55.3285 20.3126 50.7812 15.7654 50.7812 10.1563C50.7812 5.44662 53.9876 1.4867 58.3362 0.337773C59.5794 0.211074 60.8339 0.123477 62.0968 0.0678711C67.1597 0.643477 71.0938 4.93957 71.0938 10.1563C71.0938 15.7654 66.5465 20.3126 60.9375 20.3126ZM60.5071 17.9812H61.3676C61.9618 17.9812 62.4437 17.4996 62.4437 16.9054V16.6566H63.1691C65.3344 16.6566 67.1668 14.9623 67.2311 12.798C67.2978 10.5491 65.4878 8.6984 63.2536 8.6984H62.4437V6.70879H64.6648C65.259 6.70879 65.7406 6.22713 65.7406 5.63299V4.80043C65.7406 4.20629 65.259 3.72438 64.6648 3.72438H62.4437V3.4758C62.4437 2.88166 61.962 2.39975 61.3676 2.39975H60.5071C59.913 2.39975 59.4311 2.88141 59.4311 3.4758V3.72438H58.6211C56.387 3.72438 54.5769 5.57535 54.6437 7.82395C54.7079 9.98824 56.5406 11.6828 58.7059 11.6828H59.4311V13.6724H57.2099C56.6158 13.6724 56.1341 14.1541 56.1341 14.7482V15.5808C56.1341 16.1749 56.6158 16.6566 57.2099 16.6566H59.4311V16.9054C59.4313 17.4996 59.913 17.9812 60.5071 17.9812Z" fill="#FDD762"/>
<path d="M113.017 27.9948L109.347 30.0021C109.213 30.0753 109.103 30.1852 109.03 30.3193L107.023 33.9895C106.72 34.5425 105.926 34.5425 105.624 33.9895L103.616 30.3193C103.543 30.1855 103.433 30.0755 103.299 30.0021L99.6289 27.9948C99.0759 27.6924 99.0759 26.8981 99.6289 26.5957L103.299 24.5884C103.433 24.5152 103.543 24.4053 103.616 24.2715L105.624 20.601C105.926 20.048 106.72 20.048 107.023 20.601L109.03 24.2715C109.103 24.4053 109.213 24.5152 109.347 24.5884L113.017 26.5957C113.57 26.8981 113.57 27.6924 113.017 27.9948ZM78.7573 17.0801L76.0443 15.5963C75.9455 15.5422 75.864 15.4609 75.81 15.3619L74.3261 12.6489C74.1027 12.2404 73.5157 12.2404 73.292 12.6489L71.8081 15.3619C71.7541 15.4609 71.6728 15.5422 71.5738 15.5963L68.8608 17.0801C68.452 17.3035 68.452 17.8906 68.8608 18.1143L71.5738 19.5978C71.6726 19.6519 71.7541 19.7332 71.8081 19.8322L73.292 22.5452C73.5154 22.954 74.1024 22.954 74.3261 22.5452L75.81 19.8322C75.864 19.7332 75.9453 19.6522 76.0443 19.5978L78.7573 18.1143C79.1658 17.8906 79.1658 17.3035 78.7573 17.0801Z" fill="#FDD762"/>
<path d="M20.1498 26.65C19.4635 26.65 18.7944 26.3723 18.3091 25.8903C17.8275 25.4049 17.5498 24.7362 17.5498 24.0501C17.5498 23.3667 17.8271 22.698 18.3091 22.2126C18.7944 21.727 19.4635 21.45 20.1498 21.45C20.8325 21.45 21.5052 21.727 21.9869 22.2126C22.4722 22.698 22.7498 23.3667 22.7498 24.0501C22.7498 24.7358 22.4725 25.4049 21.9869 25.8903C21.5052 26.3723 20.8325 26.65 20.1498 26.65Z" fill="#FF2C9C"/>
<path d="M27.9499 26.65C27.2669 26.65 26.5944 26.3723 26.1124 25.8866C25.6271 25.4049 25.3501 24.7358 25.3501 24.0501C25.3501 23.3667 25.6271 22.698 26.1124 22.2126C26.5978 21.727 27.2669 21.45 27.9499 21.45C28.6363 21.45 29.3051 21.727 29.7907 22.2126C30.2724 22.698 30.5501 23.3667 30.5501 24.0501C30.5501 24.7325 30.2728 25.4049 29.7907 25.8866C29.3051 26.3723 28.6363 26.65 27.9499 26.65Z" fill="#F2B42A"/>
<path d="M35.7499 26.65C35.0636 26.65 34.3945 26.3723 33.9129 25.8903C33.4275 25.4049 33.1499 24.7362 33.1499 24.0501C33.1499 23.3667 33.4275 22.698 33.9129 22.2126C34.3945 21.727 35.0636 21.45 35.7499 21.45C36.4329 21.45 37.1053 21.727 37.5873 22.2126C38.0726 22.698 38.3499 23.3667 38.3499 24.0501C38.3499 24.7358 38.0729 25.4049 37.5873 25.8903C37.1017 26.3723 36.4329 26.65 35.7499 26.65Z" fill="#2BB381"/>
</svg>
