<svg width="130" height="130" viewBox="0 0 130 130" fill="none" xmlns="http://www.w3.org/2000/svg">
<g clip-path="url(#clip0)">
<path d="M65 130C99.356 130 127.207 102.149 127.207 67.793C127.207 33.437 99.356 5.58594 65 5.58594C30.644 5.58594 2.79297 33.437 2.79297 67.793C2.79297 102.149 30.644 130 65 130Z" fill="#61C7FF"/>
<path d="M12.8164 101.661C23.9096 118.719 43.1361 130 65 130C86.8636 130 106.09 118.719 117.184 101.661V11.8145H12.8164V101.661Z" fill="#D1EFFF"/>
<path d="M12.8164 11.8145V101.661C14.3457 104.013 16.0303 106.254 17.8547 108.371V11.8145H12.8164Z" fill="#87D4FE"/>
<path d="M114.645 0H15.3555C13.959 0 12.8164 1.14258 12.8164 2.53906V12.0682H117.184V2.53906C117.184 1.14258 116.041 0 114.645 0Z" fill="#0D477C"/>
<path d="M95.9418 18.9153H47.4482V29.3333H95.9418C96.6401 29.3333 97.2113 28.762 97.2113 28.0638V20.1848C97.2113 19.4866 96.6401 18.9153 95.9418 18.9153Z" fill="white"/>
<path d="M34.0581 18.9153C33.3599 18.9153 32.7886 19.4866 32.7886 20.1848V28.064C32.7886 28.7623 33.3599 29.3336 34.0581 29.3336H47.702V18.9153H34.0581Z" fill="#87D4FE"/>
<path d="M37.8268 28.064V20.1848C37.8268 19.4866 38.3981 18.9153 39.0964 18.9153H34.0581C33.3599 18.9153 32.7886 19.4866 32.7886 20.1848V28.064C32.7886 28.7623 33.3599 29.3336 34.0581 29.3336H39.0964C38.3981 29.3336 37.8268 28.7623 37.8268 28.064Z" fill="#3BB9FF"/>
<path d="M38.8477 68.5588C38.8477 67.8606 38.2764 67.2893 37.5781 67.2893H22.3438C21.6455 67.2893 21.0742 67.8606 21.0742 68.5588V76.176C21.0742 76.8743 21.6455 77.4456 22.3438 77.4456H37.5781C38.2764 77.4456 38.8477 76.8743 38.8477 76.176V68.5588Z" fill="#87D4FE"/>
<path d="M50.2734 83.2854C50.2734 82.5872 49.7021 82.0159 49.0039 82.0159H22.3438C21.6455 82.0159 21.0742 82.5872 21.0742 83.2854V90.9026C21.0742 91.6008 21.6455 92.1721 22.3438 92.1721H49.0039C49.7021 92.1721 50.2734 91.6008 50.2734 90.9026V83.2854Z" fill="#FC2A9B"/>
<path d="M62.7148 98.012C62.7148 97.3137 62.1436 96.7424 61.4453 96.7424H22.3438C21.6455 96.7424 21.0742 97.3137 21.0742 98.012V105.629C21.0742 106.327 21.6455 106.899 22.3438 106.899H61.4453C62.1436 106.899 62.7148 106.327 62.7148 105.629V98.012Z" fill="#F2B42A"/>
<path d="M90.6445 98.012C90.6445 97.3137 90.0732 96.7424 89.375 96.7424H68.5547C67.8564 96.7424 67.2852 97.3137 67.2852 98.012V105.629C67.2852 106.327 67.8564 106.899 68.5547 106.899H89.375C90.0732 106.899 90.6445 106.327 90.6445 105.629V98.012Z" fill="#F2B42A"/>
<path d="M96.4844 96.7424C95.7861 96.7424 95.2148 97.3137 95.2148 98.012V105.629C95.2148 106.327 95.7861 106.899 96.4844 106.899H109.18C109.878 106.899 110.449 106.327 110.449 105.629V98.012C110.449 97.3137 109.878 96.7424 109.18 96.7424H96.4844Z" fill="#F2B42A"/>
<path d="M79.9805 83.2854C79.9805 82.5872 79.4092 82.0159 78.7109 82.0159H56.1133C55.415 82.0159 54.8438 82.5872 54.8438 83.2854V90.9026C54.8438 91.6008 55.415 92.1721 56.1133 92.1721H78.7109C79.4092 92.1721 79.9805 91.6008 79.9805 90.9026V83.2854Z" fill="#FC2A9B"/>
<path d="M85.8203 82.0159C85.1221 82.0159 84.5508 82.5872 84.5508 83.2854V90.9026C84.5508 91.6008 85.1221 92.1721 85.8203 92.1721H109.18C109.878 92.1721 110.449 91.6008 110.449 90.9026V83.2854C110.449 82.5872 109.878 82.0159 109.18 82.0159H85.8203Z" fill="#F2B42A"/>
<path d="M69.8242 68.5588C69.8242 67.8606 69.2529 67.2893 68.5547 67.2893H44.6875C43.9893 67.2893 43.418 67.8606 43.418 68.5588V76.176C43.418 76.8743 43.9893 77.4456 44.6875 77.4456H68.5547C69.2529 77.4456 69.8242 76.8743 69.8242 76.176V68.5588Z" fill="#87D4FE"/>
<path d="M26.1125 76.176V68.5588C26.1125 67.8606 26.6838 67.2893 27.382 67.2893H22.3437C21.6455 67.2893 21.0742 67.8606 21.0742 68.5588V76.176C21.0742 76.8743 21.6455 77.4456 22.3437 77.4456H27.382C26.6838 77.4456 26.1125 76.8743 26.1125 76.176Z" fill="#3BB9FF"/>
<path d="M48.4562 76.176V68.5588C48.4562 67.8606 49.0275 67.2893 49.7258 67.2893H44.6875C43.9893 67.2893 43.418 67.8606 43.418 68.5588V76.176C43.418 76.8743 43.9893 77.4456 44.6875 77.4456H49.7258C49.0275 77.4456 48.4562 76.8743 48.4562 76.176Z" fill="#3BB9FF"/>
<path d="M92.4219 68.5588C92.4219 67.8606 91.8506 67.2893 91.1523 67.2893H75.6641C74.9658 67.2893 74.3945 67.8606 74.3945 68.5588V76.176C74.3945 76.8743 74.9658 77.4456 75.6641 77.4456H91.1523C91.8506 77.4456 92.4219 76.8743 92.4219 76.176V68.5588Z" fill="#396CAA"/>
<path d="M98.2617 67.2893C97.5635 67.2893 96.9922 67.8606 96.9922 68.5588V76.176C96.9922 76.8743 97.5635 77.4456 98.2617 77.4456H109.18C109.878 77.4456 110.449 76.8743 110.449 76.176V68.5588C110.449 67.8606 109.878 67.2893 109.18 67.2893H98.2617Z" fill="#396CAA"/>
<path d="M102.03 76.176V68.5588C102.03 67.8606 102.602 67.2893 103.3 67.2893H98.2617C97.5635 67.2893 96.9922 67.8606 96.9922 68.5588V76.176C96.9922 76.8743 97.5635 77.4456 98.2617 77.4456H103.3C102.602 77.4456 102.03 76.8743 102.03 76.176Z" fill="#0D477C"/>
<path d="M79.4328 76.176V68.5588C79.4328 67.8606 80.0041 67.2893 80.7023 67.2893H75.6641C74.9658 67.2893 74.3945 67.8606 74.3945 68.5588V76.176C74.3945 76.8743 74.9658 77.4456 75.6641 77.4456H80.7023C80.0041 77.4456 79.4328 76.8743 79.4328 76.176Z" fill="#0D477C"/>
<path d="M66.9043 112.231C66.9043 111.532 66.333 110.961 65.6348 110.961H41.7676C41.0693 110.961 40.498 111.532 40.498 112.231V119.848C40.498 120.546 41.0693 121.117 41.7676 121.117H65.6348C66.333 121.117 66.9043 120.546 66.9043 119.848V112.231Z" fill="#FC2A9B"/>
<path d="M89.502 112.231C89.502 111.532 88.9307 110.961 88.2324 110.961H72.7441C72.0459 110.961 71.4746 111.532 71.4746 112.231V119.848C71.4746 120.546 72.0459 121.117 72.7441 121.117H88.2324C88.9307 121.117 89.502 120.546 89.502 119.848V112.231Z" fill="#FC2A9B"/>
<path d="M26.1125 90.9026V83.2854C26.1125 82.5872 26.6838 82.0159 27.382 82.0159H22.3437C21.6455 82.0159 21.0742 82.5872 21.0742 83.2854V90.9026C21.0742 91.6008 21.6455 92.1721 22.3437 92.1721H27.382C26.6838 92.1721 26.1125 91.6008 26.1125 90.9026Z" fill="#D3008D"/>
<path d="M26.1125 105.629V98.012C26.1125 97.3137 26.6838 96.7424 27.382 96.7424H22.3437C21.6455 96.7424 21.0742 97.3137 21.0742 98.012V105.629C21.0742 106.327 21.6455 106.899 22.3437 106.899H27.382C26.6838 106.899 26.1125 106.327 26.1125 105.629Z" fill="#E8A200"/>
<path d="M72.3234 105.629V98.012C72.3234 97.3137 72.8947 96.7424 73.5929 96.7424H68.5547C67.8564 96.7424 67.2852 97.3137 67.2852 98.012V105.629C67.2852 106.327 67.8564 106.899 68.5547 106.899H73.5929C72.8947 106.899 72.3234 106.327 72.3234 105.629Z" fill="#E8A200"/>
<path d="M100.253 105.629V98.012C100.253 97.3137 100.824 96.7424 101.523 96.7424H96.4844C95.7861 96.7424 95.2148 97.3137 95.2148 98.012V105.629C95.2148 106.327 95.7861 106.899 96.4844 106.899H101.523C100.824 106.899 100.253 106.327 100.253 105.629Z" fill="#E8A200"/>
<path d="M59.882 90.9026V83.2854C59.882 82.5872 60.4533 82.0159 61.1515 82.0159H56.1133C55.415 82.0159 54.8438 82.5872 54.8438 83.2854V90.9026C54.8438 91.6008 55.415 92.1721 56.1133 92.1721H61.1515C60.4533 92.1721 59.882 91.6008 59.882 90.9026Z" fill="#D3008D"/>
<path d="M89.589 90.9026V83.2854C89.589 82.5872 90.1603 82.0159 90.8586 82.0159H85.8203C85.1221 82.0159 84.5508 82.5872 84.5508 83.2854V90.9026C84.5508 91.6008 85.1221 92.1721 85.8203 92.1721H90.8586C90.1603 92.1721 89.589 91.6008 89.589 90.9026Z" fill="#E8A200"/>
<path d="M45.5363 119.848V112.231C45.5363 111.532 46.1076 110.961 46.8058 110.961H41.7676C41.0693 110.961 40.498 111.532 40.498 112.231V119.848C40.498 120.546 41.0693 121.117 41.7676 121.117H46.8058C46.1076 121.117 45.5363 120.546 45.5363 119.848Z" fill="#D3008D"/>
<path d="M76.5129 119.848V112.231C76.5129 111.532 77.0842 110.961 77.7824 110.961H72.7441C72.0459 110.961 71.4746 111.532 71.4746 112.231V119.848C71.4746 120.546 72.0459 121.117 72.7441 121.117H77.7824C77.0842 121.117 76.5129 120.546 76.5129 119.848Z" fill="#D3008D"/>
<path d="M73.231 47.0173C73.231 45.3273 73.5713 43.7171 74.1857 42.25H36.9245C36.5098 42.25 35.9297 42.4846 35.6306 42.7733L31.8433 46.4384C31.6975 46.5794 31.6153 46.7731 31.6143 46.976C31.6133 47.1788 31.694 47.3733 31.839 47.5155L35.6361 51.2571C35.7298 51.3492 35.8515 51.4363 35.9972 51.5158C36.1097 51.577 36.2333 51.6072 36.3562 51.6072C36.5388 51.6072 36.7193 51.5412 36.8605 51.4135L40.8928 47.7775C41.041 47.6435 41.2393 47.5696 41.4511 47.5696C41.6634 47.5696 41.8612 47.6435 42.0105 47.7775L46.2162 51.5704C46.3594 51.6996 46.5399 51.7641 46.7204 51.7641C46.9009 51.7641 47.081 51.6996 47.2242 51.5704L51.4304 47.7775C51.5787 47.6435 51.7775 47.5696 51.9892 47.5696C52.2015 47.5696 52.3993 47.6435 52.5481 47.7775L56.7776 51.5915C56.916 51.7161 57.095 51.7849 57.2814 51.7849H62.8709C63.1113 51.7849 63.3371 51.6702 63.479 51.4757L66.0988 47.8816C66.2169 47.7196 66.3745 47.6305 66.5421 47.6305C66.7102 47.6305 66.8679 47.7199 66.9854 47.8814L69.6047 51.4754C69.7469 51.6699 69.9732 51.7847 70.2136 51.7847H74.1849C73.5713 50.3176 73.231 48.7076 73.231 47.0173Z" fill="#396CAA"/>
<path d="M35.6077 47.5153C35.463 47.3731 35.382 47.1786 35.383 46.9757C35.384 46.7731 35.4663 46.5794 35.612 46.4382L39.3993 42.7731C39.6984 42.4844 40.2786 42.2498 40.6932 42.2498H36.9245C36.5098 42.2498 35.9297 42.4844 35.6306 42.7731L31.8433 46.4382C31.6975 46.5791 31.6153 46.7728 31.6143 46.9757C31.6133 47.1786 31.694 47.3731 31.839 47.5153L35.6361 51.2568C35.7298 51.349 35.8515 51.4361 35.9972 51.5156C36.1097 51.5767 36.2333 51.607 36.3562 51.607C36.5388 51.607 36.7193 51.5409 36.8605 51.4132L38.2719 50.1407L35.6077 47.5153Z" fill="#0D477C"/>
<path d="M85.5874 34.2192C78.5192 34.2192 72.7896 39.9494 72.7896 47.0174C72.7896 54.0856 78.5192 59.8158 85.5874 59.8158C92.6557 59.8158 98.3858 54.0859 98.3858 47.0174C98.3858 39.9491 92.6557 34.2192 85.5874 34.2192ZM89.8533 50.2179C88.0854 50.2179 86.6528 48.7851 86.6528 47.0174C86.6528 45.2497 88.0856 43.8169 89.8533 43.8169C91.6213 43.8169 93.0533 45.2497 93.0533 47.0174C93.0533 48.7851 91.6213 50.2179 89.8533 50.2179Z" fill="#F2B42A"/>
<path d="M82.8438 50.845C81.7918 50.845 80.9395 49.9924 80.9395 48.9407V44.5913C80.9395 43.5396 81.7918 42.687 82.8438 42.687C83.8957 42.687 84.748 43.5396 84.748 44.5913V48.9407C84.748 49.9924 83.8957 50.845 82.8438 50.845Z" fill="#E8A200"/>
<path d="M78.3271 49.8411C77.2752 49.8411 76.4229 48.9884 76.4229 47.9368V45.5947C76.4229 44.543 77.2752 43.6904 78.3271 43.6904C79.3791 43.6904 80.2314 44.543 80.2314 45.5947V47.9368C80.2314 48.9887 79.3791 49.8411 78.3271 49.8411Z" fill="#E8A200"/>
<path d="M20.3987 7.94241C19.8556 7.94241 19.3262 7.72278 18.9425 7.34167C18.5612 6.95776 18.3418 6.42837 18.3418 5.88552C18.3418 5.34495 18.5612 4.81581 18.9425 4.4319C19.3264 4.04774 19.8558 3.82837 20.3987 3.82837C20.939 3.82837 21.4712 4.04774 21.8523 4.4319C22.2365 4.81581 22.4558 5.34495 22.4558 5.88552C22.4558 6.42837 22.2365 6.95776 21.8523 7.34167C21.4712 7.72278 20.939 7.94241 20.3987 7.94241Z" fill="#FF2C9C"/>
<path d="M27.1441 7.94242C26.6037 7.94242 26.0716 7.72279 25.6902 7.33863C25.3063 6.95752 25.0869 6.42813 25.0869 5.88527C25.0869 5.34471 25.3063 4.81557 25.6902 4.43166C26.0744 4.0475 26.6037 3.82812 27.1441 3.82812C27.6872 3.82812 28.2163 4.0475 28.6005 4.43166C28.9816 4.81557 29.201 5.34471 29.201 5.88527C29.201 6.42559 28.9816 6.95752 28.6005 7.33863C28.2163 7.72279 27.6872 7.94242 27.1441 7.94242Z" fill="#F2B42A"/>
<path d="M33.8926 7.94241C33.3495 7.94241 32.8201 7.72278 32.439 7.34167C32.0548 6.95776 31.8354 6.42837 31.8354 5.88552C31.8354 5.34495 32.0548 4.81581 32.439 4.4319C32.8201 4.04774 33.3495 3.82837 33.8926 3.82837C34.4329 3.82837 34.9651 4.04774 35.3462 4.4319C35.7304 4.81581 35.9497 5.34495 35.9497 5.88552C35.9497 6.42837 35.7304 6.95776 35.3462 7.34167C34.9623 7.72278 34.4329 7.94241 33.8926 7.94241Z" fill="#37C47A"/>
</g>
<defs>
<clipPath id="clip0">
<rect width="130" height="130" fill="white"/>
</clipPath>
</defs>
</svg>
