<svg width="130" height="130" viewBox="0 0 130 130" fill="none" xmlns="http://www.w3.org/2000/svg">
<g clip-path="url(#clip0)">
<path d="M130 65C130 95.113 109.521 120.439 81.7322 127.822C88.1858 114.492 89.6889 98.7447 84.7248 83.5552C74.5472 52.4111 41.0493 35.4146 9.90545 45.5924C7.16986 46.4864 4.54422 47.561 2.03613 48.7977C9.23539 20.7388 34.6956 0 65.0001 0C100.899 0 130 29.1015 130 65Z" fill="#396CAA"/>
<path d="M121.875 66.8328H89.5916L83.1634 73.2609C82.6676 73.7568 81.8639 73.7568 81.3681 73.2609L74.9399 66.8328H42.6562C41.2539 66.8328 40.1172 65.696 40.1172 64.2937V18.5906C40.1172 17.1883 41.2539 16.0515 42.6562 16.0515H107.764C114.832 22.2311 120.548 29.9158 124.414 38.6068V64.2937C124.414 65.696 123.277 66.8328 121.875 66.8328Z" fill="#265C8C"/>
<path d="M102.798 63.7585C110.693 87.919 101.603 113.548 82.092 127.724C76.6452 129.205 70.9158 130 65 130C29.1015 130 0 100.898 0 64.9999C0 59.0948 0.792187 53.3756 2.26764 47.9377C9.09416 38.5198 18.8472 31.0912 30.7493 27.2019C60.7397 17.4011 92.9972 33.7682 102.798 63.7585Z" fill="#D1EFFF"/>
<path d="M102.798 63.7587C92.9971 33.768 60.7396 17.401 30.7492 27.202C18.8474 31.0914 9.09434 38.5199 2.26756 47.9378C2.19596 48.2018 2.1274 48.4669 2.05885 48.7322C2.0266 48.8569 1.99461 48.9813 1.96312 49.1065C1.83033 49.6346 1.70465 50.1656 1.5848 50.6988C1.55713 50.8216 1.52844 50.944 1.50152 51.0669C1.43652 51.3637 1.37406 51.6616 1.31338 51.9599C1.26971 52.1739 1.22832 52.3885 1.18693 52.6033C1.10848 53.009 1.03332 53.4161 0.96248 53.8243C0.918301 54.08 0.875137 54.3362 0.834004 54.5929C0.80709 54.7597 0.779668 54.9265 0.754023 55.0941C5.27102 46.9216 11.8713 39.8844 20.1101 34.8705C18.5391 38.5092 17.4936 42.9998 17.0342 48.2397C16.7923 51.0017 16.7179 53.9112 16.8029 56.9322C11.2746 58.0971 5.73871 59.0182 0.215996 59.6997C0.147949 60.5435 0.0956445 61.3918 0.0598437 62.2441C0.0595898 62.2525 0.059082 62.2609 0.0588281 62.2693C0.0413086 62.6915 0.0275977 63.1145 0.0182031 63.5388C0.0182031 63.5418 0.0179492 63.5449 0.0179492 63.5482C0.00830078 63.9775 0.00296875 64.4079 0.00195312 64.8393C5.6925 64.1616 11.3965 63.2372 17.0926 62.059C17.8092 70.621 19.7079 79.8865 22.6941 89.1854C17.0154 90.2525 11.3401 91.062 5.68209 91.614C5.81768 91.9156 5.95809 92.2145 6.09799 92.5135C6.16096 92.6481 6.22291 92.7835 6.28664 92.9178C6.43898 93.2372 6.59514 93.5546 6.75256 93.8712C6.80055 93.9679 6.84828 94.0649 6.89678 94.1612C7.07223 94.5095 7.25047 94.8558 7.43201 95.2004C7.45766 95.2494 7.48355 95.2981 7.50945 95.3471C7.70852 95.7227 7.91012 96.0967 8.11604 96.4681C13.5181 95.8862 18.9335 95.0762 24.35 94.0383C27.4835 102.684 31.3571 110.655 35.6948 117.439C33.2939 117.934 30.8922 118.379 28.491 118.784C28.491 118.784 28.491 118.784 28.4912 118.784C29.5295 119.49 30.5903 120.165 31.6704 120.812C31.7334 120.849 31.7966 120.886 31.8598 120.924C32.3374 121.207 32.8188 121.485 33.3043 121.756C33.3696 121.793 33.4348 121.83 33.5001 121.866C34.034 122.162 34.5718 122.453 35.1149 122.734C36.3423 122.491 37.5694 122.24 38.796 121.974C39.7459 123.272 40.7133 124.513 41.6956 125.693C41.6987 125.694 41.7015 125.695 41.7045 125.696C43.2562 126.292 44.837 126.829 46.4429 127.307C46.5252 127.332 46.6072 127.357 46.6895 127.381C47.0315 127.481 47.3745 127.578 47.7188 127.673C47.829 127.703 47.9397 127.733 48.0502 127.763C48.3906 127.855 48.7316 127.945 49.0742 128.031C49.1447 128.049 49.2156 128.066 49.2862 128.083C50.0715 128.278 50.8617 128.46 51.6579 128.627C49.9816 127.218 48.2772 125.533 46.5706 123.584C45.7754 122.676 44.9898 121.72 44.2144 120.726C49.4444 119.444 54.6619 117.955 59.8525 116.259C65.0431 114.562 70.1334 112.683 75.1107 110.629C75.0721 111.889 75.0026 113.124 74.8972 114.327C74.3005 121.134 72.6323 126.454 70.1375 129.797C70.1753 129.794 70.2131 129.792 70.251 129.788C70.5331 129.766 70.8146 129.741 71.0957 129.714C71.2148 129.703 71.3344 129.693 71.4532 129.681C71.7114 129.656 71.9684 129.627 72.2256 129.599C72.3642 129.583 72.5034 129.57 72.6415 129.553C72.7588 129.54 72.8756 129.524 72.9929 129.509C73.554 129.44 74.1134 129.365 74.6702 129.282C74.7144 129.275 74.7588 129.269 74.803 129.262C75.1229 129.214 75.4418 129.162 75.76 129.109C75.7993 129.103 75.8389 129.097 75.8783 129.09C76.2091 129.034 76.5389 128.976 76.8683 128.915C76.8881 128.911 76.9079 128.907 76.9277 128.904C78.6743 128.579 80.3968 128.185 82.0916 127.724C101.603 113.548 110.693 87.9194 102.798 63.7587ZM76.1875 34.4932C70.8288 37.5502 65.2785 40.3775 59.56 42.9589C57.8446 40.4709 56.0667 38.1667 54.2401 36.0806C50.7751 32.1232 47.2796 29.1165 43.863 27.1078C55.3175 26.1315 66.5917 28.8481 76.1875 34.4932ZM22.0931 48.6825C23.0094 38.2271 26.4519 31.2775 31.5379 29.6154C36.6239 27.9533 43.506 31.5288 50.4196 39.4253C51.9212 41.1402 53.389 43.0163 54.8152 45.0295C49.5205 47.2598 44.0948 49.2853 38.5574 51.0951C33.0199 52.9047 27.4452 54.4741 21.8552 55.8007C21.8171 53.334 21.894 50.9534 22.0931 48.6825ZM22.0943 60.9573C28.1335 59.553 34.1562 57.8759 40.1346 55.9221C46.1131 53.9683 51.9639 51.7652 57.6669 49.3322C62.1739 56.5896 66.1417 65.2379 69.214 74.6119C62.6348 77.5539 55.8253 80.1778 48.8104 82.4703C41.7954 84.7628 34.7505 86.6663 27.7036 88.1773C24.6476 78.798 22.7431 69.4756 22.0943 60.9573ZM58.2752 111.432C52.5413 113.305 46.7748 114.916 40.9964 116.271C36.568 109.668 32.5934 101.72 29.382 93.0089C36.3974 91.4824 43.4082 89.5781 50.3881 87.2973C57.3683 85.0162 64.1506 82.4129 70.7136 79.5019C73.2661 88.4287 74.7522 97.19 75.0772 105.133C69.6142 107.453 64.0092 109.558 58.2752 111.432ZM73.8524 72.4666C70.7712 63.1991 66.8319 54.6 62.354 47.2672C68.7621 44.3458 74.9637 41.1222 80.9259 37.6167C88.1607 42.9478 94.1369 50.0973 98.0758 58.6635C90.4487 63.7909 82.3552 68.4016 73.8524 72.4666ZM76.8802 128.14C78.4511 124.501 79.4967 120.01 79.956 114.77C80.1345 112.735 80.2206 110.618 80.2206 108.437C87.2332 105.322 94.0059 101.855 100.495 98.0464C96.5518 110.385 88.2836 121.199 76.8802 128.14ZM80.0449 102.945C79.5396 94.9089 77.9585 86.1882 75.3816 77.3607C84.0178 73.27 92.2494 68.6319 100.018 63.473C100.143 63.8295 100.266 64.1868 100.384 64.5473C103.278 73.4008 103.773 82.4713 102.232 91.0546C95.1861 95.4467 87.7715 99.4185 80.0449 102.945Z" fill="#61C7FF"/>
<path d="M90.6713 120.045C88.0465 118.209 86.3283 115.165 86.3283 111.719C86.3283 110.583 86.5174 109.492 86.8615 108.472C76.3487 105.87 68.5548 96.3756 68.5548 85.0588C68.5548 71.737 79.3542 60.9377 92.6759 60.9377C96.1964 60.9377 99.5403 61.6923 102.556 63.0481C102.636 63.285 102.72 63.5204 102.798 63.7591C109.423 84.0322 104.087 105.338 90.6713 120.045ZM33.008 101.563C31.518 101.563 30.0718 101.749 28.6888 102.094C37.2088 98.3723 43.1642 89.8726 43.1642 79.9806C43.1642 66.6589 32.3648 55.8595 19.0431 55.8595C11.3036 55.8595 4.41609 59.5054 0.00244141 65.1726C0.0808984 95.3221 20.6851 120.645 48.5798 127.906C49.9816 125.364 50.7814 122.444 50.7814 119.336C50.7814 109.52 42.824 101.563 33.008 101.563ZM86.3283 40.6251C86.3283 39.9353 86.2849 39.2558 86.2084 38.5865C78.5968 31.9108 69.3125 27.3494 59.3604 25.4124C54.2183 28.527 50.7814 34.1744 50.7814 40.6251C50.7814 43.1627 51.3169 45.574 52.2751 47.7579C49.8257 49.6122 48.2423 52.5506 48.2423 55.8595C48.2423 61.4686 52.7896 66.0158 58.3986 66.0158C63.1339 66.0158 67.1122 62.7749 68.2367 58.3905C68.3431 58.3925 68.4482 58.3986 68.5548 58.3986C78.3709 58.3986 86.3283 50.4412 86.3283 40.6251Z" fill="#87D4FE"/>
<path d="M102.798 63.7588C102.72 63.5201 102.637 63.2847 102.556 63.0478C100.064 61.9273 97.3466 61.219 94.4915 61.0062C87.9257 65.2027 81.0372 69.0316 73.8524 72.4665C73.66 71.8878 73.4642 71.3117 73.2651 70.7381C71.2179 73.5088 69.7488 76.7324 69.0381 80.2317C69.5975 79.9895 70.1573 79.7483 70.7134 79.5015C72.8599 87.008 74.2488 94.3953 74.8307 101.28C77.1014 103.776 79.8855 105.796 83.0202 107.167C89.0386 104.387 94.8736 101.345 100.495 98.0463C98.0984 105.545 94.1017 112.479 88.7773 118.325C89.3341 118.973 89.9689 119.553 90.6712 120.045C104.087 105.338 109.423 84.0322 102.798 63.7588ZM80.045 102.945C79.5397 94.909 77.9586 86.1883 75.3817 77.3608C84.0178 73.2701 92.2495 68.632 100.018 63.4731C100.143 63.8296 100.267 64.1869 100.384 64.5474C103.278 73.4009 103.773 82.4714 102.233 91.0547C95.1861 95.4468 87.7716 99.4186 80.045 102.945ZM62.3538 47.2673C64.4594 50.7154 66.4437 54.4458 68.2779 58.3917C68.2642 58.3912 68.2502 58.3909 68.2365 58.3907C67.714 60.4283 66.5742 62.2181 65.0294 63.5513C62.8128 58.4171 60.3355 53.6297 57.6669 49.3326C54.7079 50.595 51.7082 51.794 48.6725 52.9299C49.3002 50.8446 50.5796 49.0414 52.2747 47.7581C52.0668 47.2841 51.8827 46.7976 51.7159 46.3035C52.7533 45.8861 53.7875 45.4633 54.815 45.0304C53.5095 43.187 52.1683 41.4607 50.7988 39.8659C50.8889 37.725 51.3558 35.6818 52.1381 33.8024C52.8394 34.5235 53.5404 35.2819 54.2399 36.0812C56.0663 38.1673 57.8444 40.4715 59.5598 42.9595C65.2783 40.3781 70.8287 37.5508 76.1874 34.4938C70.1774 30.9584 63.5088 28.5719 56.5502 27.5215C57.4133 26.7306 58.3532 26.0227 59.36 25.4128C69.3121 27.3499 78.5962 31.9113 86.208 38.587C86.2844 39.2563 86.3279 39.936 86.3279 40.6256C86.3279 41.1243 86.302 41.6166 86.2618 42.1051C84.5754 40.4933 82.7935 38.9938 80.9258 37.6176C74.9638 41.1223 68.7619 44.3459 62.3538 47.2673ZM50.7729 119.005C48.5895 119.615 46.4031 120.189 44.2145 120.726C44.9899 121.72 45.7755 122.676 46.5707 123.584C47.4789 124.621 48.3866 125.581 49.2898 126.467C49.0747 126.958 48.8383 127.436 48.5816 127.902C48.4222 127.86 48.2627 127.819 48.104 127.777C47.9545 127.737 47.8052 127.696 47.6562 127.655C47.3705 127.576 47.0856 127.495 46.8013 127.412C46.6738 127.375 46.5466 127.338 46.4194 127.3C46.1165 127.21 45.8146 127.117 45.5134 127.023C45.4078 126.99 45.3022 126.956 45.1968 126.922C44.8774 126.82 44.559 126.716 44.2419 126.609C44.1573 126.581 44.073 126.552 43.9885 126.523C43.6548 126.409 43.3225 126.293 42.9914 126.174C42.9231 126.149 42.855 126.124 42.787 126.1C42.4445 125.975 42.1032 125.848 41.7635 125.718C41.7404 125.709 41.7175 125.7 41.6944 125.691C40.7126 124.512 39.7457 123.271 38.7961 121.974C37.5697 122.24 36.3431 122.491 35.116 122.734C35.1056 122.728 35.0952 122.723 35.0847 122.718C34.548 122.439 34.0161 122.152 33.4879 121.859C33.4158 121.819 33.3442 121.778 33.2724 121.738C32.809 121.479 32.3494 121.213 31.8931 120.943C31.8165 120.897 31.7393 120.853 31.6631 120.807C31.1632 120.508 30.6675 120.202 30.1762 119.89C30.0909 119.836 30.0066 119.78 29.9218 119.726C29.508 119.46 29.0974 119.189 28.6899 118.914C28.6249 118.87 28.5596 118.826 28.4946 118.782C30.8945 118.378 33.295 117.933 35.6946 117.438C31.3569 110.654 27.4833 102.683 24.3498 94.0373C18.9333 95.0753 13.5182 95.8853 8.11584 96.4672C7.46305 95.2899 6.84504 94.0909 6.2641 92.8706C6.26029 92.8625 6.25623 92.8546 6.25242 92.8465C6.10059 92.5274 5.95358 92.2054 5.80682 91.8832C5.76568 91.7931 5.72277 91.7034 5.68215 91.613C11.3399 91.0611 17.0153 90.2516 22.6939 89.1844C19.7077 79.8856 17.809 70.6201 17.0924 62.0581C11.4953 63.2159 5.89086 64.1272 0.298828 64.8016C2.36563 62.2524 4.9415 60.1335 7.87209 58.5989C10.8491 58.1124 13.8272 57.5584 16.803 56.9312C16.7938 56.6078 16.7875 56.2858 16.7822 55.9649C17.5266 55.8963 18.2805 55.8595 19.043 55.8595C23.2248 55.8595 27.1575 56.9241 30.5863 58.7964C27.7613 59.5764 24.9298 60.298 22.0947 60.9574C22.7431 69.476 24.6479 78.7981 27.7042 88.1774C32.73 87.0999 37.7546 85.8187 42.7682 84.3429C42.396 86.3805 41.7673 88.328 40.9175 90.1521C37.0764 91.2164 33.23 92.1716 29.382 93.0088C30.2841 95.4557 31.2482 97.8396 32.2639 100.153C31.134 100.895 29.9398 101.547 28.6889 102.094C30.0366 101.757 31.4445 101.574 32.894 101.564C35.3371 106.942 38.0666 111.902 40.9964 116.271C43.9857 115.57 46.9716 114.8 49.9517 113.961C50.4575 115.556 50.7409 117.25 50.7729 119.005Z" fill="#3BB9FF"/>
<path d="M124.414 10.9734V56.6765C124.414 58.0788 123.277 59.2156 121.875 59.2156H89.5916L83.1634 65.6437C82.6676 66.1396 81.8639 66.1396 81.3681 65.6437L74.9399 59.2156H42.6562C41.2539 59.2156 40.1172 58.0788 40.1172 56.6765V10.9734C40.1172 9.57106 41.2539 8.43433 42.6562 8.43433H121.875C123.277 8.43433 124.414 9.57106 124.414 10.9734Z" fill="#FC2A9B"/>
<path d="M117.178 33.5712V36.1103C117.178 36.8113 116.609 37.3798 115.908 37.3798H84.1699C83.4688 37.3798 82.9004 36.8113 82.9004 36.1103V33.5712C82.9004 32.8702 83.4688 32.3017 84.1699 32.3017H115.908C116.609 32.3017 117.178 32.8702 117.178 33.5712ZM115.908 22.1454H84.1699C83.4688 22.1454 82.9004 22.7139 82.9004 23.415V25.954C82.9004 26.6551 83.4688 27.2236 84.1699 27.2236H115.908C116.609 27.2236 117.178 26.6551 117.178 25.954V23.415C117.178 22.7139 116.609 22.1454 115.908 22.1454ZM104.99 42.4579H84.1699C83.4688 42.4579 82.9004 43.0264 82.9004 43.7275V46.2665C82.9004 46.9676 83.4688 47.5361 84.1699 47.5361H104.99C105.691 47.5361 106.26 46.9676 106.26 46.2665V43.7275C106.26 43.0264 105.691 42.4579 104.99 42.4579ZM77.3781 33.4445L72.4064 31.6766C71.6975 31.4244 71.3623 30.6147 71.6851 29.9355L73.9504 25.1697C74.4633 24.0909 73.3377 22.9653 72.2589 23.4782L67.4931 25.7435C66.8136 26.0665 66.0039 25.7311 65.7518 25.0225L63.9838 20.0507C63.5837 18.9252 61.9917 18.9252 61.5915 20.0507L59.8236 25.0225C59.5714 25.7314 58.7617 26.0665 58.0823 25.7435L53.3165 23.4782C52.2376 22.9653 51.112 24.0909 51.6249 25.1697L53.8903 29.9355C54.2133 30.615 53.8779 31.4247 53.1689 31.6766L48.1972 33.4445C47.0716 33.8449 47.0716 35.4367 48.1972 35.8368L53.1689 37.6048C53.8779 37.8569 54.213 38.6666 53.8903 39.3458L51.6249 44.1116C51.112 45.1905 52.2376 46.3161 53.3165 45.8032L58.0823 43.5378C58.7617 43.2148 59.5714 43.5503 59.8236 44.2589L61.5915 49.2306C61.9917 50.3562 63.5837 50.3562 63.9838 49.2306L65.7518 44.2589C66.0039 43.55 66.8136 43.2148 67.4931 43.5378L72.2589 45.8032C73.3377 46.3161 74.4633 45.1905 73.9504 44.1116L71.6851 39.3458C71.3621 38.6664 71.6975 37.8567 72.4064 37.6048L77.3781 35.8368C78.5037 35.4367 78.5037 33.8449 77.3781 33.4445Z" fill="#D3008D"/>
<path d="M38.0861 66.0156C38.0861 68.8203 35.8126 71.0938 33.008 71.0938C30.2033 71.0938 27.9299 68.8203 27.9299 66.0156C27.9299 63.211 30.2033 60.9375 33.008 60.9375C35.8126 60.9375 38.0861 63.211 38.0861 66.0156ZM93.9455 73.6328C91.1408 73.6328 88.8673 75.9063 88.8673 78.7109C88.8673 81.5156 91.1408 83.7891 93.9455 83.7891C96.7501 83.7891 99.0236 81.5156 99.0236 78.7109C99.0236 75.9063 96.7501 73.6328 93.9455 73.6328ZM43.1642 101.562C40.3596 101.562 38.0861 103.836 38.0861 106.641C38.0861 109.445 40.3596 111.719 43.1642 111.719C45.9689 111.719 48.2424 109.445 48.2424 106.641C48.2424 103.836 45.9689 101.562 43.1642 101.562ZM17.7736 99.0234C15.1299 99.0234 12.9601 101.044 12.7196 103.625C14.1468 105.553 15.6791 107.399 17.3064 109.156C17.4605 109.17 17.6159 109.18 17.7736 109.18C20.5783 109.18 22.8517 106.906 22.8517 104.102C22.8517 101.297 20.5783 99.0234 17.7736 99.0234ZM2.53924 71.0938C1.74705 71.0938 1.00031 71.2804 0.332031 71.6038C0.663633 74.8891 1.23949 78.1023 2.04184 81.2249C2.20561 81.2409 2.37141 81.25 2.53924 81.25C5.34389 81.25 7.61736 78.9765 7.61736 76.1719C7.61736 73.3672 5.34389 71.0938 2.53924 71.0938Z" fill="#FC2A9B"/>
</g>
<defs>
<clipPath id="clip0">
<rect width="130" height="130" fill="white"/>
</clipPath>
</defs>
</svg>
