<svg width="130" height="130" viewBox="0 0 130 130" fill="none" xmlns="http://www.w3.org/2000/svg">
<g clip-path="url(#clip0)">
<path d="M65 127.207C99.356 127.207 127.207 99.356 127.207 65C127.207 30.644 99.356 2.79297 65 2.79297C30.644 2.79297 2.79297 30.644 2.79297 65C2.79297 99.356 30.644 127.207 65 127.207Z" fill="#0D477C"/>
<path d="M39.4974 103.784C39.4974 104.302 39.0744 104.725 38.5572 104.725H0.940469C0.423008 104.725 0 104.302 0 103.784V78.5816C0 78.0644 0.423008 77.6409 0.940469 77.6409H38.5569C39.0741 77.6409 39.4971 78.0644 39.4971 78.5816V103.784H39.4974Z" fill="#87D4FE"/>
<path d="M30.4764 92.3662C30.143 91.9712 29.5976 91.9712 29.2642 92.3662L24.3753 98.1672C24.0419 98.5623 23.4967 98.5623 23.1631 98.1672L13.9346 87.2188C13.6012 86.8232 13.0561 86.8232 12.7225 87.2188L0 102.312V103.784C0 104.302 0.423008 104.724 0.940469 104.724H38.5569C39.0741 104.724 39.4971 104.302 39.4971 103.784V103.068L30.4764 92.3662Z" fill="#2BB381"/>
<path d="M5.03826 103.784V102.312L15.8476 89.4885L13.9346 87.2188C13.6012 86.8232 13.0561 86.8232 12.7225 87.2188L0 102.312V103.784C0 104.302 0.423008 104.724 0.940469 104.724H5.97873C5.46127 104.724 5.03826 104.302 5.03826 103.784Z" fill="#0F9390"/>
<path d="M5.30137 85.3938C6.85931 85.3938 8.12227 84.1308 8.12227 82.5728C8.12227 81.0149 6.85931 79.752 5.30137 79.752C3.74343 79.752 2.48047 81.0149 2.48047 82.5728C2.48047 84.1308 3.74343 85.3938 5.30137 85.3938Z" fill="white"/>
<path d="M4.86891 82.5475C4.86891 81.4054 5.54912 80.4243 6.52539 79.9805C6.17018 79.8187 5.77637 79.7266 5.36047 79.7266C3.80225 79.7266 2.53906 80.9897 2.53906 82.5475C2.53906 84.1057 3.8025 85.3691 5.36047 85.3691C5.77637 85.3691 6.16992 85.2769 6.52539 85.1152C5.54912 84.6711 4.86891 83.6895 4.86891 82.5475Z" fill="#D1EFFF"/>
<path d="M120.997 98.8237C120.997 99.522 120.426 100.093 119.728 100.093H92.0303C91.332 100.093 90.7607 99.522 90.7607 98.8237V79.0002C90.7607 78.302 91.332 77.7307 92.0303 77.7307H119.728C120.426 77.7307 120.997 78.302 120.997 79.0002V98.8237Z" fill="#FF2C9C"/>
<path d="M95.799 98.8237V79.0002C95.799 78.302 96.3703 77.7307 97.0685 77.7307H92.0303C91.332 77.7307 90.7607 78.302 90.7607 79.0002V98.8237C90.7607 99.522 91.332 100.093 92.0303 100.093H97.0685C96.3703 100.093 95.799 99.522 95.799 98.8237Z" fill="#D8209B"/>
<path d="M100.941 84.9855C100.941 83.589 101.93 83.0177 103.14 83.716L109.94 87.6421C111.15 88.3404 111.15 89.4829 109.94 90.1812L103.14 94.1076C101.93 94.8058 100.941 94.2346 100.941 92.8381V84.9855Z" fill="white"/>
<path d="M129.495 56.9121H106.782C106.504 56.9121 106.277 57.1401 106.277 57.4192V71.9934C106.277 72.2724 106.504 72.5004 106.782 72.5004H129.495C129.773 72.5004 130 72.2724 130 71.9934V57.4192C130 57.1404 129.773 56.9121 129.495 56.9121Z" fill="#F2B42A"/>
<path d="M111.315 71.9936V57.4194C111.315 57.1404 111.542 56.9124 111.819 56.9124H106.781C106.503 56.9124 106.276 57.1404 106.276 57.4194V71.9936C106.276 72.2727 106.504 72.5007 106.781 72.5007H111.819C111.542 72.5007 111.315 72.2727 111.315 71.9936Z" fill="#EBA910"/>
<path d="M129.495 56.9121H106.782C106.628 56.9121 106.491 56.9835 106.398 57.0934L117.738 65.8577C117.959 66.0278 118.319 66.0278 118.538 65.8577L129.878 57.0934C129.785 56.9837 129.649 56.9121 129.495 56.9121Z" fill="#FDD762"/>
<path d="M32.7619 6.64111H10.0482C9.77045 6.64111 9.54346 6.86912 9.54346 7.14816V21.7224C9.54346 22.0014 9.7707 22.2294 10.0482 22.2294H32.7619C33.0397 22.2294 33.2667 22.0014 33.2667 21.7224V7.14816C33.2669 6.86937 33.0397 6.64111 32.7619 6.64111Z" fill="#F2B42A"/>
<path d="M14.5817 21.7226V7.14841C14.5817 6.86937 14.809 6.64136 15.0865 6.64136H10.0482C9.77045 6.64136 9.54346 6.86937 9.54346 7.14841V21.7226C9.54346 22.0017 9.7707 22.2297 10.0482 22.2297H15.0865C14.8087 22.2297 14.5817 22.0014 14.5817 21.7226Z" fill="#EBA910"/>
<path d="M32.7619 6.64111H10.0482C9.89457 6.64111 9.75771 6.71246 9.66504 6.8224L21.005 15.5867C21.2251 15.7569 21.5852 15.7569 21.8051 15.5867L33.145 6.8224C33.0523 6.71272 32.9157 6.64111 32.7619 6.64111Z" fill="#FDD762"/>
<path d="M63.9845 96.9922C44.3839 96.9922 28.4375 81.0457 28.4375 61.4455C28.4375 41.8453 44.3839 25.8984 63.9845 25.8984C83.5849 25.8984 99.5312 41.8453 99.5312 61.4455C99.5316 81.0457 83.5849 96.9922 63.9845 96.9922Z" fill="#D8209B"/>
<path d="M63.8574 88.1055C49.0864 88.1055 37.0703 76.1454 37.0703 61.4455C37.0703 46.7449 49.0867 34.7852 63.8574 34.7852C78.6281 34.7852 90.6445 46.7452 90.6445 61.4455C90.6449 76.1458 78.6281 88.1055 63.8574 88.1055Z" fill="white"/>
<path d="M41.8553 61.4458C41.8553 47.5477 52.6056 36.1054 66.2695 34.8971C65.481 34.8272 64.6841 34.7852 63.8772 34.7852C49.0953 34.7852 37.0703 46.7452 37.0703 61.4455C37.0703 76.1458 49.0956 88.1055 63.8772 88.1055C64.6841 88.1055 65.481 88.0635 66.2695 87.9936C52.6056 86.7858 41.8553 75.3436 41.8553 61.4458Z" fill="#D1EFFF"/>
<path d="M63.8574 79.4727C73.8838 79.4727 82.0117 71.4015 82.0117 61.4453C82.0117 51.4891 73.8838 43.418 63.8574 43.418C53.8311 43.418 45.7031 51.4891 45.7031 61.4453C45.7031 71.4015 53.8311 79.4727 63.8574 79.4727Z" fill="#D8209B"/>
<path d="M63.7305 69.3164C59.25 69.3164 55.6055 65.7287 55.6055 61.3185C55.6055 56.908 59.25 53.3203 63.7305 53.3203C68.2106 53.3203 71.8555 56.908 71.8555 61.3185C71.8558 65.7287 68.2109 69.3164 63.7305 69.3164Z" fill="white"/>
<path d="M60.7267 61.3185C60.7267 57.7908 63.0525 54.7921 66.2695 53.7319C65.4643 53.4664 64.6038 53.3203 63.7091 53.3203C59.2404 53.3203 55.6055 56.908 55.6055 61.3185C55.6055 65.7287 59.2404 69.3164 63.7091 69.3164C64.6038 69.3164 65.4643 69.1706 66.2695 68.9048C63.0525 67.8446 60.7267 64.8459 60.7267 61.3185Z" fill="#D1EFFF"/>
<path d="M63.7306 58.7559H22.7793L24.3641 60.4634C24.7255 60.8528 24.7255 61.4901 24.3641 61.8795L22.7796 63.5867H63.7306C65.0649 63.5867 66.1461 62.5056 66.1461 61.1713C66.1461 59.837 65.0649 58.7559 63.7306 58.7559Z" fill="#0D477C"/>
<path d="M3.29396 70.0781C2.76302 70.0781 2.63302 69.7711 3.00565 69.3962L9.84353 62.5075C10.2158 62.1325 10.2158 61.5188 9.84353 61.1439L3.00565 54.2561C2.63335 53.8809 2.76302 53.5742 3.29396 53.5742H16.8262C17.3571 53.5742 18.0869 53.8895 18.4483 54.275L24.8659 61.1248C25.227 61.5102 25.227 62.1412 24.8659 62.5266L18.4483 69.3768C18.0869 69.7625 17.3571 70.0778 16.8262 70.0778L3.29396 70.0781Z" fill="#FF2C9C"/>
<path d="M8.69141 69.3962L15.4656 62.5075C15.8344 62.1325 15.8344 61.5188 15.4656 61.1439L8.69141 54.2561C8.32257 53.8809 8.45104 53.5742 8.97704 53.5742H3.2893C2.7633 53.5742 2.63452 53.8809 3.00367 54.2561L9.77782 61.1439C10.1467 61.5192 10.1467 62.1329 9.77782 62.5075L3.00367 69.3962C2.63483 69.7711 2.7633 70.0781 3.2893 70.0781H8.97736C8.45104 70.0778 8.32257 69.7711 8.69141 69.3962Z" fill="#D8209B"/>
</g>
<defs>
<clipPath id="clip0">
<rect width="130" height="130" fill="white"/>
</clipPath>
</defs>
</svg>
