<svg width="130" height="130" viewBox="0 0 130 130" fill="none" xmlns="http://www.w3.org/2000/svg">
<path d="M43.1641 124.407C43.1641 125.298 42.2673 125.916 41.4365 125.593C17.1872 116.156 0 92.587 0 65.0003C0 37.4137 17.1872 13.8446 41.4365 4.40787C42.2673 4.0844 43.1641 4.70266 43.1641 5.59412V124.407Z" fill="#87D4FE"/>
<path d="M42.9061 126.143C39.4624 124.899 36.1532 123.373 33.0078 121.59V8.40924C36.1532 6.62707 39.4624 5.10084 42.9061 3.85645V126.143Z" fill="#3BB9FF"/>
<path d="M41.1328 4.52232C48.5217 1.60393 56.5736 0 65 0C100.899 0 130 29.1015 130 65C130 100.899 100.899 130 65 130C56.5736 130 48.5217 128.396 41.1328 125.478V4.52232Z" fill="#D1EFFF"/>
<path d="M104.609 27.9297C104.609 20.9183 110.293 15.2344 117.305 15.2344C124.316 15.2344 130 20.9183 130 27.9297C130 34.9411 124.316 40.625 117.305 40.625C110.293 40.625 104.609 34.9411 104.609 27.9297ZM117.305 48.2422C110.293 48.2422 104.609 53.9261 104.609 60.9375C104.609 67.9489 110.293 73.6328 117.305 73.6328C124.316 73.6328 130 67.9489 130 60.9375C130 53.9261 124.316 48.2422 117.305 48.2422ZM117.305 81.25C110.293 81.25 104.609 86.9339 104.609 93.9453C104.609 100.957 110.293 106.641 117.305 106.641C124.316 106.641 130 100.957 130 93.9453C130 86.9339 124.316 81.25 117.305 81.25Z" fill="#0D477C"/>
<path d="M110.064 25.7943C109.329 24.5997 109.702 23.0362 110.896 22.3014C112.091 21.5671 113.654 21.9395 114.389 23.1339L117.05 27.461L122.58 14.2535C123.121 12.9601 124.608 12.3503 125.902 12.8921C127.196 13.4337 127.805 14.9211 127.264 16.2147L119.823 33.9881C119.455 34.8664 118.627 35.4654 117.677 35.539C117.611 35.5441 117.545 35.5466 117.48 35.5466C116.603 35.5466 115.782 35.0926 115.318 34.3378L110.064 25.7943ZM125.902 45.9002C124.608 45.3586 123.121 45.9685 122.58 47.2616L117.05 60.469L114.389 56.142C113.654 54.9473 112.091 54.5751 110.896 55.3094C109.702 56.0442 109.329 57.6078 110.064 58.8024L115.318 67.3458C115.782 68.1007 116.603 68.5547 117.48 68.5547C117.545 68.5547 117.611 68.5522 117.677 68.5471C118.627 68.4732 119.455 67.8745 119.823 66.9962L127.264 49.2228C127.805 47.9291 127.196 46.4417 125.902 45.9002ZM125.902 78.908C124.608 78.3664 123.121 78.9763 122.58 80.2694L117.05 93.4769L114.389 89.1498C113.654 87.9552 112.091 87.5829 110.896 88.3172C109.702 89.052 109.329 90.6156 110.064 91.8102L115.318 100.354C115.782 101.109 116.603 101.562 117.48 101.562C117.545 101.562 117.611 101.56 117.677 101.555C118.627 101.481 119.455 100.882 119.823 100.004L127.264 82.2306C127.805 80.9369 127.196 79.4496 125.902 78.908Z" fill="#FC2A9B"/>
<path d="M48.2422 34.2773V31.7383C48.2422 31.0372 48.5832 30.4688 49.0039 30.4688H77.9492C78.3699 30.4688 78.7109 31.0372 78.7109 31.7383V34.2773C78.7109 34.9784 78.3699 35.5469 77.9492 35.5469H49.0039C48.5832 35.5469 48.2422 34.9784 48.2422 34.2773ZM97.7539 20.3125H49.5117C48.8107 20.3125 48.2422 20.881 48.2422 21.582V24.1211C48.2422 24.8221 48.8107 25.3906 49.5117 25.3906H97.7539C98.4549 25.3906 99.0234 24.8221 99.0234 24.1211V21.582C99.0234 20.881 98.4549 20.3125 97.7539 20.3125ZM49.0039 68.5547H77.9492C78.3699 68.5547 78.7109 67.9862 78.7109 67.2852V64.7461C78.7109 64.0451 78.3699 63.4766 77.9492 63.4766H49.0039C48.5832 63.4766 48.2422 64.0451 48.2422 64.7461V67.2852C48.2422 67.9862 48.5832 68.5547 49.0039 68.5547ZM97.7539 53.3203H49.5117C48.8107 53.3203 48.2422 53.8888 48.2422 54.5898V57.1289C48.2422 57.8299 48.8107 58.3984 49.5117 58.3984H97.7539C98.4549 58.3984 99.0234 57.8299 99.0234 57.1289V54.5898C99.0234 53.8888 98.4549 53.3203 97.7539 53.3203ZM77.9492 96.4844H49.0039C48.5832 96.4844 48.2422 97.0529 48.2422 97.7539V100.293C48.2422 100.994 48.5832 101.562 49.0039 101.562H77.9492C78.3699 101.562 78.7109 100.994 78.7109 100.293V97.7539C78.7109 97.0529 78.3699 96.4844 77.9492 96.4844ZM97.7539 86.3281H49.5117C48.8107 86.3281 48.2422 86.8966 48.2422 87.5977V90.1367C48.2422 90.8378 48.8107 91.4062 49.5117 91.4062H97.7539C98.4549 91.4062 99.0234 90.8378 99.0234 90.1367V87.5977C99.0234 86.8966 98.4549 86.3281 97.7539 86.3281Z" fill="#396CAA"/>
</svg>
