<svg width="570" height="470" viewBox="0 0 570 470" fill="none" xmlns="http://www.w3.org/2000/svg">
<g clip-path="url(#clip0)">
<path d="M299.158 402.413L104.453 289.965C98.9472 286.793 99.6354 281.238 105.997 277.562L238.598 201.081C244.959 197.405 254.577 197.019 260.083 200.191L454.788 312.639C460.294 315.812 459.605 321.367 453.244 325.042L320.643 401.524C314.281 405.199 304.664 405.602 299.158 402.413Z" fill="#D5DAE0"/>
<path d="M500.326 113.573L305.621 1.12447C304.647 0.516314 303.552 0.129009 302.412 -0.0101762C301.272 -0.149362 300.116 -0.0370438 299.024 0.318869L298.772 0.503486H298.688L291.656 3.18882L297.967 6.27695C297.967 6.39443 297.967 6.49513 297.883 6.61261L266.126 151.05C264.531 158.267 267.72 166.709 273.226 169.881L463.265 279.476L462.593 287.532L470.281 284.544C471.739 283.749 472.995 282.628 473.949 281.268C474.904 279.909 475.533 278.348 475.786 276.706L507.493 132.37C509.004 125.187 505.831 116.745 500.326 113.573Z" fill="#173D7A"/>
<path d="M500.325 113.573L305.62 1.12447C304.646 0.516314 303.551 0.129009 302.411 -0.0101762C301.271 -0.149362 300.115 -0.0370438 299.023 0.318869L298.772 0.503486H298.688L291.655 3.18882L297.966 6.27695C297.966 6.39443 297.966 6.49513 297.882 6.61261L276.951 101.774L372.189 175.973L506.469 121.343C505.352 118.136 503.188 115.399 500.325 113.573Z" fill="#396CAA"/>
<path d="M492.974 135.76L507.795 129.45C507.974 126.692 507.536 123.928 506.51 121.362C505.485 118.795 503.9 116.489 501.87 114.613L478.371 124.482L492.974 135.76Z" fill="#274F89"/>
<path d="M455.761 286.76L261.056 174.312C255.55 171.14 252.378 162.698 253.956 155.481L285.662 11.1442C287.257 3.92742 292.997 0.637889 298.503 3.82672L493.208 116.275C498.714 119.447 501.886 127.889 500.308 135.106L468.602 279.442C467.007 286.659 461.267 289.932 455.761 286.76Z" fill="#D4ECFF"/>
<path d="M451.515 276.018L268.475 170.384C263.44 167.481 260.536 159.76 261.98 153.148L290.984 21.0967C292.428 14.4841 297.698 11.4966 302.734 14.3834L485.807 120.034C490.842 122.938 493.746 130.658 492.303 137.271L463.265 269.322C461.838 275.935 456.551 278.939 451.515 276.018Z" fill="white"/>
<path d="M451.515 276.018L268.475 170.384C263.44 167.481 260.536 159.76 261.98 153.148L290.984 21.0967C292.428 14.4841 297.698 11.4966 302.734 14.3834L485.807 120.034C490.842 122.938 493.746 130.658 492.303 137.271L463.265 269.322C461.838 275.935 456.551 278.939 451.515 276.018Z" fill="#0D477C"/>
<path d="M458.448 291.644L431.843 288.136L260.083 188.98C254.578 185.808 244.977 186.194 238.598 189.87L116.891 260.141L100.794 258.01V267.14C100.807 268.334 101.162 269.5 101.816 270.499C102.471 271.498 103.397 272.289 104.487 272.779L299.192 385.227C304.697 388.399 314.298 388.013 320.677 384.338L453.278 307.856C456.853 305.792 458.632 303.123 458.531 300.639L458.448 291.644Z" fill="#173D7A"/>
<path d="M329.388 228.992L317.185 221.943H182.956L116.891 260.141L100.794 258.01V267.14C100.807 268.334 101.162 269.5 101.816 270.499C102.471 271.498 103.397 272.289 104.487 272.779L299.192 385.227C302.616 386.964 306.466 387.687 310.287 387.309L329.388 228.992Z" fill="#3BB9FF"/>
<path d="M107.944 258.933L100.811 257.993V267.123C100.824 268.318 101.179 269.483 101.833 270.482C102.487 271.481 103.414 272.273 104.503 272.762L107.86 274.743L107.944 258.933Z" fill="#77CEFE"/>
<path d="M301.122 386.016C307.129 387.96 313.65 387.552 319.367 384.875V364.533H301.122V386.016Z" fill="#274F89"/>
<path d="M299.158 375.946L104.453 263.498C98.9472 260.326 99.6354 254.771 105.997 251.095L238.598 174.613C244.959 170.938 254.577 170.552 260.083 173.724L454.788 286.172C460.294 289.344 459.605 294.899 453.244 298.575L320.592 375.107C314.281 378.783 304.664 379.185 299.158 375.946Z" fill="#D1EFFF"/>
<path d="M453.193 295.286L320.592 371.767C314.231 375.443 304.613 375.829 299.107 372.657L104.402 260.208C102.872 259.401 101.682 258.074 101.045 256.466C100.189 259.067 101.28 261.702 104.402 263.548L299.107 375.997C304.613 379.169 314.214 378.783 320.592 375.107L453.193 298.609C457.473 296.142 459.169 292.818 458.229 289.949C457.258 292.282 455.467 294.181 453.193 295.286Z" fill="white"/>
<path d="M187.303 226.441L178.491 221.406C177.786 221.003 177.87 220.281 178.692 219.811L189.082 213.803C189.5 213.57 189.967 213.438 190.444 213.418C190.922 213.398 191.398 213.489 191.835 213.685L200.647 218.72C201.352 219.123 201.268 219.845 200.445 220.315L190.056 226.323C189.638 226.556 189.171 226.687 188.693 226.708C188.215 226.728 187.739 226.637 187.303 226.441Z" fill="#87D4FE"/>
<path d="M200.9 234.278L192.087 229.243C191.382 228.84 191.466 228.119 192.289 227.649L202.679 221.64C203.097 221.408 203.563 221.276 204.041 221.256C204.519 221.235 204.995 221.327 205.431 221.523L214.244 226.558C214.949 226.961 214.865 227.682 214.042 228.152L203.652 234.161C203.234 234.393 202.768 234.525 202.29 234.545C201.812 234.566 201.336 234.474 200.9 234.278Z" fill="#87D4FE"/>
<path d="M214.512 242.133L205.7 237.098C204.995 236.695 205.079 235.973 205.901 235.504L216.291 229.495C216.709 229.263 217.176 229.131 217.653 229.11C218.131 229.09 218.607 229.182 219.044 229.378L227.856 234.413C228.561 234.815 228.477 235.537 227.654 236.007L217.265 242.015C216.847 242.248 216.38 242.38 215.902 242.4C215.424 242.421 214.948 242.329 214.512 242.133Z" fill="#87D4FE"/>
<path d="M233.311 235.655L224.499 230.62C223.794 230.217 223.878 229.495 224.7 229.025L233.428 223.99C233.846 223.758 234.313 223.626 234.791 223.606C235.269 223.585 235.745 223.677 236.181 223.873L244.993 228.908C245.698 229.311 245.614 230.032 244.792 230.502L236.063 235.537C235.645 235.77 235.179 235.901 234.701 235.922C234.223 235.942 233.747 235.851 233.311 235.655Z" fill="#87D4FE"/>
<path d="M246.924 243.509L238.112 238.474C237.407 238.071 237.491 237.35 238.313 236.88L247.041 231.845C247.459 231.612 247.926 231.48 248.404 231.46C248.882 231.44 249.358 231.531 249.794 231.727L258.606 236.762C259.311 237.165 259.227 237.887 258.405 238.357L249.677 243.392C249.259 243.624 248.792 243.756 248.314 243.776C247.836 243.797 247.36 243.705 246.924 243.509Z" fill="#87D4FE"/>
<path d="M260.52 251.364L251.708 246.329C251.003 245.926 251.086 245.204 251.909 244.734L260.637 239.699C261.055 239.467 261.522 239.335 262 239.315C262.477 239.294 262.954 239.386 263.39 239.582L272.202 244.617C272.907 245.02 272.823 245.741 272.001 246.211L263.272 251.246C262.854 251.479 262.388 251.61 261.91 251.631C261.432 251.651 260.956 251.56 260.52 251.364Z" fill="#87D4FE"/>
<path d="M274.114 259.202L265.302 254.167C264.597 253.764 264.681 253.042 265.504 252.572L274.232 247.537C274.65 247.305 275.116 247.173 275.594 247.152C276.072 247.132 276.548 247.224 276.985 247.42L285.797 252.455C286.502 252.857 286.418 253.579 285.595 254.049L276.867 259.084C276.449 259.317 275.983 259.448 275.505 259.469C275.027 259.489 274.551 259.398 274.114 259.202Z" fill="#87D4FE"/>
<path d="M287.711 267.056L278.899 262.021C278.194 261.618 278.278 260.897 279.1 260.427L287.829 255.392C288.247 255.159 288.713 255.027 289.191 255.007C289.669 254.987 290.145 255.078 290.581 255.274L299.393 260.309C300.098 260.712 300.014 261.434 299.192 261.904L290.464 266.939C290.046 267.171 289.579 267.303 289.101 267.323C288.623 267.344 288.147 267.252 287.711 267.056Z" fill="#87D4FE"/>
<path d="M301.323 274.911L292.511 269.876C291.806 269.473 291.89 268.751 292.713 268.281L301.441 263.246C301.859 263.014 302.325 262.882 302.803 262.862C303.281 262.841 303.757 262.933 304.194 263.129L313.006 268.164C313.711 268.567 313.627 269.288 312.804 269.758L304.076 274.793C303.658 275.026 303.192 275.158 302.714 275.178C302.236 275.198 301.76 275.107 301.323 274.911Z" fill="#87D4FE"/>
<path d="M314.919 282.765L306.107 277.73C305.402 277.327 305.486 276.606 306.308 276.136L315.037 271.101C315.455 270.868 315.921 270.737 316.399 270.716C316.877 270.696 317.353 270.787 317.789 270.983L326.601 276.018C327.306 276.421 327.222 277.143 326.4 277.613L317.672 282.648C317.254 282.88 316.787 283.012 316.309 283.032C315.831 283.053 315.355 282.961 314.919 282.765Z" fill="#87D4FE"/>
<path d="M328.515 290.62L319.703 285.585C318.998 285.182 319.082 284.461 319.904 283.991L328.632 278.956C329.05 278.723 329.517 278.591 329.995 278.571C330.473 278.551 330.949 278.642 331.385 278.838L340.197 283.873C340.902 284.276 340.818 284.998 339.996 285.467L331.268 290.502C330.849 290.735 330.383 290.867 329.905 290.887C329.427 290.908 328.951 290.816 328.515 290.62Z" fill="#87D4FE"/>
<path d="M342.128 298.474L333.316 293.439C332.611 293.037 332.695 292.315 333.517 291.845L342.246 286.81C342.664 286.578 343.13 286.446 343.608 286.425C344.086 286.405 344.562 286.497 344.998 286.693L353.81 291.728C354.515 292.13 354.431 292.852 353.609 293.322L344.881 298.357C344.463 298.59 343.996 298.721 343.518 298.742C343.04 298.762 342.564 298.671 342.128 298.474Z" fill="#87D4FE"/>
<path d="M355.723 306.312L346.911 301.277C346.206 300.874 346.29 300.153 347.112 299.683L355.84 294.648C356.258 294.415 356.725 294.283 357.203 294.263C357.681 294.243 358.157 294.334 358.593 294.53L367.405 299.565C368.11 299.968 368.026 300.69 367.204 301.16L358.476 306.195C358.058 306.427 357.591 306.559 357.113 306.579C356.635 306.6 356.159 306.508 355.723 306.312Z" fill="#87D4FE"/>
<path d="M253.353 231.929L244.541 226.894C243.836 226.491 243.919 225.769 244.742 225.299L253.47 220.264C253.888 220.032 254.355 219.9 254.833 219.88C255.31 219.859 255.787 219.951 256.223 220.147L265.035 225.182C265.74 225.584 265.656 226.306 264.834 226.776L256.105 231.811C255.687 232.044 255.221 232.175 254.743 232.196C254.265 232.216 253.789 232.125 253.353 231.929Z" fill="#87D4FE"/>
<path d="M239.555 223.973L230.743 218.938C230.038 218.536 230.122 217.814 230.944 217.344L239.672 212.309C240.09 212.077 240.557 211.945 241.035 211.924C241.513 211.904 241.989 211.996 242.425 212.192L251.237 217.227C251.942 217.629 251.858 218.351 251.036 218.821L242.308 223.856C241.89 224.089 241.423 224.22 240.945 224.241C240.467 224.261 239.991 224.17 239.555 223.973Z" fill="#87D4FE"/>
<path d="M225.723 215.984L206.756 205.042C206.051 204.639 206.135 203.917 206.958 203.447L215.686 198.412C216.104 198.18 216.57 198.048 217.048 198.028C217.526 198.007 218.002 198.099 218.439 198.295L237.406 209.238C238.111 209.64 238.027 210.362 237.204 210.832L228.476 215.867C228.058 216.1 227.592 216.231 227.114 216.252C226.636 216.272 226.16 216.181 225.723 215.984Z" fill="#87D4FE"/>
<path d="M235.392 206.284L220.001 197.405C219.296 197.003 219.379 196.281 220.202 195.811L228.93 190.776C229.348 190.543 229.815 190.412 230.293 190.391C230.77 190.371 231.247 190.462 231.683 190.658L247.075 199.537C247.78 199.94 247.696 200.661 246.873 201.131L238.145 206.166C237.727 206.399 237.26 206.53 236.783 206.551C236.305 206.571 235.829 206.48 235.392 206.284Z" fill="#87D4FE"/>
<path d="M266.881 239.783L258.069 234.748C257.364 234.345 257.448 233.624 258.27 233.154L266.998 228.119C267.416 227.886 267.883 227.755 268.361 227.734C268.839 227.714 269.315 227.805 269.751 228.001L278.563 233.036C279.268 233.439 279.184 234.161 278.362 234.631L269.634 239.666C269.216 239.898 268.749 240.03 268.271 240.05C267.793 240.071 267.317 239.979 266.881 239.783Z" fill="#87D4FE"/>
<path d="M280.561 247.638L271.749 242.603C271.044 242.2 271.128 241.478 271.95 241.008L280.678 235.973C281.096 235.741 281.563 235.609 282.041 235.589C282.519 235.568 282.995 235.66 283.431 235.856L292.243 240.891C292.948 241.294 292.864 242.015 292.042 242.485L283.313 247.52C282.895 247.753 282.429 247.885 281.951 247.905C281.473 247.925 280.997 247.834 280.561 247.638Z" fill="#87D4FE"/>
<path d="M294.156 255.492L285.344 250.457C284.639 250.055 284.723 249.333 285.546 248.863L294.274 243.828C294.692 243.595 295.158 243.464 295.636 243.443C296.114 243.423 296.59 243.514 297.027 243.71L305.839 248.745C306.544 249.148 306.46 249.87 305.637 250.34L296.909 255.375C296.491 255.607 296.025 255.739 295.547 255.759C295.069 255.78 294.593 255.688 294.156 255.492Z" fill="#87D4FE"/>
<path d="M307.752 263.347L298.94 258.312C298.235 257.909 298.319 257.188 299.141 256.718L307.87 251.683C308.288 251.45 308.754 251.318 309.232 251.298C309.71 251.278 310.186 251.369 310.622 251.565L319.434 256.6C320.139 257.003 320.055 257.725 319.233 258.195L310.505 263.23C310.087 263.462 309.62 263.594 309.142 263.614C308.664 263.635 308.188 263.543 307.752 263.347Z" fill="#87D4FE"/>
<path d="M321.364 271.202L312.552 266.167C311.847 265.764 311.931 265.042 312.754 264.572L321.482 259.537C321.9 259.305 322.366 259.173 322.844 259.152C323.322 259.132 323.798 259.224 324.235 259.42L333.047 264.455C333.752 264.857 333.668 265.579 332.845 266.049L324.117 271.084C323.699 271.317 323.233 271.448 322.755 271.469C322.277 271.489 321.801 271.398 321.364 271.202Z" fill="#87D4FE"/>
<path d="M334.96 279.039L326.148 274.004C325.443 273.602 325.527 272.88 326.349 272.41L335.078 267.375C335.496 267.142 335.962 267.011 336.44 266.99C336.918 266.97 337.394 267.061 337.83 267.258L346.642 272.293C347.347 272.695 347.263 273.417 346.441 273.887L337.713 278.922C337.295 279.154 336.828 279.286 336.35 279.307C335.872 279.327 335.396 279.235 334.96 279.039Z" fill="#87D4FE"/>
<path d="M348.557 286.894L339.745 281.859C339.04 281.456 339.124 280.735 339.946 280.265L348.674 275.23C349.092 274.997 349.559 274.865 350.037 274.845C350.515 274.825 350.991 274.916 351.427 275.112L360.239 280.147C360.944 280.55 360.86 281.272 360.038 281.742L351.31 286.777C350.892 287.009 350.425 287.141 349.947 287.161C349.469 287.182 348.993 287.09 348.557 286.894Z" fill="#87D4FE"/>
<path d="M362.168 294.749L353.356 289.714C352.651 289.311 352.735 288.589 353.557 288.119L362.286 283.084C362.704 282.852 363.17 282.72 363.648 282.7C364.126 282.679 364.602 282.771 365.038 282.967L373.85 288.002C374.555 288.405 374.471 289.126 373.649 289.596L364.921 294.631C364.503 294.864 364.036 294.995 363.558 295.016C363.08 295.036 362.604 294.945 362.168 294.749Z" fill="#87D4FE"/>
<path d="M375.765 302.603L366.953 297.568C366.248 297.165 366.332 296.444 367.154 295.974L375.882 290.939C376.3 290.706 376.767 290.574 377.245 290.554C377.723 290.534 378.199 290.625 378.635 290.821L387.447 295.856C388.152 296.259 388.068 296.981 387.246 297.451L378.517 302.486C378.099 302.718 377.633 302.85 377.155 302.87C376.677 302.891 376.201 302.799 375.765 302.603Z" fill="#87D4FE"/>
<path d="M399.935 316.567L380.733 305.456C380.028 305.054 380.112 304.332 380.934 303.862L389.663 298.827C390.081 298.594 390.547 298.463 391.025 298.442C391.503 298.422 391.979 298.513 392.415 298.709L411.634 309.803C412.339 310.206 412.255 310.928 411.433 311.398L402.704 316.433C402.286 316.671 401.817 316.807 401.336 316.83C400.855 316.853 400.375 316.763 399.935 316.567Z" fill="#87D4FE"/>
<path d="M426.338 301.277L410.124 291.912C409.419 291.51 409.503 290.788 410.325 290.318L419.053 285.283C419.471 285.05 419.938 284.919 420.416 284.898C420.894 284.878 421.37 284.969 421.806 285.165L438.02 294.531C438.725 294.933 438.641 295.655 437.819 296.125L429.091 301.16C428.673 301.393 428.206 301.524 427.728 301.545C427.25 301.565 426.774 301.474 426.338 301.277Z" fill="#87D4FE"/>
<path d="M290.766 238.323L281.954 233.288C281.249 232.885 281.333 232.164 282.155 231.694L290.883 226.659C291.301 226.426 291.768 226.294 292.246 226.274C292.724 226.254 293.2 226.345 293.636 226.541L302.448 231.576C303.153 231.979 303.069 232.701 302.247 233.171L293.518 238.206C293.1 238.438 292.634 238.57 292.156 238.59C291.678 238.611 291.202 238.519 290.766 238.323Z" fill="#87D4FE"/>
<path d="M276.834 230.2L268.022 225.165C267.317 224.762 267.401 224.041 268.223 223.571L276.952 218.536C277.37 218.303 277.836 218.171 278.314 218.151C278.792 218.131 279.268 218.222 279.704 218.418L288.516 223.453C289.221 223.856 289.137 224.578 288.315 225.048L279.587 230.083C279.169 230.315 278.702 230.447 278.224 230.467C277.746 230.488 277.27 230.396 276.834 230.2Z" fill="#87D4FE"/>
<path d="M262.902 222.161L254.09 217.126C253.385 216.723 253.469 216.001 254.292 215.531L263.02 210.496C263.438 210.264 263.904 210.132 264.382 210.112C264.86 210.091 265.336 210.183 265.773 210.379L274.585 215.414C275.29 215.817 275.206 216.538 274.383 217.008L265.655 222.043C265.237 222.276 264.771 222.408 264.293 222.428C263.815 222.448 263.339 222.357 262.902 222.161Z" fill="#87D4FE"/>
<path d="M248.954 214.105L240.142 209.07C239.437 208.667 239.521 207.945 240.344 207.475L249.072 202.44C249.49 202.208 249.956 202.076 250.434 202.056C250.912 202.035 251.388 202.127 251.824 202.323L260.637 207.358C261.342 207.761 261.258 208.482 260.435 208.952L251.707 213.987C251.289 214.22 250.822 214.351 250.344 214.372C249.867 214.392 249.391 214.301 248.954 214.105Z" fill="#87D4FE"/>
<path d="M304.378 246.11L295.566 241.075C294.861 240.673 294.945 239.951 295.767 239.481L304.496 234.446C304.914 234.214 305.38 234.082 305.858 234.061C306.336 234.041 306.812 234.132 307.248 234.329L316.06 239.364C316.765 239.766 316.681 240.488 315.859 240.958L307.131 245.993C306.713 246.226 306.246 246.357 305.768 246.378C305.29 246.398 304.814 246.307 304.378 246.11Z" fill="#87D4FE"/>
<path d="M317.975 253.948L309.163 248.913C308.458 248.511 308.542 247.789 309.364 247.319L318.092 242.284C318.51 242.051 318.977 241.92 319.455 241.899C319.933 241.879 320.409 241.97 320.845 242.166L329.657 247.201C330.362 247.604 330.278 248.326 329.456 248.796L320.727 253.831C320.309 254.063 319.843 254.195 319.365 254.216C318.887 254.236 318.411 254.144 317.975 253.948Z" fill="#87D4FE"/>
<path d="M331.569 261.82L322.757 256.785C322.052 256.382 322.136 255.66 322.959 255.19L331.687 250.155C332.105 249.923 332.571 249.791 333.049 249.771C333.527 249.75 334.003 249.842 334.44 250.038L343.252 255.073C343.957 255.476 343.873 256.197 343.05 256.667L334.322 261.702C333.904 261.935 333.438 262.066 332.96 262.087C332.482 262.107 332.006 262.016 331.569 261.82Z" fill="#87D4FE"/>
<path d="M345.183 269.658L336.371 264.623C335.666 264.22 335.75 263.498 336.572 263.028L345.3 257.993C345.718 257.761 346.185 257.629 346.663 257.609C347.141 257.588 347.617 257.68 348.053 257.876L356.865 262.911C357.57 263.313 357.486 264.035 356.664 264.505L347.935 269.54C347.517 269.773 347.051 269.904 346.573 269.925C346.095 269.945 345.619 269.854 345.183 269.658Z" fill="#87D4FE"/>
<path d="M358.778 277.512L349.966 272.477C349.261 272.074 349.345 271.353 350.168 270.883L358.896 265.848C359.314 265.615 359.78 265.483 360.258 265.463C360.736 265.443 361.212 265.534 361.649 265.73L370.461 270.765C371.166 271.168 371.082 271.89 370.259 272.36L361.531 277.395C361.113 277.627 360.647 277.759 360.169 277.779C359.691 277.8 359.215 277.708 358.778 277.512Z" fill="#87D4FE"/>
<path d="M372.374 285.316L363.562 280.281C362.857 279.878 362.941 279.157 363.763 278.687L372.492 273.652C372.91 273.419 373.376 273.288 373.854 273.267C374.332 273.247 374.808 273.338 375.244 273.534L384.056 278.569C384.761 278.972 384.677 279.694 383.855 280.164L375.127 285.199C374.709 285.431 374.242 285.563 373.764 285.583C373.286 285.604 372.81 285.512 372.374 285.316Z" fill="#87D4FE"/>
<path d="M386.054 293.221L377.242 288.186C376.537 287.784 376.621 287.062 377.443 286.592L386.171 281.557C386.589 281.324 387.056 281.193 387.534 281.172C388.012 281.152 388.488 281.243 388.924 281.439L397.736 286.474C398.441 286.877 398.357 287.599 397.535 288.069L388.807 293.104C388.389 293.336 387.922 293.468 387.444 293.488C386.966 293.509 386.49 293.417 386.054 293.221Z" fill="#87D4FE"/>
<path d="M399.582 301.059L390.77 296.024C390.065 295.621 390.149 294.9 390.971 294.43L399.7 289.395C400.118 289.162 400.584 289.031 401.062 289.01C401.54 288.99 402.016 289.081 402.452 289.277L411.264 294.312C411.969 294.715 411.885 295.437 411.063 295.907L402.335 300.942C401.917 301.174 401.45 301.306 400.972 301.326C400.495 301.347 400.018 301.255 399.582 301.059Z" fill="#87D4FE"/>
<path d="M413.179 308.914L404.367 303.879C403.662 303.476 403.746 302.754 404.568 302.284L413.296 297.249C413.714 297.017 414.181 296.885 414.659 296.865C415.137 296.844 415.613 296.936 416.049 297.132L424.861 302.167C425.566 302.57 425.482 303.291 424.66 303.761L415.932 308.796C415.514 309.029 415.047 309.16 414.569 309.181C414.091 309.201 413.615 309.11 413.179 308.914Z" fill="#87D4FE"/>
<path d="M283.666 218.838L274.854 213.803C274.149 213.4 274.233 212.678 275.055 212.208L283.784 207.173C284.202 206.941 284.668 206.809 285.146 206.789C285.624 206.768 286.1 206.86 286.536 207.056L295.348 212.091C296.053 212.494 295.969 213.215 295.147 213.685L286.419 218.72C286.001 218.953 285.534 219.085 285.056 219.105C284.578 219.125 284.102 219.034 283.666 218.838Z" fill="#87D4FE"/>
<path d="M270.087 211.016L261.275 205.981C260.57 205.579 260.654 204.857 261.476 204.387L270.205 199.352C270.623 199.12 271.089 198.988 271.567 198.967C272.045 198.947 272.521 199.038 272.957 199.235L281.769 204.27C282.474 204.672 282.39 205.394 281.568 205.864L272.84 210.899C272.422 211.132 271.955 211.263 271.477 211.284C270.999 211.304 270.523 211.213 270.087 211.016Z" fill="#87D4FE"/>
<path d="M256.541 203.212L247.729 198.177C247.024 197.774 247.108 197.053 247.93 196.583L256.659 191.548C257.077 191.315 257.543 191.184 258.021 191.163C258.499 191.143 258.975 191.234 259.411 191.43L268.223 196.465C268.928 196.868 268.844 197.59 268.022 198.06L259.294 203.095C258.876 203.327 258.409 203.459 257.931 203.479C257.453 203.5 256.977 203.408 256.541 203.212Z" fill="#87D4FE"/>
<path d="M243.013 195.391L234.201 190.356C233.496 189.954 233.58 189.232 234.402 188.762L243.13 183.727C243.548 183.495 244.015 183.363 244.493 183.342C244.971 183.322 245.447 183.413 245.883 183.61L254.695 188.645C255.4 189.047 255.316 189.769 254.494 190.239L245.766 195.274C245.348 195.507 244.881 195.638 244.403 195.659C243.925 195.679 243.449 195.588 243.013 195.391Z" fill="#87D4FE"/>
<path d="M256.928 187.352L248.116 182.317C247.411 181.914 247.495 181.193 248.317 180.723L251.204 179.044C251.622 178.812 252.089 178.68 252.567 178.66C253.045 178.639 253.521 178.731 253.957 178.927L262.769 183.962C263.474 184.365 263.39 185.086 262.568 185.556L259.681 187.235C259.263 187.467 258.796 187.599 258.318 187.619C257.84 187.64 257.364 187.548 256.928 187.352Z" fill="#87D4FE"/>
<path d="M274.585 197.557L265.773 192.522C265.068 192.119 265.152 191.397 265.974 190.927L268.861 189.249C269.279 189.016 269.746 188.885 270.224 188.864C270.702 188.844 271.178 188.935 271.614 189.131L280.426 194.166C281.131 194.569 281.047 195.291 280.225 195.761L277.338 197.439C276.92 197.672 276.453 197.803 275.975 197.824C275.497 197.844 275.021 197.753 274.585 197.557Z" fill="#87D4FE"/>
<path d="M288.064 205.327L279.251 200.292C278.547 199.889 278.63 199.168 279.453 198.698L282.34 197.019C282.758 196.787 283.224 196.655 283.702 196.635C284.18 196.614 284.656 196.706 285.093 196.902L293.905 201.937C294.61 202.34 294.526 203.061 293.703 203.531L290.816 205.21C290.398 205.442 289.932 205.574 289.454 205.594C288.976 205.615 288.5 205.523 288.064 205.327Z" fill="#87D4FE"/>
<path d="M301.542 213.148L292.73 208.113C292.025 207.71 292.109 206.989 292.931 206.519L295.818 204.84C296.236 204.608 296.703 204.476 297.181 204.456C297.659 204.435 298.135 204.527 298.571 204.723L307.383 209.758C308.088 210.161 308.004 210.882 307.182 211.352L304.295 213.031C303.877 213.263 303.41 213.395 302.932 213.415C302.454 213.436 301.978 213.344 301.542 213.148Z" fill="#87D4FE"/>
<path d="M315.02 220.902L306.208 215.867C305.503 215.464 305.587 214.743 306.409 214.273L309.296 212.594C309.714 212.362 310.181 212.23 310.658 212.21C311.136 212.189 311.612 212.281 312.049 212.477L320.861 217.512C321.566 217.915 321.482 218.636 320.659 219.106L317.772 220.785C317.354 221.017 316.888 221.149 316.41 221.169C315.932 221.19 315.456 221.098 315.02 220.902Z" fill="#87D4FE"/>
<path d="M390.25 264.337L381.438 259.302C380.733 258.899 380.817 258.178 381.639 257.708L384.526 256.029C384.944 255.797 385.411 255.665 385.889 255.645C386.367 255.624 386.843 255.716 387.279 255.912L396.091 260.947C396.796 261.35 396.712 262.071 395.89 262.541L393.003 264.22C392.585 264.452 392.118 264.584 391.64 264.604C391.162 264.625 390.686 264.533 390.25 264.337Z" fill="#87D4FE"/>
<path d="M403.729 272.108L394.917 267.073C394.212 266.67 394.295 265.948 395.118 265.478L398.005 263.8C398.423 263.567 398.89 263.436 399.367 263.415C399.845 263.395 400.321 263.486 400.758 263.683L409.57 268.718C410.275 269.12 410.191 269.842 409.368 270.312L406.481 271.99C406.063 272.223 405.597 272.355 405.119 272.375C404.641 272.395 404.165 272.304 403.729 272.108Z" fill="#87D4FE"/>
<path d="M417.206 279.895L408.394 274.86C407.689 274.458 407.773 273.736 408.595 273.266L411.482 271.588C411.9 271.355 412.367 271.223 412.845 271.203C413.323 271.183 413.799 271.274 414.235 271.47L423.047 276.505C423.752 276.908 423.668 277.63 422.846 278.1L419.959 279.778C419.541 280.01 419.074 280.142 418.596 280.163C418.119 280.183 417.642 280.091 417.206 279.895Z" fill="#87D4FE"/>
<path d="M430.685 287.666L421.873 282.631C421.168 282.228 421.252 281.507 422.074 281.037L424.961 279.358C425.379 279.126 425.846 278.994 426.323 278.974C426.801 278.953 427.277 279.045 427.714 279.241L436.526 284.276C437.231 284.679 437.147 285.4 436.324 285.87L433.437 287.549C433.019 287.781 432.553 287.913 432.075 287.933C431.597 287.954 431.121 287.862 430.685 287.666Z" fill="#87D4FE"/>
<path d="M297.211 226.675L288.399 221.64C287.694 221.238 287.778 220.516 288.6 220.046L297.329 215.011C297.747 214.778 298.213 214.647 298.691 214.626C299.169 214.606 299.645 214.697 300.081 214.893L308.893 219.929C309.598 220.331 309.514 221.053 308.692 221.523L299.964 226.558C299.546 226.79 299.079 226.922 298.601 226.943C298.123 226.963 297.647 226.872 297.211 226.675Z" fill="#87D4FE"/>
<path d="M310.807 234.53L301.995 229.495C301.29 229.092 301.374 228.37 302.196 227.9L310.924 222.865C311.342 222.633 311.809 222.501 312.287 222.481C312.765 222.46 313.241 222.552 313.677 222.748L322.489 227.783C323.194 228.186 323.11 228.907 322.288 229.377L313.559 234.412C313.141 234.645 312.675 234.777 312.197 234.797C311.719 234.817 311.243 234.726 310.807 234.53Z" fill="#87D4FE"/>
<path d="M324.42 242.385L315.608 237.35C314.903 236.947 314.987 236.225 315.809 235.755L324.538 230.72C324.956 230.488 325.422 230.356 325.9 230.336C326.378 230.315 326.854 230.407 327.29 230.603L336.102 235.638C336.807 236.041 336.723 236.762 335.901 237.232L327.173 242.267C326.755 242.5 326.288 242.631 325.81 242.652C325.332 242.672 324.856 242.581 324.42 242.385Z" fill="#87D4FE"/>
<path d="M338.015 250.239L329.203 245.204C328.498 244.801 328.582 244.08 329.404 243.61L338.132 238.575C338.55 238.342 339.017 238.21 339.495 238.19C339.973 238.17 340.449 238.261 340.885 238.457L349.697 243.492C350.402 243.895 350.318 244.617 349.496 245.087L340.768 250.122C340.349 250.354 339.883 250.486 339.405 250.506C338.927 250.527 338.451 250.435 338.015 250.239Z" fill="#87D4FE"/>
<path d="M351.61 258.094L342.798 253.059C342.093 252.656 342.177 251.934 343 251.464L351.728 246.429C352.146 246.197 352.612 246.065 353.09 246.045C353.568 246.024 354.044 246.116 354.481 246.312L363.293 251.347C363.998 251.75 363.914 252.471 363.091 252.941L354.363 257.976C353.945 258.209 353.479 258.341 353.001 258.361C352.523 258.381 352.047 258.29 351.61 258.094Z" fill="#87D4FE"/>
<path d="M365.224 265.949L356.412 260.914C355.707 260.511 355.791 259.789 356.613 259.319L365.341 254.284C365.759 254.052 366.226 253.92 366.704 253.9C367.182 253.879 367.658 253.971 368.094 254.167L376.906 259.202C377.611 259.604 377.527 260.326 376.705 260.796L367.976 265.831C367.558 266.064 367.092 266.195 366.614 266.216C366.136 266.236 365.66 266.145 365.224 265.949Z" fill="#87D4FE"/>
<path d="M378.819 273.786L370.007 268.751C369.302 268.348 369.386 267.627 370.209 267.157L378.937 262.122C379.355 261.889 379.821 261.758 380.299 261.737C380.777 261.717 381.253 261.808 381.69 262.004L390.502 267.039C391.207 267.442 391.123 268.164 390.3 268.634L381.572 273.669C381.154 273.901 380.688 274.033 380.21 274.053C379.732 274.074 379.256 273.982 378.819 273.786Z" fill="#87D4FE"/>
<path d="M392.415 281.641L383.603 276.606C382.898 276.203 382.982 275.481 383.804 275.011L392.533 269.976C392.951 269.744 393.417 269.612 393.895 269.592C394.373 269.571 394.849 269.663 395.285 269.859L404.097 274.894C404.802 275.297 404.719 276.018 403.896 276.488L395.168 281.523C394.75 281.756 394.283 281.888 393.805 281.908C393.328 281.928 392.851 281.837 392.415 281.641Z" fill="#87D4FE"/>
<path d="M406.011 289.495L397.199 284.46C396.494 284.057 396.578 283.336 397.4 282.866L406.128 277.831C406.546 277.598 407.013 277.467 407.491 277.446C407.969 277.426 408.445 277.517 408.881 277.713L417.693 282.748C418.398 283.151 418.314 283.873 417.492 284.343L408.764 289.378C408.346 289.61 407.879 289.742 407.401 289.762C406.923 289.783 406.447 289.691 406.011 289.495Z" fill="#87D4FE"/>
<path d="M219.447 227.649L193.514 212.678C192.809 212.275 192.893 211.554 193.716 211.084L202.444 206.049C202.862 205.816 203.328 205.684 203.806 205.664C204.284 205.644 204.76 205.735 205.196 205.931L231.129 220.902C231.834 221.305 231.75 222.026 230.928 222.496L222.2 227.531C221.782 227.764 221.315 227.896 220.837 227.916C220.359 227.936 219.883 227.845 219.447 227.649Z" fill="#87D4FE"/>
<path d="M386.541 324.119L360.608 309.149C359.903 308.746 359.987 308.024 360.809 307.554L369.538 302.519C369.956 302.287 370.422 302.155 370.9 302.135C371.378 302.114 371.854 302.206 372.29 302.402L398.223 317.373C398.928 317.775 398.844 318.497 398.022 318.967L389.293 324.002C388.875 324.234 388.409 324.366 387.931 324.387C387.453 324.407 386.977 324.315 386.541 324.119Z" fill="#87D4FE"/>
<path d="M332.157 310.055L323.345 305.02C322.64 304.617 322.724 303.896 323.547 303.426L333.937 297.417C334.355 297.185 334.821 297.053 335.299 297.033C335.777 297.012 336.253 297.104 336.689 297.3L345.501 302.335C346.206 302.738 346.122 303.459 345.3 303.929L334.91 309.938C334.492 310.17 334.026 310.302 333.548 310.322C333.07 310.343 332.594 310.251 332.157 310.055Z" fill="#87D4FE"/>
<path d="M233.311 253.042L219.228 244.919C218.523 244.516 218.607 243.795 219.429 243.325L229.954 237.316C230.372 237.084 230.838 236.952 231.316 236.932C231.794 236.911 232.27 237.003 232.706 237.199L246.789 245.322C247.494 245.725 247.41 246.446 246.588 246.916L236.198 252.925C235.763 253.179 235.272 253.324 234.769 253.344C234.265 253.364 233.765 253.261 233.311 253.042Z" fill="#87D4FE"/>
<path d="M319.049 302.486L304.966 294.362C304.261 293.96 304.345 293.238 305.168 292.768L315.558 286.76C315.976 286.527 316.442 286.395 316.92 286.375C317.398 286.354 317.874 286.446 318.31 286.642L332.393 294.765C333.098 295.168 333.014 295.89 332.192 296.36L321.802 302.368C321.384 302.601 320.917 302.732 320.439 302.753C319.961 302.773 319.485 302.682 319.049 302.486Z" fill="#87D4FE"/>
<path d="M252.999 264.371L238.917 256.248C238.212 255.845 238.295 255.123 239.118 254.653L249.508 248.645C249.926 248.412 250.392 248.281 250.87 248.26C251.348 248.24 251.824 248.331 252.261 248.527L266.343 256.65C267.048 257.053 266.964 257.775 266.142 258.245L255.752 264.253C255.334 264.486 254.867 264.618 254.389 264.638C253.911 264.658 253.435 264.567 252.999 264.371Z" fill="#87D4FE"/>
<path d="M252.362 248.578L313.593 283.923C313.761 283.978 313.907 284.085 314.011 284.228C314.115 284.372 314.17 284.544 314.17 284.72C314.17 284.897 314.115 285.069 314.011 285.213C313.907 285.356 313.761 285.463 313.593 285.518L302.985 291.644C302.559 291.86 302.087 291.973 301.609 291.973C301.13 291.973 300.659 291.86 300.232 291.644L239.018 256.281L252.362 248.578Z" fill="#87D4FE"/>
<path d="M370.159 324.287L379.962 329.943C380.549 330.279 380.465 330.866 379.794 331.252L375.547 333.703C375.204 333.895 374.82 334.005 374.426 334.023C374.033 334.04 373.64 333.965 373.281 333.803L363.479 328.147C362.891 327.812 362.975 327.224 363.647 326.838L367.893 324.388C368.237 324.195 368.621 324.085 369.014 324.068C369.408 324.05 369.8 324.126 370.159 324.287Z" fill="#87D4FE"/>
<path d="M356.444 316.382L366.247 322.038C366.834 322.374 366.75 322.961 366.079 323.347L361.832 325.798C361.489 325.991 361.105 326.1 360.711 326.118C360.318 326.135 359.926 326.06 359.566 325.898L349.764 320.243C349.176 319.907 349.26 319.319 349.932 318.933L354.178 316.483C354.522 316.29 354.906 316.181 355.299 316.163C355.693 316.146 356.085 316.221 356.444 316.382Z" fill="#87D4FE"/>
<path d="M342.85 308.528L352.652 314.184C353.24 314.519 353.156 315.107 352.484 315.493L348.238 317.943C347.894 318.136 347.51 318.245 347.117 318.263C346.723 318.28 346.331 318.205 345.972 318.044L336.169 312.388C335.582 312.052 335.666 311.465 336.337 311.079L340.584 308.628C340.927 308.435 341.311 308.326 341.705 308.308C342.098 308.291 342.49 308.366 342.85 308.528Z" fill="#87D4FE"/>
<path d="M363.965 312.035L373.767 317.691C374.355 318.027 374.271 318.614 373.599 319L369.353 321.451C369.009 321.644 368.625 321.753 368.232 321.771C367.838 321.788 367.446 321.713 367.087 321.551L357.284 315.895C356.697 315.56 356.781 314.972 357.452 314.586L361.699 312.136C362.042 311.943 362.426 311.833 362.82 311.816C363.213 311.798 363.606 311.874 363.965 312.035Z" fill="#87D4FE"/>
<path d="M440.421 129.517L351.964 78.462L353.105 72.7053L441.562 123.777L440.421 129.517Z" fill="#3BB9FF"/>
<path d="M408.73 139.234L346.995 103.587L348.137 97.8298L409.872 133.478L408.73 139.234Z" fill="#3BB9FF"/>
<path d="M402.889 121.864L349.479 91.016L350.604 85.2761L404.031 116.107L402.889 121.864Z" fill="#D1EFFF"/>
<path d="M437.936 142.088L411.231 126.664L412.356 120.924L439.078 136.331L437.936 142.088Z" fill="#FF2C9C"/>
<path d="M439.598 186.06L423.971 260.141L367.859 227.75L380.112 203.682L439.598 186.06Z" fill="#0A2D60"/>
<path d="M337.713 70.8257L310.118 54.8983L311.293 48.957L338.888 64.9012L337.713 70.8257Z" fill="#87D4FE"/>
<path d="M335.246 83.4297L307.651 67.5023L308.826 61.561L336.421 77.4884L335.246 83.4297Z" fill="#D1EFFF"/>
<path d="M544.268 257.624L518.537 242.771L544.268 227.917L570 242.771L544.268 257.624Z" fill="#D5DAE0"/>
<path d="M570 225.92L544.269 240.774V211.067L570 196.214V225.92Z" fill="#0D477C"/>
<path d="M544.268 211.067L518.537 196.214L544.268 181.361L570 196.214L544.268 211.067Z" fill="#87D4FE"/>
<path d="M544.268 240.774L518.537 225.92V196.214L544.268 211.067V240.774Z" fill="#3BB9FF"/>
<path d="M25.7313 341.792L0 326.939L25.7313 312.086L51.4626 326.939L25.7313 341.792Z" fill="#D5DAE0"/>
<path d="M51.4628 310.089L25.7314 324.942V295.235L51.4628 280.382V310.089Z" fill="#D3008D"/>
<path d="M25.7313 295.235L0 280.382L25.7313 265.529L51.4626 280.382L25.7313 295.235Z" fill="#FF2C9C"/>
<path d="M25.7313 324.942L0 310.089V280.382L25.7313 295.235V324.942Z" fill="#FF2C9C"/>
<path d="M437.668 151.922C437.508 152.279 437.275 152.598 436.982 152.857C436.689 153.116 436.344 153.309 435.97 153.424C435.597 153.538 435.203 153.572 434.815 153.521C434.427 153.47 434.055 153.337 433.723 153.131C432.991 152.719 432.44 152.047 432.179 151.249C431.918 150.45 431.966 149.583 432.313 148.818C432.472 148.461 432.706 148.142 432.999 147.883C433.292 147.624 433.637 147.431 434.011 147.316C434.384 147.202 434.778 147.168 435.166 147.219C435.553 147.27 435.926 147.403 436.258 147.609C436.99 148.021 437.541 148.693 437.802 149.492C438.063 150.29 438.015 151.158 437.668 151.922Z" fill="#FF2C9C"/>
<path d="M447.117 157.377C446.958 157.734 446.724 158.053 446.431 158.312C446.138 158.571 445.793 158.764 445.42 158.879C445.046 158.993 444.652 159.026 444.264 158.976C443.877 158.925 443.504 158.792 443.172 158.585C442.44 158.173 441.889 157.502 441.628 156.703C441.367 155.905 441.415 155.037 441.762 154.272C441.922 153.915 442.155 153.596 442.448 153.337C442.741 153.078 443.086 152.885 443.46 152.771C443.833 152.656 444.227 152.623 444.615 152.674C445.003 152.724 445.375 152.857 445.707 153.064C446.439 153.476 446.99 154.148 447.251 154.946C447.512 155.745 447.464 156.612 447.117 157.377Z" fill="white"/>
<path d="M456.55 162.798C456.391 163.155 456.157 163.474 455.865 163.733C455.572 163.992 455.227 164.185 454.853 164.3C454.479 164.414 454.085 164.447 453.698 164.397C453.31 164.346 452.938 164.213 452.606 164.007C451.874 163.595 451.323 162.923 451.062 162.124C450.801 161.326 450.849 160.458 451.196 159.693C451.355 159.336 451.589 159.018 451.882 158.759C452.175 158.5 452.52 158.306 452.893 158.192C453.267 158.077 453.661 158.044 454.049 158.095C454.436 158.145 454.809 158.278 455.141 158.485C455.873 158.897 456.424 159.569 456.685 160.367C456.946 161.166 456.898 162.033 456.55 162.798Z" fill="#D1EFFF"/>
<path d="M466.017 168.286C465.858 168.643 465.624 168.962 465.331 169.221C465.039 169.48 464.694 169.673 464.32 169.788C463.946 169.902 463.552 169.935 463.165 169.885C462.777 169.834 462.405 169.701 462.073 169.495C461.341 169.083 460.789 168.411 460.528 167.612C460.267 166.814 460.315 165.946 460.663 165.181C460.822 164.824 461.056 164.506 461.349 164.247C461.641 163.988 461.986 163.794 462.36 163.68C462.734 163.565 463.128 163.532 463.515 163.583C463.903 163.633 464.275 163.766 464.607 163.973C465.339 164.385 465.891 165.057 466.152 165.855C466.413 166.654 466.365 167.521 466.017 168.286Z" fill="#FF2C9C"/>
<path d="M300.45 407.835L299.141 407.096L271.916 422.856C262.625 428.396 254.151 435.203 246.738 443.08L293.249 469.933L351.392 436.366L300.45 407.835Z" fill="#0D477C"/>
<path d="M350.084 408.607L341.691 403.739L372.794 385.781C373.092 385.65 373.345 385.435 373.523 385.162C373.7 384.89 373.795 384.571 373.795 384.246C373.795 383.92 373.7 383.602 373.523 383.329C373.345 383.056 373.092 382.841 372.794 382.71L341.02 364.366C340.195 363.948 339.284 363.731 338.359 363.731C337.435 363.731 336.524 363.948 335.699 364.366L304.597 382.324L296.204 377.457L327.307 359.499C330.748 357.756 334.552 356.847 338.41 356.847C342.268 356.847 346.071 357.756 349.513 359.499L381.287 377.843C387.413 381.384 387.413 387.124 381.287 390.665L350.084 408.607Z" fill="#E8A200"/>
<path d="M363.697 410.738C363.697 406.223 360.961 400.987 357.57 398.99L301.223 366.464C300.652 366.06 299.984 365.817 299.288 365.758C298.592 365.699 297.892 365.826 297.262 366.128L229.954 405.267L295.013 454.291L361.296 415.823C361.504 415.733 361.701 415.621 361.884 415.488C362.529 414.888 363.029 414.147 363.343 413.324C363.657 412.5 363.778 411.616 363.697 410.738Z" fill="#FDD762"/>
<path d="M295.029 454.291L361.313 415.823C361.52 415.733 361.717 415.621 361.9 415.488C362.54 414.888 363.035 414.15 363.346 413.329C363.658 412.509 363.777 411.628 363.696 410.755C363.633 408.486 363.059 406.26 362.018 404.243L286.485 447.88L295.029 454.291Z" fill="#E8A200"/>
<path d="M290.8 454.123L234.453 421.597C231.096 419.65 228.326 414.414 228.326 409.849C228.326 405.334 231.062 403.27 234.453 405.216L290.8 437.742C294.157 439.689 296.926 444.926 296.926 449.491C296.926 453.989 294.174 456.07 290.8 454.123Z" fill="#F2B42A"/>
<path d="M291.47 437.474L235.123 404.948C234.54 404.533 233.854 404.288 233.141 404.237C232.427 404.187 231.714 404.334 231.078 404.663C231.648 404.524 232.24 404.505 232.818 404.606C233.395 404.707 233.946 404.927 234.435 405.25L290.782 437.776C294.139 439.723 296.909 444.959 296.909 449.524C297.012 450.454 296.875 451.394 296.511 452.255C296.146 453.116 295.567 453.869 294.827 454.442C296.506 453.938 297.58 452.059 297.58 449.222C297.597 444.674 294.861 439.438 291.47 437.474Z" fill="#FDD762"/>
<path d="M282.356 443.08L275.642 439.169C275.269 438.904 274.964 438.554 274.752 438.149C274.539 437.744 274.424 437.294 274.417 436.836C274.417 435.93 274.971 435.527 275.642 435.913L282.356 439.824C282.729 440.089 283.034 440.439 283.247 440.844C283.46 441.249 283.574 441.699 283.582 442.157C283.582 443.08 283.028 443.533 282.356 443.08Z" fill="#FDD762"/>
<path d="M289.993 396.892C290.444 396.741 290.835 396.452 291.113 396.067C291.39 395.681 291.539 395.218 291.539 394.743C291.539 394.268 291.39 393.806 291.113 393.42C290.835 393.035 290.444 392.746 289.993 392.595C288.839 392.008 287.562 391.703 286.267 391.703C284.972 391.703 283.695 392.008 282.541 392.595C282.091 392.746 281.699 393.035 281.422 393.42C281.144 393.806 280.995 394.268 280.995 394.743C280.995 395.218 281.144 395.681 281.422 396.067C281.699 396.452 282.091 396.741 282.541 396.892C283.695 397.478 284.972 397.784 286.267 397.784C287.562 397.784 288.839 397.478 289.993 396.892Z" fill="#E8A200"/>
<path d="M301.34 403.286C301.79 403.135 302.182 402.847 302.459 402.461C302.737 402.076 302.886 401.613 302.886 401.138C302.886 400.663 302.737 400.2 302.459 399.815C302.182 399.429 301.79 399.141 301.34 398.99C300.186 398.403 298.909 398.097 297.614 398.097C296.319 398.097 295.042 398.403 293.888 398.99C293.437 399.141 293.046 399.429 292.768 399.815C292.491 400.2 292.342 400.663 292.342 401.138C292.342 401.613 292.491 402.076 292.768 402.461C293.046 402.847 293.437 403.135 293.888 403.286C295.042 403.873 296.319 404.179 297.614 404.179C298.909 404.179 300.186 403.873 301.34 403.286Z" fill="white"/>
<path d="M312.687 409.681C313.137 409.53 313.529 409.241 313.806 408.856C314.083 408.47 314.233 408.007 314.233 407.532C314.233 407.058 314.083 406.595 313.806 406.209C313.529 405.824 313.137 405.535 312.687 405.384C311.532 404.797 310.256 404.492 308.961 404.492C307.666 404.492 306.389 404.797 305.234 405.384C304.784 405.535 304.392 405.824 304.115 406.209C303.838 406.595 303.688 407.058 303.688 407.532C303.688 408.007 303.838 408.47 304.115 408.856C304.392 409.241 304.784 409.53 305.234 409.681C306.389 410.267 307.666 410.573 308.961 410.573C310.256 410.573 311.532 410.267 312.687 409.681Z" fill="white"/>
<path d="M303.556 302.888L350.403 275.851C358.98 270.9 357.905 262.256 348.002 256.533C338.099 250.81 323.127 250.189 314.55 255.14L267.703 282.178C259.126 287.129 260.2 295.772 270.103 301.495C280.007 307.135 294.979 307.84 303.556 302.888Z" fill="#3BB9FF"/>
<path d="M319.686 231.794V222.731L330.412 168.689L319.821 162.144L298.588 173.892L298.437 243.543C298.437 248.225 300.115 251.397 302.885 252.438L312.318 258.362L313.509 253.881L315.188 245.708C317.992 241.598 319.554 236.768 319.686 231.794Z" fill="#0D477C"/>
<path d="M319.636 258.127C313.778 261.367 309.028 257.741 309.045 250.055L309.196 180.404L330.429 168.656L330.278 238.306C330.261 246.027 325.494 254.888 319.636 258.127Z" fill="#3BB9FF"/>
<path d="M376.922 131.162C376.922 148.834 364.501 156.001 349.194 147.173C333.886 138.345 321.465 116.829 321.465 99.1558C321.465 81.483 333.886 74.3165 349.194 83.1446C364.501 91.9726 376.922 113.489 376.922 131.162Z" fill="#FF2C9C"/>
<path d="M369.085 148.952L288.4 195.224L245.027 130.071L329.086 81.5334L369.085 148.952Z" fill="#FF2C9C"/>
<path d="M337.377 154.776C337.377 136.6 324.604 114.496 308.843 105.383C301.692 101.254 295.146 100.532 290.144 102.664H290.044H289.909L289.255 102.983C259.477 117.622 226.52 124.613 193.362 123.324L183.963 122.955L260.452 254.032L264.598 246.027C279.702 216.834 301.778 191.821 328.867 173.204C334.02 170.368 337.377 163.956 337.377 154.776Z" fill="#D1EFFF"/>
<path d="M269.365 224.51C269.365 189.635 244.876 147.207 214.663 129.769C199.557 121.075 185.961 120.236 176.058 125.892L167.078 131.145L170.216 130.49C163.838 137.204 160.146 147.609 160.146 161.271C160.146 196.147 184.635 238.575 214.848 256.013C226.698 262.86 237.675 264.841 246.638 262.609L245.212 264.707L253.47 259.873H253.604L253.906 259.705C263.39 253.898 269.365 241.68 269.365 224.51Z" fill="#D4ECFF"/>
<path d="M262.953 228.253C262.953 193.377 238.464 150.949 208.251 133.511C193.379 124.935 179.918 123.995 170.048 129.416L168.672 130.222C168.202 130.524 167.749 130.843 167.295 131.162L170.082 130.574C163.703 137.287 160.011 147.693 160.011 161.355C160.011 196.23 184.5 238.659 214.713 256.097C226.563 262.944 237.54 264.925 246.504 262.692L245.211 264.606C256.088 259.369 262.953 246.715 262.953 228.253Z" fill="white"/>
<path d="M261.141 229.31C261.141 264.186 236.651 278.335 206.438 260.897C176.226 243.459 151.736 201.031 151.736 166.155C151.736 131.279 176.242 117.131 206.455 134.569C236.668 152.007 261.141 194.435 261.141 229.31Z" fill="#3BB9FF"/>
<path d="M254.443 225.45C254.443 256.046 232.959 268.466 206.455 253.16C179.952 237.853 158.45 200.628 158.45 170.032C158.45 139.436 179.935 127.016 206.455 142.323C232.975 157.629 254.443 194.838 254.443 225.45Z" fill="#0D477C"/>
<path d="M208.688 252.186C182.184 236.88 160.699 199.671 160.699 169.058C160.699 152.98 166.624 141.937 176.091 137.288C165.315 141.248 158.45 152.728 158.45 170.032C158.45 200.628 179.935 237.853 206.438 253.16C219.027 260.427 230.474 261.434 239.035 257.238C230.777 260.259 220.202 258.832 208.688 252.186Z" fill="white"/>
<path d="M199.255 186.261L268.896 132.42L294.191 176.292L212.448 209.825L199.255 186.261Z" fill="#D1EFFF"/>
<path d="M216.023 203.263C216.023 209.372 211.726 211.856 206.439 208.801C203.649 206.983 201.327 204.532 199.661 201.648C197.996 198.764 197.035 195.528 196.854 192.202C196.854 186.093 201.151 183.609 206.439 186.664C209.229 188.483 211.551 190.933 213.216 193.817C214.881 196.701 215.843 199.937 216.023 203.263Z" fill="#3BB9FF"/>
<path d="M303.925 232.382L303.556 232.164C302.787 231.618 302.158 230.899 301.718 230.065C301.277 229.232 301.039 228.306 301.021 227.364V213.937C301.021 212.091 302.146 211.235 303.539 212.024L303.908 212.242C304.677 212.788 305.307 213.507 305.747 214.34C306.187 215.174 306.426 216.099 306.443 217.042V230.469C306.443 232.332 305.318 233.187 303.925 232.382Z" fill="#FF2C9C"/>
</g>
<defs>
<clipPath id="clip0">
<rect width="570" height="470" fill="white"/>
</clipPath>
</defs>
</svg>
