<svg width="391" height="250" viewBox="0 0 391 250" fill="none" xmlns="http://www.w3.org/2000/svg">
<g clip-path="url(#clip0)">
<path d="M147.276 67.2466C137.303 72.4992 121.14 72.4992 111.166 67.2466C101.192 61.994 101.192 53.4758 111.166 48.2612C121.14 43.0465 137.303 43.0086 147.276 48.2612C157.25 53.5138 157.25 62.0193 147.276 67.2466Z" fill="#D5DAE0"/>
<path d="M158.212 46.2359V38.8063H156.668C154.897 36.2531 152.494 34.2034 149.694 32.8575C138.302 26.8834 119.962 26.8834 108.622 32.8575C105.821 34.2034 103.418 36.2531 101.648 38.8063H100.18V46.1979C100.18 50.1216 102.99 54.0579 108.685 57.0576C120.076 63.0317 138.416 63.0317 149.757 57.0576C155.44 54.0706 158.212 50.1596 158.212 46.2359Z" fill="#FF2C9C"/>
<path d="M149.77 49.6152C138.378 55.5893 120.038 55.5893 108.698 49.6152C97.3572 43.6411 97.3066 33.9585 108.698 27.9845C120.089 22.0104 138.429 22.0104 149.77 27.9845C161.11 33.9585 161.11 43.6411 149.77 49.6152Z" fill="#FF2C9C"/>
<path d="M149.77 49.615C138.378 55.5891 120.038 55.5891 108.698 49.615C103.255 46.7546 100.458 43.0334 100.23 39.287C99.9898 43.3625 102.762 47.476 108.698 50.5896C120.089 56.5637 138.429 56.5637 149.77 50.5896C155.68 47.4887 158.478 43.3625 158.212 39.2363C157.997 43.0334 155.199 46.7546 149.77 49.615Z" fill="white"/>
<path d="M115.178 43.8689C114.979 43.7849 114.804 43.6512 114.672 43.4806C114.539 43.31 114.452 43.1081 114.419 42.8943V32.9333C114.419 32.1739 115.596 31.5537 117.039 31.5537C118.482 31.5537 119.646 32.1739 119.646 32.9333V41.1983L145.935 38.2619C147.352 38.11 148.732 38.5783 149.036 39.3251C149.339 40.0718 148.428 40.8059 147.023 40.9578L117.621 44.2993C116.879 44.3894 116.127 44.2937 115.431 44.0208L115.178 43.8689Z" fill="white"/>
<path d="M366.849 116.849L268.96 60.1584C263.644 57.0827 254.341 57.4498 248.19 60.9937L42.7425 179.235C36.5912 182.779 35.9204 188.095 41.2363 191.221L139.138 247.911C144.454 250.987 153.757 250.62 159.908 247.076L365.368 128.835C371.494 125.304 372.114 119.937 366.849 116.849Z" fill="#D5DAE0"/>
<path d="M136.277 226.914L34.4016 167.92C31.0602 165.983 29.4907 163.363 29.6047 160.655V145.871L35.275 152.504C35.642 152.263 36.0091 152.023 36.4141 151.782L244.836 31.8449C253.114 27.0858 265.619 26.5796 272.77 30.7311L373.215 88.953L379.544 82.0296V96.4839C379.696 99.7494 377.38 103.217 372.696 105.901L164.211 225.787C155.934 230.559 143.429 231.053 136.277 226.914Z" fill="#0D477C"/>
<path d="M244.836 31.8449C253.114 27.0858 265.619 26.5796 272.77 30.7311L373.215 88.953L379.544 82.0296V96.4839C379.696 99.7494 377.38 103.217 372.696 105.901L164.211 225.787C159.593 228.297 154.431 229.64 149.175 229.698L149.352 86.7887L244.836 31.8449Z" fill="#3BB9FF"/>
<path d="M374.646 74.8659L272.82 15.8592C265.669 11.7204 253.164 12.214 244.887 16.973L36.4646 136.923C28.187 141.682 27.2883 148.909 34.4395 153.048L136.315 212.042C143.466 216.181 155.972 215.687 164.249 210.928L372.671 90.9909C380.974 86.2192 381.847 79.0047 374.646 74.8659Z" fill="#D1EFFF"/>
<path d="M136.239 213.624L34.3636 154.63C30.6677 152.491 29.1489 149.567 29.6552 146.529C29.8324 148.972 31.4018 151.301 34.4522 153.06L136.328 212.054C143.479 216.193 155.984 215.7 164.262 210.941L372.671 90.9908C376.683 88.6872 379 85.8015 379.417 82.9663C379.658 86.2824 377.354 89.8264 372.595 92.5603L164.173 212.51C155.908 217.269 143.39 217.775 136.239 213.624Z" fill="white"/>
<path d="M366.849 77.2071L268.96 20.4914C263.644 17.4157 254.341 17.7828 248.19 21.3267L42.7425 139.568C36.5912 143.112 35.9204 148.428 41.2363 151.554L139.138 208.245C144.454 211.32 153.757 210.953 159.908 207.409L365.343 89.168C371.494 85.6367 372.114 80.2701 366.849 77.2071Z" fill="#0D477C"/>
<path d="M163.781 178.804L94.6992 138.91L99.1165 136.366L168.198 176.248L163.781 178.804Z" fill="#D1EFFF"/>
<path d="M115.722 167.173L80.7386 146.973L85.1559 144.429L120.127 164.629L115.722 167.173Z" fill="#D1EFFF"/>
<path d="M132.695 176.97L121.355 170.426L125.759 167.882L137.1 174.425L132.695 176.97Z" fill="#FF2C9C"/>
<path d="M149.82 186.854L138.48 180.311L142.884 177.767L154.238 184.31L149.82 186.854Z" fill="white"/>
<path d="M116.115 159.338L87.7253 142.947L92.13 140.403L120.519 156.794L116.115 159.338Z" fill="white"/>
<path d="M150.757 179.336L122.38 162.958L126.785 160.401L155.174 176.792L150.757 179.336Z" fill="#D1EFFF"/>
<path d="M129.746 144.289C128.95 144.693 128.07 144.903 127.177 144.903C126.284 144.903 125.404 144.693 124.608 144.289C124.296 144.184 124.026 143.984 123.834 143.717C123.643 143.451 123.54 143.13 123.54 142.802C123.54 142.473 123.643 142.153 123.834 141.886C124.026 141.62 124.296 141.42 124.608 141.315C125.404 140.911 126.284 140.701 127.177 140.701C128.07 140.701 128.95 140.911 129.746 141.315C130.058 141.42 130.328 141.62 130.52 141.886C130.711 142.153 130.814 142.473 130.814 142.802C130.814 143.13 130.711 143.451 130.52 143.717C130.328 143.984 130.058 144.184 129.746 144.289Z" fill="#FF2C9C"/>
<path d="M137.429 148.745C136.633 149.148 135.753 149.359 134.86 149.359C133.967 149.359 133.087 149.148 132.29 148.745C131.979 148.64 131.709 148.44 131.517 148.173C131.325 147.906 131.222 147.586 131.222 147.257C131.222 146.929 131.325 146.609 131.517 146.342C131.709 146.075 131.979 145.875 132.29 145.77C133.087 145.367 133.967 145.156 134.86 145.156C135.753 145.156 136.633 145.367 137.429 145.77C137.74 145.875 138.011 146.075 138.202 146.342C138.394 146.609 138.497 146.929 138.497 147.257C138.497 147.586 138.394 147.906 138.202 148.173C138.011 148.44 137.74 148.64 137.429 148.745Z" fill="white"/>
<path d="M145.125 153.149C144.328 153.553 143.448 153.763 142.555 153.763C141.662 153.763 140.782 153.553 139.986 153.149C139.675 153.044 139.404 152.844 139.213 152.577C139.021 152.31 138.918 151.99 138.918 151.662C138.918 151.333 139.021 151.013 139.213 150.746C139.404 150.479 139.675 150.279 139.986 150.175C140.782 149.771 141.662 149.561 142.555 149.561C143.448 149.561 144.328 149.771 145.125 150.175C145.436 150.279 145.706 150.479 145.898 150.746C146.089 151.013 146.193 151.333 146.193 151.662C146.193 151.99 146.089 152.31 145.898 152.577C145.706 152.844 145.436 153.044 145.125 153.149Z" fill="#D1EFFF"/>
<path d="M152.807 157.617C152.011 158.02 151.131 158.231 150.238 158.231C149.345 158.231 148.465 158.02 147.669 157.617C147.357 157.512 147.087 157.312 146.895 157.045C146.704 156.778 146.601 156.458 146.601 156.13C146.601 155.801 146.704 155.481 146.895 155.214C147.087 154.947 147.357 154.747 147.669 154.642C148.465 154.239 149.345 154.028 150.238 154.028C151.131 154.028 152.011 154.239 152.807 154.642C153.119 154.747 153.389 154.947 153.581 155.214C153.772 155.481 153.875 155.801 153.875 156.13C153.875 156.458 153.772 156.778 153.581 157.045C153.389 157.312 153.119 157.512 152.807 157.617Z" fill="#FF2C9C"/>
<path d="M160.49 162.009C159.694 162.412 158.813 162.623 157.921 162.623C157.028 162.623 156.148 162.412 155.351 162.009C155.04 161.904 154.77 161.704 154.578 161.437C154.386 161.17 154.283 160.85 154.283 160.522C154.283 160.193 154.386 159.873 154.578 159.606C154.77 159.339 155.04 159.139 155.351 159.034C156.148 158.631 157.028 158.42 157.921 158.42C158.813 158.42 159.694 158.631 160.49 159.034C160.801 159.139 161.072 159.339 161.263 159.606C161.455 159.873 161.558 160.193 161.558 160.522C161.558 160.85 161.455 161.17 161.263 161.437C161.072 161.704 160.801 161.904 160.49 162.009Z" fill="white"/>
<path d="M314.993 77.625L303.362 70.9042L307.88 68.2969L319.512 75.0177L314.993 77.625Z" fill="#FF2C9C"/>
<path d="M331.194 86.9786L319.562 80.2577L324.081 77.6504L335.713 84.3586L331.194 86.9786Z" fill="white"/>
<path d="M263.037 47.3496L251.405 40.6288L255.936 38.0215L267.568 44.7423L263.037 47.3496Z" fill="white"/>
<path d="M312.399 84.3837L296.21 75.0429L300.729 72.4355L316.917 81.7764L312.399 84.3837Z" fill="white"/>
<path d="M324.03 91.1047L316.93 87.0038L321.448 84.3965L328.549 88.4973L324.03 91.1047Z" fill="#D1EFFF"/>
<path d="M370.443 59.8925L350.749 48.5266L370.443 37.1606L390.125 48.5266L370.443 59.8925Z" fill="#D5DAE0"/>
<path d="M390.125 34.0976L370.443 45.4635V22.7317L390.125 11.3657V34.0976Z" fill="#D3008D"/>
<path d="M370.443 22.7319L350.749 11.3659L370.443 0L390.125 11.3659L370.443 22.7319Z" fill="#FF2C9C"/>
<path d="M370.443 45.4635L350.749 34.0976V11.3657L370.443 22.7317V45.4635Z" fill="#FF2C9C"/>
<path d="M363.343 33.1864L357.837 29.9969V23.6431L363.343 26.82V33.1864Z" fill="white"/>
<path d="M20.4916 131.468L0 119.634L20.4916 107.799L40.9832 119.634L20.4916 131.468Z" fill="#D5DAE0"/>
<path d="M40.9832 104.623L20.4916 116.444V92.7883L40.9832 80.9541V104.623Z" fill="#0D477C"/>
<path d="M20.4916 92.7881L0 80.9539L20.4916 69.1196L40.9832 80.9539L20.4916 92.7881Z" fill="#D1EFFF"/>
<path d="M20.4916 116.444L0 104.623V80.9541L20.4916 92.7883V116.444Z" fill="#3BB9FF"/>
<path d="M13.1126 103.66L7.37903 100.357V93.7373L13.1126 97.0408V103.66Z" fill="white"/>
<path d="M250.962 137.125C232.445 147.82 202.41 147.82 183.88 137.125C165.35 126.43 165.363 109.09 183.88 98.3949C202.397 87.6998 232.432 87.6998 250.962 98.3949C269.492 109.09 269.492 126.43 250.962 137.125Z" fill="#092E63"/>
<path d="M261.543 100.294H259.467C257.164 95.7751 252.936 91.5224 246.81 87.9531C227.129 76.5619 195.233 76.5619 175.552 87.9531C169.375 91.5224 165.148 95.7751 162.895 100.294H160.743V108.521C160.743 115.963 165.667 123.405 175.501 129.088C195.183 140.479 227.078 140.479 246.76 129.088C256.594 123.405 261.518 115.963 261.518 108.521L261.543 100.294Z" fill="#F9BF30"/>
<path d="M200.22 80.1313C191.553 81.1003 183.16 83.7577 175.514 87.9533C169.337 91.5226 165.11 95.7753 162.857 100.294H160.743V108.521C160.743 115.963 165.667 123.405 175.501 129.088C183.143 133.282 191.532 135.94 200.195 136.91L200.22 80.1313Z" fill="#FDD762"/>
<path d="M246.912 129.012C256.658 123.342 261.53 115.938 261.53 108.521V100.294H259.467C257.059 95.9174 253.574 92.2277 249.342 89.5732H246.886L246.912 129.012Z" fill="#E8A200"/>
<g opacity="0.4">
<path opacity="0.4" d="M258.948 99.3317C258.304 98.2202 257.572 97.162 256.759 96.1675V120.899C257.572 119.905 258.304 118.846 258.948 117.735V99.3317Z" fill="#E8A200"/>
<path opacity="0.4" d="M175.526 87.9532C173.003 89.3788 170.643 91.0765 168.489 93.016V124.038C169.173 124.671 169.894 125.304 170.679 125.886V92.3199H174.792V128.645L175.526 129.088C176.007 129.367 176.488 129.62 176.982 129.886V92.3199H181.095V131.873C181.813 132.185 182.543 132.48 183.285 132.759V92.3199H187.399V134.164C188.124 134.383 188.854 134.594 189.588 134.797V92.3199H193.651V135.809L195.841 136.239V92.3199H199.98V136.885L202.169 137.138V92.3199H206.308V137.48L208.498 137.568V92.3199H212.637V137.594L214.826 137.53V92.3199H218.965V137.265L221.155 137.037V92.3199H225.294V136.455L227.483 136.05V92.3199H231.597V135.126C232.331 134.94 233.061 134.742 233.786 134.531V92.3199H237.9V133.189C238.634 132.919 239.364 132.641 240.089 132.354V92.3199H244.203V130.493C244.946 130.122 245.675 129.734 246.393 129.329V92.3199H250.506V126.721C251.278 126.165 252 125.595 252.696 125.025V92.3199H253.063C251.119 90.6729 249.026 89.211 246.81 87.9532C241.959 85.2236 236.754 83.175 231.344 81.8652H190.981C185.574 83.1759 180.374 85.2245 175.526 87.9532Z" fill="#E8A200"/>
<path opacity="0.4" d="M164.363 97.7495C163.793 98.5585 163.278 99.4042 162.819 100.281H162.186V115.381C162.776 116.77 163.51 118.093 164.376 119.33L164.363 97.7495Z" fill="#E8A200"/>
</g>
<path d="M246.811 120.861C227.129 132.252 195.233 132.252 175.552 120.861C155.87 109.47 155.845 91.13 175.527 79.7388C195.208 68.3475 227.104 68.3475 246.785 79.7388C266.467 91.13 266.454 109.508 246.811 120.861Z" fill="#FDD762"/>
<path opacity="0.2" d="M222.446 105.268C236.925 96.9017 240.735 84.7131 233.837 74.3344C214.928 68.8159 191.272 70.6006 175.476 79.7262C160.996 88.0925 157.187 100.281 164.085 110.66C182.981 116.178 206.65 114.381 222.446 105.268Z" fill="white"/>
<path opacity="0.7" d="M246.811 120.861C227.129 132.253 195.233 132.253 175.552 120.861C166.047 115.368 161.148 108.204 160.819 101.041C160.477 108.736 165.376 116.495 175.552 122.355C195.233 133.746 227.129 133.746 246.811 122.355C256.936 116.482 261.872 108.723 261.531 101.041C261.189 108.242 256.291 115.381 246.811 120.861Z" fill="white"/>
<path d="M236.444 114.9C222.522 122.962 199.828 122.962 185.817 114.9C171.805 106.837 171.894 93.7627 185.817 85.7002C199.739 77.6377 222.433 77.6377 236.444 85.7002C250.456 93.7627 250.405 106.837 236.444 114.9Z" fill="#E8A200"/>
<path d="M185.867 87.5734C199.79 79.5109 222.484 79.5109 236.495 87.5734C243.064 91.3705 246.545 96.2687 246.937 101.23C247.38 95.6359 243.899 89.9529 236.495 85.6875C222.572 77.625 199.878 77.625 185.867 85.6875C178.463 89.9655 174.982 95.6485 175.425 101.256C175.818 96.2687 179.298 91.3705 185.867 87.5734Z" fill="#F9BF30"/>
<path d="M228.736 90.5479L225.964 91.3452L226.749 91.6617L224.028 93.2185C221.898 92.1555 219.549 91.605 217.168 91.611C214.846 91.6112 212.567 92.227 210.561 93.3957C209.839 93.7945 209.167 94.279 208.561 94.8386C208.093 95.2628 207.726 95.786 207.485 96.37C207.296 96.8394 207.176 97.3341 207.131 97.8383C207.08 98.3644 207.08 98.8942 207.131 99.4204L207.447 101.952C207.537 102.538 207.559 103.133 207.511 103.724C207.434 104.242 207.229 104.734 206.916 105.154C206.493 105.715 205.953 106.177 205.334 106.508C204.846 106.863 204.269 107.075 203.667 107.12C203.066 107.164 202.464 107.04 201.929 106.761C201.169 106.323 200.98 105.778 201.359 105.129C202.172 104.107 203.201 103.277 204.372 102.699V100.8L202.005 101.686L198.714 100.243C197.087 101.099 195.699 102.347 194.676 103.876L194.284 103.433V105.293C194.284 106.559 195.271 107.825 197.22 109.09L195.879 109.862L194.044 109.027V110.926L195.689 111.875L198.891 110.027C200.923 110.961 203.15 111.395 205.384 111.293C207.531 111.263 209.637 110.698 211.51 109.647C212.303 109.209 213.035 108.669 213.687 108.04C214.227 107.548 214.658 106.949 214.953 106.28C215.178 105.725 215.327 105.142 215.396 104.546C215.456 103.936 215.456 103.321 215.396 102.711L215.117 100.268C215.117 99.7748 215.054 99.4204 215.054 99.2052C215.063 98.8943 215.101 98.5849 215.168 98.2812C215.248 97.8871 215.436 97.5232 215.712 97.2307C216.058 96.8751 216.455 96.5723 216.889 96.3321C217.452 96.0176 218.071 95.8196 218.712 95.7499C219.336 95.6514 219.976 95.758 220.535 96.0536C220.754 96.1584 220.949 96.3095 221.104 96.4966C221.172 96.5881 221.207 96.6993 221.205 96.813L218.383 97.3953V99.2938L224.104 101.825C224.568 101.53 224.99 101.256 225.37 101.002C225.772 100.719 226.157 100.41 226.521 100.079C226.876 99.7709 227.199 99.4273 227.483 99.0533C227.727 98.7159 227.911 98.3391 228.027 97.9395C228.079 97.7536 228.108 97.5626 228.116 97.3699V95.3575L227.395 95.5094C226.949 95.0142 226.433 94.5877 225.863 94.2437L228.736 92.3958V90.5479Z" fill="#F9BF30"/>
<path d="M194.031 109.002L197.208 107.166C195.039 105.791 194.069 104.39 194.297 102.964C194.525 101.538 195.997 99.9983 198.714 98.3445L204.486 100.8C203.315 101.378 202.286 102.208 201.473 103.23C201.102 103.88 201.292 104.424 202.043 104.863C202.578 105.142 203.18 105.266 203.781 105.221C204.383 105.176 204.96 104.965 205.448 104.61C206.067 104.279 206.607 103.816 207.03 103.255C207.343 102.835 207.548 102.344 207.625 101.825C207.673 101.234 207.651 100.639 207.561 100.053L207.245 97.5218C207.194 96.9957 207.194 96.4659 207.245 95.9397C207.29 95.4355 207.41 94.9408 207.599 94.4715C207.84 93.8874 208.207 93.3643 208.675 92.94C209.281 92.3803 209.953 91.8959 210.675 91.4971C212.681 90.3284 214.96 89.7126 217.282 89.7125C219.624 89.724 221.932 90.274 224.028 91.3199L227.04 89.5732L228.711 90.5352L225.711 92.2692C226.282 92.6132 226.798 93.0397 227.243 93.5349C227.566 93.8998 227.804 94.3322 227.939 94.8006C228.059 95.214 228.059 95.6528 227.939 96.0663C227.822 96.4659 227.638 96.8426 227.395 97.1801C227.11 97.5541 226.788 97.8976 226.433 98.2053C226.068 98.5368 225.684 98.8454 225.281 99.1292C224.918 99.3824 224.496 99.6566 224.015 99.9519L218.294 97.4206L219.37 96.7624C219.649 96.5852 219.931 96.3869 220.218 96.1675C220.446 96.0073 220.655 95.8203 220.838 95.6106C220.957 95.4638 221.047 95.2965 221.104 95.117C221.13 95.0357 221.136 94.9493 221.12 94.8654C221.105 94.7815 221.069 94.7027 221.016 94.636C220.86 94.4489 220.666 94.2978 220.446 94.193C219.887 93.8974 219.248 93.7908 218.623 93.8893C217.983 93.959 217.363 94.157 216.801 94.4715C216.367 94.7117 215.97 95.0145 215.624 95.3701C215.348 95.6626 215.159 96.0265 215.079 96.4207C215.012 96.7243 214.974 97.0337 214.966 97.3446C214.966 97.5598 214.966 97.9268 215.029 98.4078L215.307 100.851C215.368 101.461 215.368 102.076 215.307 102.686C215.239 103.281 215.09 103.865 214.864 104.42C214.57 105.088 214.139 105.688 213.599 106.179C212.946 106.808 212.215 107.348 211.422 107.787C209.549 108.837 207.443 109.403 205.296 109.432C203.061 109.534 200.835 109.1 198.803 108.166L195.6 110.014L194.031 109.002Z" fill="#FDD762"/>
<path d="M265.138 85.4596H263.087C260.784 80.9411 256.556 76.6884 250.43 73.1191C230.749 61.7279 198.853 61.7279 179.172 73.1191C172.995 76.6884 168.768 80.9411 166.515 85.4596H164.464V93.6613C164.464 101.104 169.388 108.546 179.222 114.229C198.904 125.62 230.799 125.62 250.481 114.229C260.315 108.546 265.239 101.104 265.239 93.6613L265.138 85.4596Z" fill="#F9BF30"/>
<path d="M203.777 65.2974C195.11 66.2664 186.716 68.9237 179.07 73.1194C172.894 76.6886 168.666 80.9413 166.413 85.4599H164.363V93.6616C164.363 101.104 169.287 108.546 179.121 114.229C186.748 118.432 195.124 121.102 203.777 122.089V65.2974Z" fill="#FDD762"/>
<path d="M250.519 114.178C260.265 108.508 265.138 101.104 265.138 93.6867V85.4597H263.087C260.678 81.0834 257.193 77.3937 252.962 74.7393H250.506L250.519 114.178Z" fill="#E8A200"/>
<g opacity="0.4">
<path opacity="0.4" d="M262.543 84.5109C261.899 83.3994 261.167 82.3412 260.353 81.3467V106.066C261.167 105.071 261.899 104.013 262.543 102.901V84.5109Z" fill="#E8A200"/>
<path opacity="0.4" d="M179.121 73.1194C176.598 74.5449 174.238 76.2426 172.084 78.1822V109.166C172.767 109.799 173.489 110.432 174.274 111.014V77.4987H178.387V113.824L179.121 114.267C179.602 114.546 180.083 114.799 180.577 115.065V77.4987H184.69V117.039C185.407 117.351 186.137 117.647 186.88 117.925V77.4987H190.993V119.355C191.719 119.575 192.449 119.786 193.183 119.988V77.4987H197.297V120.988L199.486 121.418V77.4987H203.6V122.064L205.789 122.317V77.4987H209.903V122.646L212.092 122.735V77.4987H216.206V122.773L218.396 122.709V77.4987H222.509V122.431L224.699 122.203V77.4987H228.812V121.633L231.002 121.228V77.4987H235.115V120.241C235.85 120.056 236.579 119.857 237.305 119.646V77.4987H241.419V118.368C242.161 118.098 242.891 117.819 243.608 117.533V77.4987H247.722V115.672C248.464 115.301 249.194 114.913 249.911 114.508V77.4987H254.025V111.9C254.797 111.343 255.518 110.774 256.215 110.204V77.4987H256.582C254.646 75.853 252.561 74.3912 250.354 73.132C245.509 70.4177 240.313 68.382 234.913 67.082H194.588C189.18 68.3758 183.976 70.4073 179.121 73.1194Z" fill="#E8A200"/>
<path opacity="0.4" d="M167.97 82.916C167.401 83.725 166.885 84.5707 166.426 85.4474H165.806V100.547C166.396 101.936 167.13 103.26 167.996 104.496L167.97 82.916Z" fill="#E8A200"/>
</g>
<path d="M250.38 106.04C230.698 117.431 198.803 117.431 179.121 106.04C159.439 94.6485 159.439 76.258 179.121 64.9047C198.803 53.5514 230.698 53.5134 250.38 64.9047C270.061 76.2959 270.061 94.6738 250.38 106.04Z" fill="#FDD762"/>
<path opacity="0.2" d="M226.04 90.4339C240.482 82.0803 244.279 69.8917 237.495 59.4877C218.585 53.9693 194.93 55.7539 179.134 64.8795C164.654 73.2458 160.845 85.4344 167.743 95.8131C186.576 101.344 210.245 99.5596 226.04 90.4339Z" fill="white"/>
<path opacity="0.7" d="M250.38 106.04C230.698 117.431 198.803 117.431 179.121 106.04C169.616 100.547 164.717 93.3831 164.388 86.2192C164.047 93.9147 168.945 101.673 179.121 107.534C198.803 118.925 230.698 118.925 250.38 107.534C260.505 101.661 265.441 93.902 265.1 86.2192C264.783 93.4084 259.885 100.547 250.38 106.04Z" fill="white"/>
<path d="M240.039 100.066C226.116 108.128 203.422 108.128 189.411 100.066C175.4 92.0033 175.489 78.9287 189.411 70.8662C203.334 62.8037 226.028 62.8037 240.039 70.8662C254.05 78.9287 254.012 92.0033 240.039 100.066Z" fill="#E8A200"/>
<path d="M189.462 72.7521C203.384 64.6896 226.078 64.6896 240.09 72.7521C246.659 76.5492 250.139 81.4474 250.532 86.4089C250.975 80.8145 247.494 75.1316 240.09 70.8662C226.167 62.8037 203.473 62.8037 189.462 70.8662C182.058 75.1442 178.59 80.8145 179.02 86.4089C179.412 81.4474 182.893 76.5365 189.462 72.7521Z" fill="#F9BF30"/>
<path d="M232.344 75.7139L229.572 76.5113L230.356 76.8277L227.648 78.3845C225.518 77.3215 223.168 76.771 220.788 76.7771C218.466 76.7772 216.187 77.393 214.181 78.5617C213.459 78.9604 212.787 79.4449 212.181 80.0046C211.713 80.4288 211.346 80.952 211.105 81.5361C210.916 82.0054 210.796 82.5001 210.751 83.0043C210.7 83.5304 210.7 84.0602 210.751 84.5864L211.067 87.1178C211.157 87.7039 211.179 88.2986 211.13 88.8898C211.054 89.4084 210.849 89.8999 210.536 90.32C210.113 90.881 209.573 91.3431 208.953 91.6743C208.466 92.0292 207.889 92.2409 207.287 92.2856C206.686 92.3304 206.084 92.2063 205.549 91.9274C204.789 91.4886 204.599 90.9444 204.979 90.2947C205.792 89.2725 206.821 88.4427 207.992 87.8645V85.966L205.625 86.852L202.22 85.4091C200.593 86.2647 199.205 87.5134 198.182 89.0416L197.79 88.5986V90.4592C197.79 91.7249 198.777 92.9906 200.726 94.2563L199.385 95.0284L197.55 94.193V96.0915L199.195 97.0408L202.511 95.1676C204.543 96.1017 206.77 96.5357 209.004 96.4333C211.151 96.4039 213.257 95.8383 215.13 94.7879C215.923 94.3496 216.655 93.8092 217.307 93.1805C217.847 92.6889 218.278 92.0896 218.573 91.4211C218.798 90.8658 218.947 90.2825 219.016 89.6871C219.076 89.0769 219.076 88.4621 219.016 87.8519L218.737 85.4091C218.737 84.9155 218.674 84.5611 218.674 84.3459C218.683 84.035 218.721 83.7256 218.788 83.422C218.868 83.0278 219.056 82.6639 219.332 82.3714C219.678 82.0158 220.075 81.713 220.509 81.4728C221.072 81.1583 221.691 80.9603 222.332 80.8906C222.956 80.7921 223.596 80.8987 224.154 81.1943C224.374 81.2991 224.568 81.4502 224.724 81.6373C224.792 81.7288 224.827 81.84 224.825 81.9537L222.003 82.536V84.4345L227.724 86.9659C228.188 86.6706 228.61 86.3963 228.989 86.1432C229.392 85.8593 229.777 85.5507 230.141 85.2192C230.496 84.9116 230.819 84.568 231.103 84.194C231.347 83.8565 231.531 83.4798 231.647 83.0802C231.698 82.8943 231.728 82.7033 231.736 82.5107V80.5362L231.015 80.688C230.569 80.193 230.053 79.7665 229.483 79.4224L232.483 77.6884L232.344 75.7139Z" fill="#F9BF30"/>
<path d="M197.625 94.1677L200.802 92.3957C198.634 91.0203 197.663 89.6196 197.891 88.1936C198.119 86.7676 199.583 85.215 202.283 83.5359L208.055 85.9913C206.885 86.5658 205.857 87.3912 205.042 88.4088C204.671 89.0585 204.861 89.6028 205.612 90.0415C206.147 90.3204 206.749 90.4445 207.35 90.3998C207.952 90.3551 208.529 90.1433 209.017 89.7884C209.636 89.4573 210.176 88.9951 210.599 88.4341C210.913 88.014 211.117 87.5225 211.194 87.0039C211.242 86.4128 211.221 85.8181 211.13 85.2319L210.814 82.7005C210.763 82.1743 210.763 81.6445 210.814 81.1184C210.859 80.6142 210.979 80.1195 211.168 79.6502C211.409 79.0661 211.776 78.543 212.244 78.1187C212.85 77.5591 213.522 77.0747 214.244 76.6758C216.25 75.5071 218.53 74.8913 220.851 74.8912C223.232 74.8851 225.581 75.4356 227.711 76.4986L230.723 74.752L232.394 75.7139L229.394 77.4479C229.965 77.7919 230.481 78.2184 230.926 78.7136C231.249 79.0785 231.487 79.5109 231.622 79.9793C231.742 80.3927 231.742 80.8315 231.622 81.245C231.506 81.6446 231.321 82.0213 231.078 82.3588C230.794 82.7372 230.472 83.085 230.116 83.3966C229.751 83.7281 229.367 84.0367 228.964 84.3206C228.601 84.5737 228.179 84.848 227.698 85.1433L221.977 82.6119L223.053 81.9538C223.332 81.7766 223.614 81.5783 223.901 81.3589C224.13 81.1987 224.338 81.0117 224.522 80.802C224.64 80.6552 224.73 80.4878 224.787 80.3084C224.813 80.2271 224.819 80.1407 224.803 80.0568C224.788 79.9729 224.752 79.8941 224.699 79.8274C224.543 79.6403 224.349 79.4892 224.129 79.3844C223.57 79.0888 222.931 78.9822 222.307 79.0806C221.666 79.1503 221.046 79.3483 220.484 79.6628C220.05 79.9031 219.653 80.2059 219.307 80.5615C219.031 80.8539 218.842 81.2179 218.763 81.612C218.695 81.9157 218.657 82.2251 218.649 82.536C218.649 82.7511 218.649 83.1182 218.712 83.5992L218.99 86.0419C219.051 86.6522 219.051 87.2669 218.99 87.8772C218.922 88.4726 218.773 89.0559 218.547 89.6112C218.253 90.2796 217.822 90.8789 217.282 91.3705C216.63 91.9993 215.898 92.5397 215.105 92.9779C213.232 94.0283 211.126 94.5939 208.979 94.6234C206.744 94.7258 204.518 94.2918 202.486 93.3577L199.284 95.2056L197.625 94.1677Z" fill="#FDD762"/>
</g>
<defs>
<clipPath id="clip0">
<rect width="390.125" height="250" fill="white"/>
</clipPath>
</defs>
</svg>
