<svg width="387" height="301" viewBox="0 0 387 301" fill="none" xmlns="http://www.w3.org/2000/svg">
<g clip-path="url(#clip0)">
<path d="M83.41 136L171.25 85.1302C176.02 82.3702 184.36 82.7002 189.88 85.8802L374.22 192C379.74 195.18 380.34 200 375.57 202.75L287.73 253.62C282.96 256.38 274.62 256.05 269.1 252.87L84.76 146.79C79.24 143.62 78.63 138.8 83.41 136Z" fill="#D5DAE0"/>
<path d="M290.29 236.89L381.7 184C384.7 182.26 386.1 179.92 386 177.48V164.22L380.92 170.22C380.59 170 380.26 169.79 379.92 169.58L192.92 61.9599C185.5 57.6899 174.27 57.2399 167.85 60.9599L77.69 113.05L72 106.84V119.84C71.86 122.77 73.95 125.84 78.14 128.29L265.14 235.91C272.65 240.16 283.87 240.61 290.29 236.89Z" fill="#0D477C"/>
<path d="M192.88 61.8602C185.46 57.5902 174.23 57.1402 167.81 60.8602L77.69 113.05L72 106.84V119.84C71.86 122.77 73.95 125.84 78.14 128.29L265.14 235.91C269.286 238.164 273.921 239.369 278.64 239.42L278.46 111.19L192.88 61.8602Z" fill="#3BB9FF"/>
<path d="M76.3701 100.46L167.78 47.5199C174.2 43.7999 185.42 44.2499 192.85 48.5199L379.85 156.14C387.27 160.41 388.09 166.89 381.67 170.61L290.26 223.55C283.84 227.27 272.62 226.82 265.19 222.55L78.1901 114.93C70.7601 110.66 69.9501 104.18 76.3701 100.46Z" fill="#D1EFFF"/>
<path d="M290.32 225L381.73 172C385.04 170.08 386.41 167.43 385.96 164.73C385.8 166.93 384.39 169.01 381.66 170.59L290.25 223.53C283.83 227.25 272.61 226.8 265.18 222.53L78.18 114.91C74.58 112.84 72.55 110.25 72.18 107.71C71.96 110.71 74.03 113.86 78.3 116.32L265.26 224C272.68 228.24 283.9 228.69 290.32 225Z" fill="#D1EFFF"/>
<path d="M83.41 102.55L171.25 51.68C176.02 48.92 184.36 49.25 189.88 52.43L374.22 158.52C379.74 161.7 380.34 166.52 375.57 169.27L287.73 220.14C282.96 222.9 274.62 222.57 269.1 219.39L84.76 113.3C79.24 110.12 78.63 105.31 83.41 102.55Z" fill="#0D477C"/>
<path d="M211.14 -1L215.86 14.48L227.94 22.79L218.78 26.53L221.53 41.89L211.14 28.52L200.76 29.9L203.51 17.71L194.34 3.39L206.42 9.03L211.14 -1Z" fill="#E8A200"/>
<path d="M188.71 6.63014L194.35 3.39014L203.06 7.45014C203.06 7.45014 203.06 13.3001 203.06 13.4501C201.791 13.6337 200.512 13.7372 199.23 13.7601C199 13.7601 188.71 6.63014 188.71 6.63014Z" fill="#D3008D"/>
<path d="M221.53 41.8901L215.89 45.1301L213.14 29.7701C213.14 29.7701 215.87 26.8901 215.86 26.8901L218.93 27.4101L221.53 41.8901Z" fill="#D3008D"/>
<path d="M205.51 2.24023L210.23 17.7102L222.31 26.0302L213.14 29.7602L215.89 45.1302L205.51 31.7602L195.12 33.1402L197.87 20.9502L188.71 6.63023L200.79 12.2702L205.51 2.24023Z" fill="#FF2C9C"/>
<path d="M215.89 45.1302L213.14 29.7702L222.31 26.0002L210.23 17.6902L205.51 2.24023L200.79 12.2402L188.71 6.63023L189.55 7.95023L201.19 13.3802L205.34 4.56023L209.51 18.2402L220.51 25.8402L212.15 29.2502L214.74 43.7102L215.89 45.1302Z" fill="white"/>
<path d="M205.51 2.24L211.14 -1L215.86 14.48L210.23 17.71L205.51 2.24Z" fill="#D3008D"/>
<path d="M227.94 22.79L222.31 26.03L210.23 17.71L215.86 14.48L227.94 22.79Z" fill="#D3008D"/>
<path d="M210.51 18.1001L209.65 17.6101L215.74 14.0601L215.86 14.4801L216.26 14.7501L210.51 18.1001Z" fill="white"/>
<path d="M249.65 21.04L254.36 36.52L266.44 44.83L257.28 48.56L260.03 63.93L249.65 50.56L239.26 51.94L242.01 39.75L232.85 25.43L244.93 31.07L249.65 21.04Z" fill="#E8A200"/>
<path d="M227.21 28.6702L232.85 25.4302L241.56 29.4902C241.56 29.4902 241.56 35.3402 241.56 35.4902C240.291 35.6737 239.012 35.7773 237.73 35.8002C237.48 35.8002 227.21 28.6702 227.21 28.6702Z" fill="#D3008D"/>
<path d="M260 63.9299L254.36 67.1699L251.64 51.7999C251.64 51.7999 254.37 48.9199 254.36 48.9199L257.43 49.4399L260 63.9299Z" fill="#D3008D"/>
<path d="M244.01 24.27L248.73 39.75L260.81 48.07L251.64 51.8L254.39 67.16L244.01 53.8L233.63 55.17L236.37 42.98L227.21 28.67L239.29 34.3L244.01 24.27Z" fill="#FF2C9C"/>
<path d="M254.39 67.16L251.64 51.8L260.8 48.06L248.72 39.75L244 24.27L239.28 34.27L227.2 28.63L228.04 29.95L239.68 35.38L243.83 26.56L248 40.27L259 47.87L250.64 51.28L253.23 65.74L254.39 67.16Z" fill="white"/>
<path d="M244.01 24.27L249.65 21.04L254.36 36.52L248.73 39.75L244.01 24.27Z" fill="#D3008D"/>
<path d="M266.44 44.83L260.81 48.07L248.73 39.75L254.36 36.52L266.44 44.83Z" fill="#D3008D"/>
<path d="M249.01 40.1401L248.15 39.6501L254.24 36.1001L254.36 36.5201L254.76 36.7901L249.01 40.1401Z" fill="white"/>
<path d="M288.15 43.0801L292.87 58.5601L304.94 66.8701L295.78 70.6001L298.53 85.9701L288.15 72.6001L277.76 73.9801L280.51 61.7901L271.35 47.4701L283.43 53.1101L288.15 43.0801Z" fill="#E8A200"/>
<path d="M265.71 50.7102L271.35 47.4702L280.06 51.5302C280.06 51.5302 280.06 57.3802 280.06 57.5302C278.791 57.7138 277.512 57.8174 276.23 57.8402C276 57.8402 265.71 50.7102 265.71 50.7102Z" fill="#D3008D"/>
<path d="M298.53 86L292.89 89.24L290.14 73.88C290.14 73.88 292.88 71 292.87 71L295.94 71.52L298.53 86Z" fill="#D3008D"/>
<path d="M282.51 46.3101L287.23 61.7901L299.31 70.1001L290.14 73.8401L292.89 89.2001L282.51 75.8401L272.13 77.2101L274.87 65.0201L265.71 50.7101L277.79 56.3401L282.51 46.3101Z" fill="#FF2C9C"/>
<path d="M292.89 89.2001L290.14 73.8401L299.3 70.1001L287.22 61.7901L282.5 46.3101L277.78 56.3101L265.7 50.6701L266.54 51.9801L278.18 57.4101L282.33 48.5901L286.5 62.2701L297.5 69.8701L289.14 73.2801L291.73 87.7401L292.89 89.2001Z" fill="white"/>
<path d="M282.51 46.3101L288.15 43.0801L292.87 58.5601L287.23 61.7901L282.51 46.3101Z" fill="#D3008D"/>
<path d="M304.94 66.8701L299.31 70.1001L287.23 61.7901L292.87 58.5601L304.94 66.8701Z" fill="#D3008D"/>
<path d="M287.51 62.1801L286.65 61.6901L292.74 58.1401L292.87 58.5601L293.27 58.8301L287.51 62.1801Z" fill="white"/>
<path d="M326.65 65.1201L331.37 80.5901L343.45 88.9101L334.28 92.6401L337.03 108L326.65 94.6401L316.27 96.0201L319.01 83.8301L309.85 69.5101L321.93 75.1401L326.65 65.1201Z" fill="#E8A200"/>
<path d="M304.21 72.7498L309.85 69.5098L318.56 73.5698C318.56 73.5698 318.56 79.4198 318.56 79.5698C317.291 79.7534 316.012 79.8569 314.73 79.8798C314.48 79.8798 304.21 72.7498 304.21 72.7498Z" fill="#D3008D"/>
<path d="M337 108L331.36 111.24L328.61 95.88C328.61 95.88 331.38 93 331.37 93L334.44 93.52L337 108Z" fill="#D3008D"/>
<path d="M321.01 68.3501L325.73 83.8301L337.81 92.1401L328.65 95.8801L331.39 111.24L321.01 97.8801L310.63 99.2501L313.38 87.0601L304.21 72.7501L316.29 78.3801L321.01 68.3501Z" fill="#FF2C9C"/>
<path d="M331.39 111.24L328.64 95.8801L337.8 92.1401L325.72 83.8301L321 68.3501L316.28 78.3501L304.2 72.7101L305.04 74.0201L316.68 79.4501L320.83 70.6301L325 84.3501L336 91.9501L327.64 95.3601L330.23 109.82L331.39 111.24Z" fill="white"/>
<path d="M321.01 68.3501L326.65 65.1201L331.37 80.5901L325.73 83.8301L321.01 68.3501Z" fill="#D3008D"/>
<path d="M343.45 88.9099L337.81 92.1398L325.73 83.8298L331.37 80.5898L343.45 88.9099Z" fill="#D3008D"/>
<path d="M326.01 84.2202L325.15 83.7202L331.24 80.1802L331.37 80.5902L331.77 80.8702L326.01 84.2202Z" fill="white"/>
<path d="M365.15 87.1499L369.87 102.63L381.95 110.95L372.79 114.68L375.53 130.04L365.15 116.68L354.77 118.06L357.51 105.86L348.35 91.5499L360.43 97.1799L365.15 87.1499Z" fill="#E8A200"/>
<path d="M342.71 94.78L348.35 91.54L357.06 95.6C357.06 95.6 357.06 101.45 357.06 101.6C355.791 101.784 354.512 101.887 353.23 101.91C353 101.92 342.71 94.78 342.71 94.78Z" fill="#D3008D"/>
<path d="M375.53 130L369.89 133.24L367.14 117.88C367.14 117.88 369.87 115 369.86 115L372.93 115.52L375.53 130Z" fill="#D3008D"/>
<path d="M359.51 90.3901L364.23 105.87L376.31 114.18L367.15 117.92L369.89 133.28L359.51 119.91L349.13 121.29L351.88 109.1L342.71 94.7801L354.79 100.42L359.51 90.3901Z" fill="#FF2C9C"/>
<path d="M369.89 133.28L367.14 117.92L376.3 114.18L364.22 105.87L359.5 90.3901L354.78 100.39L342.7 94.7501L343.54 96.0701L355.18 101.5L359.33 92.6801L363.5 106.36L374.5 113.96L366.14 117.37L368.73 131.83L369.89 133.28Z" fill="white"/>
<path d="M359.51 90.3899L365.15 87.1499L369.87 102.63L364.23 105.87L359.51 90.3899Z" fill="#D3008D"/>
<path d="M381.95 110.95L376.31 114.18L364.23 105.87L369.87 102.63L381.95 110.95Z" fill="#D3008D"/>
<path d="M364.51 106.26L363.65 105.76L369.74 102.22L369.87 102.63L370.27 102.91L364.51 106.26Z" fill="white"/>
<path d="M265.61 193.72L327.59 157.93L323.63 155.65L261.65 191.44L265.61 193.72Z" fill="#D4ECFF"/>
<path d="M308.74 183.29L340.12 165.17L336.16 162.88L304.78 181L308.74 183.29Z" fill="#D4ECFF"/>
<path d="M293.5 192.08L303.68 186.2L299.73 183.92L289.55 189.79L293.5 192.08Z" fill="#FF2C9C"/>
<path d="M278.14 200.95L288.32 195.07L284.36 192.79L274.18 198.67L278.14 200.95Z" fill="white"/>
<path d="M308.38 176.25L333.86 161.55L329.9 159.26L304.43 173.97L308.38 176.25Z" fill="white"/>
<path d="M277.29 194.21L302.76 179.5L298.81 177.22L273.34 191.92L277.29 194.21Z" fill="#D1EFFF"/>
<path d="M296.15 162.77C296.866 163.133 297.657 163.323 298.46 163.323C299.263 163.323 300.054 163.133 300.77 162.77C302.04 162.03 302.04 160.84 300.77 160.11C300.054 159.746 299.263 159.557 298.46 159.557C297.657 159.557 296.866 159.746 296.15 160.11C294.87 160.84 294.87 162 296.15 162.77Z" fill="#FF2C9C"/>
<path d="M289.25 166.75C289.966 167.113 290.757 167.303 291.56 167.303C292.363 167.303 293.154 167.113 293.87 166.75C295.14 166.01 295.14 164.82 293.87 164.09C293.154 163.726 292.363 163.537 291.56 163.537C290.757 163.537 289.966 163.726 289.25 164.09C288 164.82 288 166 289.25 166.75Z" fill="white"/>
<path d="M282.36 170.73C283.076 171.094 283.867 171.283 284.67 171.283C285.473 171.283 286.264 171.094 286.98 170.73C288.25 169.99 288.25 168.8 286.98 168.07C286.264 167.707 285.473 167.517 284.67 167.517C283.867 167.517 283.076 167.707 282.36 168.07C281.08 168.81 281.08 170 282.36 170.73Z" fill="#D1EFFF"/>
<path d="M275.46 174.72C276.176 175.084 276.967 175.273 277.77 175.273C278.573 175.273 279.364 175.084 280.08 174.72C281.35 173.98 281.35 172.79 280.08 172.06C279.364 171.696 278.573 171.507 277.77 171.507C276.967 171.507 276.176 171.696 275.46 172.06C274.18 172.79 274.18 174 275.46 174.72Z" fill="#FF2C9C"/>
<path d="M268.56 178.7C269.276 179.064 270.067 179.253 270.87 179.253C271.673 179.253 272.464 179.064 273.18 178.7C274.45 177.96 274.45 176.77 273.18 176.04C272.464 175.676 271.673 175.487 270.87 175.487C270.067 175.487 269.276 175.676 268.56 176.04C267.29 176.77 267.29 178 268.56 178.7Z" fill="white"/>
<g opacity="0.3">
<g opacity="0.3">
<path opacity="0.3" d="M260.69 116.06L198.57 80.1998C198.106 79.8747 197.565 79.6791 197 79.6334C196.436 79.5877 195.87 79.6935 195.36 79.9398L189.36 83.4198L193.59 84.9698V130.21C193.59 133.89 195.83 138.21 198.59 139.76L257.95 174V179.31L264 175.8C265 175.17 265.69 173.8 265.69 171.8V125.62C265.69 121.93 263.45 117.66 260.69 116.06Z" fill="#D3008D"/>
<path opacity="0.3" d="M254.56 179.12L192.44 143.25C189.68 141.66 187.44 137.38 187.44 133.7V87.5097C187.44 83.8297 189.68 82.1397 192.44 83.7297L254.56 119.6C257.32 121.19 259.56 125.47 259.56 129.15V175.34C259.56 179 257.32 180.72 254.56 179.12Z" fill="#FF2C9C"/>
<path opacity="0.3" d="M256.08 118.89L194 82.9998C192.49 82.1298 191.15 82.2698 190.23 83.1498C191.02 83.0927 191.809 83.2888 192.48 83.7098L254.6 119.58C257.36 121.17 259.6 125.45 259.6 129.13V175.32C259.647 175.975 259.562 176.632 259.351 177.254C259.14 177.876 258.806 178.449 258.37 178.94C260 178.78 261.12 177.2 261.12 174.61V128.44C261.08 124.76 258.84 120.48 256.08 118.89Z" fill="white"/>
<path opacity="0.3" d="M213.33 127.34C213.33 130.01 211.45 131.1 209.14 129.76C207.92 128.964 206.904 127.893 206.176 126.631C205.448 125.37 205.028 123.954 204.95 122.5C204.95 119.83 206.83 118.74 209.14 120.08C210.36 120.875 211.375 121.947 212.103 123.209C212.832 124.47 213.252 125.885 213.33 127.34Z" fill="white"/>
<path opacity="0.3" d="M226 134.67C226 137.34 224.12 138.43 221.81 137.09C220.59 136.295 219.574 135.223 218.846 133.961C218.118 132.7 217.698 131.284 217.62 129.83C217.62 127.16 219.5 126.07 221.81 127.41C223.03 128.205 224.045 129.277 224.773 130.539C225.501 131.8 225.922 133.215 226 134.67Z" fill="white"/>
<path opacity="0.3" d="M238.72 142C238.72 144.67 236.84 145.76 234.53 144.42C233.31 143.625 232.294 142.553 231.566 141.291C230.838 140.03 230.418 138.614 230.34 137.16C230.34 134.49 232.22 133.4 234.53 134.74C235.75 135.535 236.765 136.607 237.493 137.869C238.221 139.13 238.642 140.546 238.72 142Z" fill="white"/>
</g>
</g>
<path d="M260.69 116.06L198.57 80.1998C198.106 79.8747 197.565 79.6791 197 79.6334C196.436 79.5877 195.87 79.6935 195.36 79.9398L189.36 83.4198L193.59 84.9698V130.21C193.59 133.89 195.83 138.21 198.59 139.76L257.95 174V179.31L264 175.8C265 175.17 265.69 173.8 265.69 171.8V125.62C265.69 121.93 263.45 117.66 260.69 116.06Z" fill="#D3008D"/>
<path d="M254.56 179.12L192.44 143.25C189.68 141.66 187.44 137.38 187.44 133.7V87.5097C187.44 83.8297 189.68 82.1397 192.44 83.7297L254.56 119.6C257.32 121.19 259.56 125.47 259.56 129.15V175.34C259.56 179 257.32 180.72 254.56 179.12Z" fill="#FF2C9C"/>
<path d="M256.08 118.89L194 82.9998C192.49 82.1298 191.15 82.2698 190.23 83.1498C191.02 83.0927 191.809 83.2888 192.48 83.7098L254.6 119.58C257.36 121.17 259.6 125.45 259.6 129.13V175.32C259.647 175.975 259.562 176.632 259.351 177.254C259.14 177.876 258.806 178.449 258.37 178.94C260 178.78 261.12 177.2 261.12 174.61V128.44C261.08 124.76 258.84 120.48 256.08 118.89Z" fill="white"/>
<path d="M213.33 127.34C213.33 130.01 211.45 131.1 209.14 129.76C207.92 128.964 206.904 127.893 206.176 126.631C205.448 125.37 205.028 123.954 204.95 122.5C204.95 119.83 206.83 118.74 209.14 120.08C210.36 120.875 211.375 121.947 212.103 123.209C212.832 124.47 213.252 125.885 213.33 127.34Z" fill="white"/>
<path d="M226 134.67C226 137.34 224.12 138.43 221.81 137.09C220.59 136.295 219.574 135.223 218.846 133.961C218.118 132.7 217.698 131.284 217.62 129.83C217.62 127.16 219.5 126.07 221.81 127.41C223.03 128.205 224.045 129.277 224.773 130.539C225.501 131.8 225.922 133.215 226 134.67Z" fill="white"/>
<path d="M238.72 142C238.72 144.67 236.84 145.76 234.53 144.42C233.31 143.625 232.294 142.553 231.566 141.291C230.838 140.03 230.418 138.614 230.34 137.16C230.34 134.49 232.22 133.4 234.53 134.74C235.75 135.535 236.765 136.607 237.493 137.869C238.221 139.13 238.642 140.546 238.72 142Z" fill="white"/>
<path d="M132.32 103.12L142.76 97.09L138.7 94.75L128.26 100.78L132.32 103.12Z" fill="#FF2C9C"/>
<path d="M117.79 111.51L128.22 105.48L124.17 103.14L113.73 109.17L117.79 111.51Z" fill="white"/>
<path d="M178.94 75.9498L189.37 69.9298L185.31 67.5898L174.88 73.6098L178.94 75.9498Z" fill="white"/>
<path d="M134.65 109.19L149.18 100.8L145.12 98.46L130.59 106.85L134.65 109.19Z" fill="white"/>
<path d="M124.21 115.22L130.59 111.54L126.53 109.19L120.16 112.88L124.21 115.22Z" fill="#D4ECFF"/>
<path d="M232.07 295.13C221.21 301.4 203.61 301.4 192.75 295.13C181.89 288.86 181.89 278.7 192.75 272.43C203.61 266.16 221.21 266.16 232.07 272.43C242.93 278.7 242.93 288.86 232.07 295.13Z" fill="#D5DAE0"/>
<path d="M245 266.38V257.24H243.28C241.358 254.167 238.665 251.651 235.47 249.94C222.76 242.6 202.16 242.6 189.47 249.94C186.275 251.651 183.582 254.167 181.66 257.24H179.94V266.33C179.94 271.15 183.09 275.98 189.47 279.66C202.18 287 222.78 287 235.47 279.66C241.78 276 245 271.19 245 266.38Z" fill="#FF2C9C"/>
<path d="M235.42 270.53C222.71 277.87 202.11 277.87 189.42 270.53C176.73 263.19 176.71 251.3 189.42 243.96C202.13 236.62 222.73 236.62 235.42 243.96C248.11 251.3 248.13 263.19 235.42 270.53Z" fill="#FF2C9C"/>
<path d="M235.42 270.53C222.71 277.87 202.11 277.87 189.42 270.53C183.33 267.01 180.19 262.45 179.94 257.84C179.67 262.84 182.8 267.9 189.42 271.72C202.13 279.06 222.73 279.06 235.42 271.72C242.04 267.9 245.18 262.84 244.9 257.84C244.65 262.45 241.51 267 235.42 270.53Z" fill="white"/>
<path d="M196.73 263.46C196.493 263.355 196.288 263.188 196.137 262.977C195.986 262.766 195.894 262.518 195.87 262.26V250.02C195.87 249.09 197.19 248.33 198.8 248.33C200.41 248.33 201.72 249.09 201.72 250.02V260.17L231.18 256.56C232.76 256.37 234.32 256.95 234.65 257.86C234.98 258.77 233.97 259.67 232.39 259.86L199.39 263.86C198.558 263.97 197.711 263.853 196.94 263.52L196.73 263.46Z" fill="white"/>
<path d="M107.14 244.92L140.2 225.83C146.25 222.34 145.49 216.23 138.51 212.2C131.51 208.2 120.95 207.73 114.9 211.2L81.84 230.31C75.79 233.8 76.55 239.91 83.53 243.94C90.52 248 101.09 248.41 107.14 244.92Z" fill="#D5DAE0"/>
<path d="M118.52 194.74V188.34L126.09 150.2L118.61 145.58L103.61 153.85L103.54 203C103.54 206.31 104.77 208.55 106.68 209.27L113.34 213.46L114.18 210.29L115.32 204.52C117.301 201.634 118.411 198.239 118.52 194.74Z" fill="#0D477C"/>
<path d="M118.49 213.33C114.35 215.61 111.01 213.06 111.02 207.63L111.13 158.47L126.13 150.2L126 199.36C126 204.79 122.63 211 118.49 213.33Z" fill="#3BB9FF"/>
<path d="M158.93 123.72C158.93 136.2 150.17 141.26 139.36 135.02C128.55 128.78 119.79 113.61 119.79 101.13C119.79 88.6502 128.55 83.5902 139.36 89.8302C150.17 96.0702 158.93 111.24 158.93 123.72Z" fill="#FF2C9C"/>
<path d="M153.39 136.27L96.44 168.93L65.83 122.94L125.16 88.6802L153.39 136.27Z" fill="#FF2C9C"/>
<path d="M131 140.39C131 127.56 122 111.95 110.87 105.53C105.82 102.61 101.21 102.1 97.67 103.61H97.6H97.51L97.05 103.83C76.0318 114.16 52.7716 119.091 29.37 118.18L22.73 118L76.73 210.51L79.65 204.86C90.3098 184.261 105.887 166.609 125 153.47C128.7 151.39 131 146.86 131 140.39Z" fill="#D1EFFF"/>
<path d="M83 189.6C83 165 65.73 135 44.41 122.74C33.7701 116.6 24.14 116 17.16 120H17.11L10.78 123.71L13 123.3C8.45005 128 5.80005 135.39 5.80005 145C5.80005 169.62 23.08 199.56 44.41 211.87C52.78 216.7 60.5201 218.1 66.85 216.53L65.85 218.01L71.68 214.6L71.77 214.55L71.98 214.43C78.8 210.34 83 201.76 83 189.6Z" fill="#D4ECFF"/>
<path d="M78.49 192.24C78.49 167.62 61.2101 137.68 39.8801 125.37C29.3901 119.31 19.88 118.66 12.88 122.48L12 123C11.67 123.21 11.35 123.43 11 123.66L13 123.25C8.45005 128 5.80005 135.39 5.80005 145C5.80005 169.62 23.08 199.56 44.41 211.87C52.78 216.7 60.5201 218.1 66.85 216.53L65.9401 217.88C73.6501 214.2 78.49 205.27 78.49 192.24Z" fill="white"/>
<path d="M77.21 193C77.21 217.62 59.93 227.6 38.6 215.29C17.27 202.98 0 173 0 148.41C0 123.82 17.28 113.81 38.61 126.12C59.94 138.43 77.21 168.37 77.21 193Z" fill="#3BB9FF"/>
<path d="M72.48 190.26C72.48 211.86 57.32 220.62 38.61 209.81C19.9 199 4.72998 172.75 4.72998 151.15C4.72998 129.55 19.89 120.79 38.6 131.6C57.31 142.41 72.48 168.66 72.48 190.26Z" fill="#0D477C"/>
<path d="M40.19 209.14C21.48 198.34 6.31998 172.07 6.31998 150.47C6.31998 139.13 10.5 131.33 17.18 128.04C9.57998 130.83 4.72998 138.93 4.72998 151.15C4.72998 172.75 19.89 199.02 38.6 209.82C47.48 214.95 55.6 215.66 61.6 212.69C55.78 214.83 48.32 213.83 40.19 209.14Z" fill="white"/>
<path d="M33.5399 162.61L82.6799 124.61L100.53 155.57L42.8399 179.24L33.5399 162.61Z" fill="#D1EFFF"/>
<path d="M45.37 174.61C45.37 178.92 42.37 180.67 38.61 178.52C36.6438 177.233 35.0077 175.501 33.8335 173.465C32.6593 171.43 31.9799 169.146 31.85 166.8C31.85 162.49 34.85 160.74 38.61 162.89C40.5761 164.177 42.2122 165.909 43.3864 167.944C44.5606 169.98 45.2401 172.263 45.37 174.61Z" fill="#3BB9FF"/>
<path d="M107.41 195.16L107.14 195.01C106.597 194.624 106.153 194.117 105.842 193.528C105.531 192.939 105.363 192.286 105.35 191.62V182.14C105.35 180.83 106.14 180.23 107.12 180.79L107.39 180.94C107.932 181.326 108.377 181.834 108.688 182.422C108.999 183.011 109.167 183.665 109.18 184.33V193.81C109.18 195.12 108.39 195.73 107.41 195.16Z" fill="#FF2C9C"/>
<path d="M344.31 294.18L325.56 283.35L344.31 272.53L363.06 283.35L344.31 294.18Z" fill="#D5DAE0"/>
<path d="M363.06 271.07L344.31 281.9V260.25L363.06 249.42V271.07Z" fill="#0D477C"/>
<path d="M344.31 260.25L325.56 249.42L344.31 238.6L363.06 249.43L344.31 260.25Z" fill="#D1EFFF"/>
<path d="M344.31 281.9L325.56 271.07V249.42L344.31 260.25V281.9Z" fill="#3BB9FF"/>
</g>
<defs>
<clipPath id="clip0">
<rect width="386.05" height="300.83" fill="white"/>
</clipPath>
</defs>
</svg>
