<svg width="338" height="244" viewBox="0 0 338 244" fill="none" xmlns="http://www.w3.org/2000/svg">
<g clip-path="url(#clip0)">
<path d="M273.497 9.12205C272.736 9.56966 272.021 10.0922 271.363 10.6819C271.064 1.11059 264.151 -2.69548 255.64 2.20873C248.714 6.21446 242.837 14.775 240.728 23.1733C238.661 22.998 236.595 23.5113 234.851 24.6333C228.611 28.2148 223.62 36.925 223.62 44.0879C223.62 51.2508 228.611 54.1584 234.851 50.577L273.535 28.2772C275.95 26.704 277.96 24.5835 279.401 22.0879C280.843 19.5923 281.676 16.7919 281.833 13.9139C281.796 8.61041 278.077 6.47652 273.497 9.12205Z" fill="#D1EFFF"/>
<path d="M267.507 84.707C267.179 84.7115 266.856 84.6309 266.568 84.473C266.281 84.3152 266.039 84.0856 265.867 83.8065C265.695 83.5274 265.598 83.2084 265.586 82.8807C265.574 82.553 265.647 82.2277 265.798 81.9366C267.544 78.4414 270.221 75.4963 273.535 73.426C275.169 72.4073 277.062 71.8829 278.988 71.9161C281.384 72.0783 284.466 70.2065 287.124 67.0119C288.497 65.3095 290.162 63.8645 292.041 62.7441C293.675 61.7254 295.568 61.201 297.494 61.2341C299.99 61.3464 302.972 59.5245 305.63 56.3299C307.007 54.631 308.671 53.1866 310.547 52.0621C312.181 51.0434 314.074 50.519 316 50.5522C318.383 50.7019 321.478 48.8426 324.123 45.648C325.497 43.9462 327.162 42.5013 329.04 41.3802C330.171 40.6144 331.467 40.1269 332.823 39.9578C334.178 39.7886 335.555 39.9425 336.839 40.4068C337.085 40.4932 337.311 40.6293 337.502 40.8068C337.693 40.9842 337.845 41.1992 337.95 41.4382C338.054 41.6771 338.108 41.9351 338.108 42.1958C338.108 42.4565 338.054 42.7145 337.95 42.9536C337.846 43.1927 337.694 43.4077 337.503 43.5853C337.312 43.7629 337.087 43.8992 336.841 43.9858C336.595 44.0724 336.334 44.1073 336.074 44.0884C335.814 44.0695 335.56 43.9972 335.329 43.876C334.587 43.6631 333.805 43.6222 333.044 43.7562C332.283 43.8903 331.562 44.1958 330.937 44.6497C329.451 45.5508 328.134 46.7035 327.043 48.0564C323.587 52.2244 319.456 54.483 315.813 54.2959C314.616 54.3027 313.446 54.6536 312.443 55.3067C310.957 56.2063 309.639 57.3593 308.55 58.7134C305.081 62.8813 301.063 65.165 297.319 64.9528C296.122 64.9597 294.953 65.3105 293.95 65.9636C292.464 66.8647 291.147 68.0175 290.056 69.3704C286.6 73.5383 282.469 75.8095 278.826 75.6098C277.63 75.6222 276.461 75.9726 275.456 76.6206C272.781 78.3351 270.624 80.7469 269.217 83.5963C269.067 83.925 268.827 84.2041 268.524 84.4009C268.221 84.5976 267.868 84.7038 267.507 84.707Z" fill="#D1EFFF"/>
<path d="M7.2876 24.9579C7.20851 26.21 6.83784 27.4262 6.20518 28.5095C5.57252 29.5928 4.6954 30.5133 3.6438 31.1974C1.63472 32.4453 0 31.4594 0 29.1384C0.0676202 27.8734 0.432866 26.6422 1.06603 25.545C1.69919 24.4478 2.5824 23.5155 3.6438 22.824C5.65288 21.6635 7.2876 22.6119 7.2876 24.9579Z" fill="#D1EFFF"/>
<path d="M17.3329 19.1304C17.2676 20.3899 16.9071 21.6164 16.2807 22.711C15.6543 23.8057 14.7794 24.7378 13.7266 25.4322C11.7175 26.5927 10.0828 25.6568 10.0828 23.3233C10.1523 22.0604 10.5185 20.8318 11.1515 19.7369C11.7846 18.642 12.6668 17.7117 13.7266 17.0214C15.6982 15.8609 17.3329 16.8093 17.3329 19.1304Z" fill="#D1EFFF"/>
<path d="M7.2876 13.3276C7.21998 14.5925 6.85474 15.8237 6.22157 16.9209C5.58841 18.0181 4.70521 18.9504 3.6438 19.6419C1.63472 20.8024 0 19.854 0 17.4706C0.0790964 16.2185 0.449765 15.0023 1.08242 13.919C1.71508 12.8356 2.59221 11.9152 3.6438 11.2311C5.65288 10.0581 7.2876 11.0065 7.2876 13.3276Z" fill="#D1EFFF"/>
<path d="M17.3329 7.48739C17.2753 8.75551 16.9185 9.99201 16.2917 11.0959C15.665 12.1998 14.786 13.1398 13.7266 13.8392C11.7175 14.9997 10.0828 14.0638 10.0828 11.7302C10.1504 10.4652 10.5156 9.23406 11.1488 8.13685C11.782 7.03965 12.6652 6.10738 13.7266 5.41589C15.6982 4.25535 17.3329 5.20375 17.3329 7.48739Z" fill="#D1EFFF"/>
<path d="M179.794 159.231L178.646 158.857C167.575 155.127 156.046 152.927 144.379 152.318L142.208 152.168L146.151 118.275L148.11 118.388C168.501 119.467 188.651 123.308 208.009 129.806L211.365 130.954L179.794 159.231ZM146.85 148.337C157.697 149.224 168.412 151.317 178.796 154.577L203.229 132.664C185.904 127.17 167.972 123.817 149.833 122.68L146.85 148.337Z" fill="#D5DAE0"/>
<path d="M144.529 134.685L147.998 104.91C168.178 106.003 188.119 109.806 207.285 116.216L179.295 141.311C168.019 137.696 156.344 135.471 144.529 134.685Z" fill="#396CAA"/>
<path d="M144.529 64.0791L178.609 65.6015L179.295 70.7054V133.824L152.79 123.791L144.529 127.197V64.0791Z" fill="url(#paint0_radial)"/>
<path d="M207.297 45.6104V108.729L179.295 133.824V70.7054L207.297 45.6104Z" fill="#0D477C"/>
<path d="M144.529 71.5666L147.998 41.7919C168.413 43.0398 186.42 37.1997 207.285 44.3626L179.295 78.1929C168.019 74.5783 156.344 72.3531 144.529 71.5666Z" fill="#D4ECFF"/>
<path d="M70.3054 158.332L29.5747 134.772L32.8691 133C61.3706 117.713 98.5823 109.665 137.479 110.338H139.775L135.831 144.231H133.972C110.724 144.069 88.5244 148.898 71.3412 157.783L70.3054 158.332ZM38.1726 134.959L70.4302 153.59C87.5885 144.98 109.376 140.213 132.113 140.101L135.095 114.481C99.1938 114.12 65.0269 121.395 38.1726 134.959Z" fill="#D5DAE0"/>
<path d="M133.972 126.786C111.236 126.648 88.4371 131.241 70.3305 140.512L33.8425 119.473C62.9181 103.849 100.342 96.3621 137.416 97.011L133.972 126.786Z" fill="#396CAA"/>
<path d="M133.972 126.786V104.998L137.441 75.2354V97.0235L133.972 126.786Z" fill="#396CAA"/>
<path d="M33.8425 97.6851V119.473L70.3679 140.563V118.774L33.8425 97.6851Z" fill="#173D7A"/>
<path d="M133.972 104.998C111.236 104.86 88.4371 109.44 70.3305 118.724L33.8425 97.6849C62.9181 82.0613 100.342 74.574 137.416 75.2229L133.972 104.998Z" fill="url(#paint1_radial)"/>
<path d="M255.815 244L209.169 225.282L211.553 223.048C221.336 213.863 225.866 203.406 224.618 192.712C223.183 180.233 213.861 168.503 198.35 159.555C194.81 157.528 191.146 155.723 187.381 154.152L184.349 152.904L215.745 124.789L216.993 125.276C223.865 128.023 230.536 131.246 236.959 134.922C262.741 149.809 278.139 169.676 280.348 190.865C282.257 209.296 273.897 227.877 256.788 243.189L255.815 244ZM216.694 223.797L254.954 239.171C270.615 224.758 277.952 208.211 276.168 191.239C274.109 171.41 259.434 152.667 234.838 138.466C228.952 135.096 222.849 132.12 216.569 129.556L191.998 151.619C194.956 152.966 197.789 154.426 200.434 155.949C217.118 165.583 227.176 178.411 228.761 192.238C230.046 203.406 225.866 214.238 216.694 223.797Z" fill="#D5DAE0"/>
<path d="M212.975 209.446C235.3 188.531 230.795 160.778 199.398 142.646C195.774 140.57 192.023 138.724 188.167 137.118L216.17 112.061C222.943 114.772 229.519 117.953 235.849 121.582C285.215 150.084 291.691 193.96 255.341 226.505L212.975 209.446Z" fill="#D3008D"/>
<path d="M188.205 98.3463V137.131L212.975 146.34C212.975 146.34 245.145 128.782 245.145 128.371C245.145 127.959 239.717 90.7716 235.749 89.0995C231.781 87.4273 188.205 98.3463 188.205 98.3463Z" fill="#D3008D"/>
<path d="M212.975 209.446V170.662L255.39 187.708V226.492L212.975 209.446Z" fill="url(#paint2_radial)"/>
<path d="M255.391 163.386V226.492C255.391 226.492 277.528 207.774 278.526 183.065V142.546L252.758 138.803L255.391 163.386Z" fill="#D3008D"/>
<path d="M212.975 170.662C235.3 149.747 230.795 121.994 199.398 103.862C195.774 101.786 192.023 99.9398 188.167 98.3338L216.132 73.2637C222.919 75.9775 229.507 79.1632 235.849 82.7976C285.215 111.299 291.691 155.175 255.341 187.72L212.975 170.662Z" fill="url(#paint3_radial)"/>
<path d="M74.2986 11.955L66.0002 7.16312C59.6735 3.5068 53.746 2.87038 49.2911 5.17898L40.9678 9.84609L44.3121 9.98335C43.4843 11.3669 42.8503 12.8574 42.4278 14.4134C47.7063 14.638 53.0098 15.6613 55.256 19.3176C55.763 18.8746 56.3355 18.5126 56.9531 18.2444L66.1749 28.8515L74.2362 24.3091V11.955H74.2986Z" fill="#FDD762"/>
<path d="M76.0208 73.7879C68.7457 69.5825 62.082 60.8099 59.0372 51.4257L53.6588 34.704C51.6747 28.5893 51.9991 23.2733 54.5573 20.1411C54.8017 19.8501 55.0688 19.5789 55.3559 19.33C53.0973 15.7236 47.8687 14.6504 42.5278 14.4258C41.0677 19.8291 41.517 26.7924 43.9379 34.2672L48.3678 47.9067L46.7581 49.9158C46.7581 49.9158 57.078 75.9343 57.5896 76.2837C58.1013 76.6331 62.7059 77.4567 65.8007 78.0557C68.8383 81.1768 72.2747 83.8831 76.0208 86.1046L101.69 100.967V110.164L109.813 105.622V93.2675L76.0208 73.7879Z" fill="#E8A200"/>
<path d="M67.9595 78.3426C60.6843 74.1372 54.0207 65.3645 50.9759 55.9804L45.5476 39.2462C43.5635 33.1315 43.8879 27.8155 46.4461 24.6833C49.0042 21.5511 53.1846 21.314 57.9265 24.0594L66.2249 28.8513V16.4971L57.939 11.7052C49.5907 6.88839 41.9287 7.31267 37.4364 12.8159C32.944 18.3191 32.345 28.0401 35.8266 38.7969L41.2549 55.5311C46.0467 70.2937 56.5289 84.0954 67.9595 90.6967L101.652 110.176V97.8222L67.9595 78.3426Z" fill="#F9BF30"/>
<path d="M177.673 187.296L165.194 187.371C164.283 186.747 163.335 186.123 162.324 185.561C141.834 173.731 108.665 173.731 88.1126 185.561C86.8314 186.302 85.6293 187.071 84.5062 187.87L72.7512 187.945V206.988C72.7512 214.737 77.88 222.499 88.1251 228.414C108.615 240.244 141.784 240.244 162.336 228.414C172.581 222.499 177.71 214.687 177.71 206.988L177.673 187.296Z" fill="#396CAA"/>
<path d="M123.44 176.727C110.599 176.976 97.8835 179.921 88.0877 185.574C86.8065 186.315 85.6044 187.084 84.4813 187.883L72.7263 187.958V207C72.7263 214.75 77.8551 222.512 88.1002 228.427C97.896 234.08 110.562 237.025 123.453 237.274L123.44 176.727Z" fill="url(#paint4_radial)"/>
<path d="M79.939 187.907H72.7263V206.95C72.7263 212.254 75.1347 217.57 79.939 222.287V187.907Z" fill="#D4ECFF"/>
<path d="M162.299 208.722C141.809 220.552 108.64 220.552 88.0875 208.722C67.535 196.892 67.5974 177.712 88.0875 165.882C108.578 154.052 141.746 154.052 162.299 165.882C182.851 177.712 182.789 196.892 162.299 208.722Z" fill="#D4ECFF"/>
<path d="M162.299 208.722C141.809 220.552 108.64 220.552 88.0876 208.722C78.3542 203.107 73.2504 195.832 72.7637 188.469C72.2271 196.605 77.3185 204.854 88.0876 211.069C108.578 222.899 141.746 222.899 162.299 211.069C173.056 204.829 178.159 196.618 177.623 188.482C177.124 195.832 172.032 203.107 162.299 208.722Z" fill="white"/>
<path d="M154.2 179.047C153.539 178.598 152.853 178.161 152.116 177.737C137.254 169.151 113.145 169.151 98.2704 177.737C97.3387 178.278 96.4651 178.835 95.6499 179.409H92.3555V197.167C94.1333 198.882 96.1207 200.366 98.2704 201.584C113.133 210.17 137.242 210.17 152.116 201.584C159.604 197.291 163.272 191.663 163.272 186.035V179.01L154.2 179.047Z" fill="#396CAA"/>
<path d="M98.2704 177.725C97.3387 178.265 96.4651 178.823 95.6499 179.397H92.3555V197.167C94.1333 198.882 96.1207 200.367 98.2704 201.584C105.383 205.69 114.605 207.824 123.914 208.011V171.311C114.605 171.485 105.383 173.619 98.2704 177.725Z" fill="url(#paint5_radial)"/>
<path d="M92.3429 179.422H87.1143V185.973C87.182 188.096 87.6803 190.183 88.5791 192.107C89.478 194.031 90.7584 195.753 92.3429 197.167V179.422Z" fill="#5793CE"/>
<path d="M152.116 194.534C137.254 203.119 113.145 203.119 98.2702 194.534C83.3955 185.948 83.408 172.072 98.2702 163.449C113.132 154.826 137.241 154.863 152.116 163.449C166.991 172.034 166.978 185.936 152.116 194.534Z" fill="#5793CE"/>
<path d="M104.822 161.053C116.053 167.554 134.334 167.554 145.602 161.053C156.871 154.551 156.833 144.006 145.602 137.505C134.371 131.003 116.053 131.028 104.822 137.505C93.5907 143.982 93.5907 154.551 104.822 161.053Z" fill="white"/>
<path d="M91.5192 165.969C97.5964 161.465 96.4234 157.047 96.4234 157.047L101.078 162.55C115.054 155.812 135.457 155.812 149.433 162.55L154.025 156.997C154.025 156.997 152.852 161.402 158.93 165.919C165.007 170.437 163.023 179.284 163.023 179.284C163.023 184.862 159.341 190.453 151.966 194.708C137.216 203.219 113.282 203.219 98.5573 194.708C91.1823 190.453 87.5011 184.875 87.5011 179.297C87.4262 179.284 85.4545 170.437 91.5192 165.969Z" fill="url(#paint6_linear)"/>
<path d="M146.289 167.217C146.289 167.217 135.382 160.766 135.382 159.406C135.487 159.024 135.689 158.675 135.969 158.395C140.606 159.144 145.116 160.535 149.371 162.525L153.963 156.972C153.963 156.972 152.79 161.377 158.867 165.895C164.945 170.412 162.96 179.259 162.96 179.259C162.884 182.524 161.71 185.667 159.629 188.182C159.728 187.496 160.876 178.373 154.026 175.379C146.9 172.284 146.289 167.217 146.289 167.217Z" fill="#E8A200"/>
<path d="M104.822 167.679C116.053 174.181 134.334 174.181 145.602 167.679C156.871 161.178 156.833 150.633 145.602 144.131C134.371 137.63 116.053 137.63 104.822 144.131C93.5907 150.633 93.5907 161.178 104.822 167.679Z" fill="#E8A200"/>
<path d="M200.621 43.5513C199.86 85.5927 178.159 90.6841 166.592 106.42C155.773 121.108 157.008 142.347 157.22 145.105C157.22 145.204 157.22 145.304 157.22 145.417C157.22 150.146 154.088 154.888 147.836 158.494C135.357 165.72 115.029 165.72 102.513 158.494C96.6481 155.113 93.5659 150.733 93.204 146.303H93.1291V145.417C93.1291 145.317 93.1291 145.217 93.1291 145.117C93.3413 142.372 94.5767 121.108 83.7576 106.432C72.2022 90.6716 50.5266 85.5802 49.7654 43.5513H200.621Z" fill="url(#paint7_linear)"/>
<path d="M145.515 89.3117C145.515 89.3117 143.755 94.3032 138.277 108.704C132.799 123.105 135.382 159.431 135.382 159.431L144.691 160.067C145.771 159.595 146.825 159.066 147.848 158.482C154.088 154.863 157.232 150.134 157.232 145.404C157.232 145.305 157.232 145.192 157.232 145.092C157.02 142.322 155.785 121.083 166.604 106.408C178.197 90.6719 199.872 85.5805 200.634 43.5391H192.373L145.515 89.3117Z" fill="#E8A200"/>
<path d="M71.8653 74.337C101.315 91.3458 149.071 91.3458 178.534 74.337C207.996 57.3283 207.996 29.7624 178.534 12.7536C149.071 -4.25512 101.328 -4.25512 71.8653 12.7536C42.4029 29.7624 42.4278 57.3283 71.8653 74.337Z" fill="#FDD762"/>
<path d="M71.8653 74.3371C101.315 91.3459 149.071 91.3459 178.534 74.3371C192.423 66.3257 199.748 55.9557 200.546 45.4609C201.432 57.2285 194.107 69.1709 178.534 78.1681C149.084 95.1769 101.328 95.1769 71.8653 78.1681C56.2917 69.1833 48.9667 57.241 49.8527 45.4609C50.6389 55.9557 57.9764 66.3257 71.8653 74.3371Z" fill="white"/>
<path d="M80.4383 69.3954C105.159 83.6089 145.241 83.6089 169.961 69.3954C194.681 55.1819 194.681 31.9587 169.961 17.7078C145.241 3.45689 105.159 3.43193 80.4383 17.7078C55.7178 31.9837 55.7178 55.1196 80.4383 69.3954Z" fill="#F2B42A"/>
<path d="M80.4383 69.3955C90.7957 75.3729 103.861 78.8171 117.35 79.7905C118.395 78.6586 119.122 77.2706 119.457 75.7672C119.793 74.2638 119.725 72.6985 119.26 71.2299C112.696 51.5133 115.229 10.6948 115.229 10.6948L103.324 9.28467C95.304 10.8849 87.5824 13.7268 80.4383 17.7079C55.7178 31.9713 55.7178 55.1197 80.4383 69.3955Z" fill="#E8A200"/>
<path d="M169.961 20.9521C145.24 6.67626 105.159 6.67626 80.4381 20.9521C68.7954 27.6782 62.6309 36.3636 61.9695 45.1737C61.2083 35.2904 67.3728 25.2074 80.4381 17.7201C105.159 3.44422 145.24 3.44422 169.961 17.7201C183.039 25.2074 189.191 35.3029 188.429 45.1737C187.756 36.3636 181.603 27.6658 169.961 20.9521Z" fill="white"/>
<path d="M156.184 75.4104C135.993 81.6384 114.394 81.6384 94.2021 75.4104C94.8635 74.9737 95.5374 74.5369 96.2611 74.1625C112.246 64.9406 138.152 64.9406 154.125 74.1625C154.849 74.5369 155.523 74.9737 156.184 75.4104Z" fill="#E8A200"/>
<path d="M93.1666 145.105C93.1666 144.768 93.229 144.169 93.2664 143.345C93.7531 147.675 96.7979 151.918 102.526 155.225C115.004 162.45 135.332 162.45 147.849 155.225C153.452 151.993 156.584 147.85 157.12 143.632C157.12 144.306 157.183 144.805 157.208 145.105C157.208 145.205 157.208 145.304 157.208 145.417C157.208 150.146 154.076 154.888 147.824 158.495C135.345 165.72 115.017 165.72 102.501 158.495C96.6357 155.113 93.5535 150.733 93.1916 146.303H93.1167V145.417C93.1417 145.304 93.1666 145.205 93.1666 145.105Z" fill="white"/>
<path d="M209.968 106.445C205.475 95.7382 197.813 86.4789 189.478 81.662L181.179 76.8701L173.118 81.4124L173.517 84.2327L184.686 96.0876L200.521 118.737L203.142 117.289C203.251 119.44 202.822 121.585 201.894 123.529L196.466 133.999C195.691 135.517 194.534 136.807 193.109 137.742C194.881 142.122 195.517 146.739 192.697 150.758H190.85L191.437 152.293C191.212 152.517 191 152.742 190.75 152.954H191.711L192.622 155.362L200.721 150.795C203.077 149.301 204.981 147.191 206.224 144.693L211.652 134.223C215.059 127.559 214.46 117.152 209.968 106.445Z" fill="#E8A200"/>
<path d="M193.059 137.755C189.578 140.013 184.673 139.739 179.432 136.719L145.702 117.302L137.641 121.794L139.987 125.812L145.702 127.335V129.593L179.395 149.073C182.821 151.147 186.649 152.466 190.626 152.942C195.692 148.499 195.168 142.946 193.059 137.755Z" fill="#E8A200"/>
<path d="M189.465 81.662L181.167 76.8701L173.105 81.4124L173.505 84.2327L184.686 96.0876L193.421 108.641L207.148 100.692C202.643 92.5062 196.279 85.6054 189.465 81.662Z" fill="#FDD762"/>
<path d="M171.371 153.615L137.678 134.136V121.794L171.371 141.274C178.646 145.479 185.31 144.394 188.355 138.528L193.783 128.059C195.767 124.228 195.442 118.55 192.884 112.46C190.627 106.733 186.606 101.873 181.404 98.5835L173.105 93.7916V81.4375L181.404 86.2294C189.74 91.0463 197.402 100.306 201.894 111.012C206.386 121.719 206.985 132.127 203.504 138.853L198.075 149.323C193.284 158.482 182.814 160.217 171.371 153.615Z" fill="url(#paint8_linear)"/>
<path d="M122.629 95.4885C126.661 95.4885 129.929 92.2201 129.929 88.1883C129.929 84.1566 126.661 80.8882 122.629 80.8882C118.597 80.8882 115.329 84.1566 115.329 88.1883C115.329 92.2201 118.597 95.4885 122.629 95.4885Z" fill="white"/>
<path d="M122.629 75.3103C125.02 75.3103 126.959 73.3716 126.959 70.9801C126.959 68.5886 125.02 66.6499 122.629 66.6499C120.237 66.6499 118.299 68.5886 118.299 70.9801C118.299 73.3716 120.237 75.3103 122.629 75.3103Z" fill="white"/>
<path d="M122.629 108.105C124.779 108.105 126.522 106.362 126.522 104.211C126.522 102.061 124.779 100.318 122.629 100.318C120.479 100.318 118.736 102.061 118.736 104.211C118.736 106.362 120.479 108.105 122.629 108.105Z" fill="white"/>
<path d="M122.629 118.013C123.918 118.013 124.962 116.969 124.962 115.68C124.962 114.391 123.918 113.346 122.629 113.346C121.34 113.346 120.295 114.391 120.295 115.68C120.295 116.969 121.34 118.013 122.629 118.013Z" fill="white"/>
<path d="M122.629 124.777C123.518 124.777 124.239 124.056 124.239 123.167C124.239 122.278 123.518 121.557 122.629 121.557C121.74 121.557 121.019 122.278 121.019 123.167C121.019 124.056 121.74 124.777 122.629 124.777Z" fill="white"/>
<path d="M122.629 62.1825C124.317 62.1825 125.686 60.8137 125.686 59.1252C125.686 57.4367 124.317 56.0679 122.629 56.0679C120.94 56.0679 119.572 57.4367 119.572 59.1252C119.572 60.8137 120.94 62.1825 122.629 62.1825Z" fill="white"/>
<path d="M122.629 52.3992C123.456 52.3992 124.126 51.7288 124.126 50.9018C124.126 50.0747 123.456 49.4043 122.629 49.4043C121.802 49.4043 121.131 50.0747 121.131 50.9018C121.131 51.7288 121.802 52.3992 122.629 52.3992Z" fill="white"/>
<path d="M126.836 92.5764C129.127 90.286 129.127 86.5724 126.836 84.282C124.546 81.9915 120.832 81.9915 118.542 84.282C116.252 86.5724 116.252 90.286 118.542 92.5764C120.832 94.8669 124.546 94.8669 126.836 92.5764Z" fill="white"/>
<path d="M134.913 81.125C136.273 79.7653 136.273 77.5609 134.913 76.2012C133.553 74.8416 131.349 74.8416 129.989 76.2012C128.63 77.5609 128.63 79.7653 129.989 81.125C131.349 82.4846 133.553 82.4846 134.913 81.125Z" fill="white"/>
<path d="M115.819 99.7231C117.043 98.4999 117.043 96.5167 115.819 95.2935C114.596 94.0703 112.613 94.0703 111.39 95.2935C110.167 96.5167 110.167 98.4999 111.39 99.7231C112.613 100.946 114.596 100.946 115.819 99.7231Z" fill="white"/>
<path d="M108.414 105.348C109.145 104.617 109.145 103.432 108.414 102.701C107.683 101.97 106.498 101.97 105.767 102.701C105.036 103.432 105.036 104.617 105.767 105.348C106.498 106.079 107.683 106.079 108.414 105.348Z" fill="white"/>
<path d="M103.757 109.174C104.259 108.673 104.259 107.859 103.757 107.357C103.255 106.855 102.441 106.855 101.939 107.357C101.437 107.859 101.437 108.673 101.939 109.174C102.441 109.676 103.255 109.676 103.757 109.174Z" fill="white"/>
<path d="M140.912 73.6807C141.872 72.7206 141.872 71.1641 140.912 70.2041C139.952 69.244 138.395 69.244 137.435 70.2041C136.475 71.1641 136.475 72.7207 137.435 73.6807C138.395 74.6407 139.952 74.6407 140.912 73.6807Z" fill="white"/>
<path d="M144.688 68.1235C145.156 67.6556 145.156 66.8971 144.688 66.4293C144.22 65.9614 143.461 65.9614 142.994 66.4293C142.526 66.8971 142.526 67.6556 142.994 68.1235C143.461 68.5913 144.22 68.5913 144.688 68.1235Z" fill="white"/>
</g>
<defs>
<radialGradient id="paint0_radial" cx="0" cy="0" r="1" gradientUnits="userSpaceOnUse" gradientTransform="translate(161.912 98.9452) scale(27.5531 27.5534)">
<stop stop-color="#699DD1"/>
<stop offset="0.27" stop-color="#6396CC"/>
<stop offset="0.64" stop-color="#5184BD"/>
<stop offset="1" stop-color="#396CAA"/>
</radialGradient>
<radialGradient id="paint1_radial" cx="0" cy="0" r="1" gradientUnits="userSpaceOnUse" gradientTransform="translate(236.847 3705.14) scale(10004.2 4205.55)">
<stop stop-color="#699DD1"/>
<stop offset="0.27" stop-color="#6396CC"/>
<stop offset="0.64" stop-color="#5184BD"/>
<stop offset="1" stop-color="#396CAA"/>
</radialGradient>
<radialGradient id="paint2_radial" cx="0" cy="0" r="1" gradientUnits="userSpaceOnUse" gradientTransform="translate(217.018 197.641) scale(43.4511 43.4515)">
<stop stop-color="#FF2C9C"/>
<stop offset="0.31" stop-color="#FB289B"/>
<stop offset="0.6" stop-color="#F01D97"/>
<stop offset="0.88" stop-color="#DD0A91"/>
<stop offset="1" stop-color="#D3008D"/>
</radialGradient>
<radialGradient id="paint3_radial" cx="0" cy="0" r="1" gradientUnits="userSpaceOnUse" gradientTransform="translate(18584.9 22463.2) scale(10979.7 13915.6)">
<stop stop-color="#FF2C9C"/>
<stop offset="0.31" stop-color="#FB289B"/>
<stop offset="0.6" stop-color="#F01D97"/>
<stop offset="0.88" stop-color="#DD0A91"/>
<stop offset="1" stop-color="#D3008D"/>
</radialGradient>
<radialGradient id="paint4_radial" cx="0" cy="0" r="1" gradientUnits="userSpaceOnUse" gradientTransform="translate(2817.01 10598.2) scale(2352.17 2807.59)">
<stop stop-color="#699DD1"/>
<stop offset="0.27" stop-color="#6396CC"/>
<stop offset="0.64" stop-color="#5184BD"/>
<stop offset="1" stop-color="#396CAA"/>
</radialGradient>
<radialGradient id="paint5_radial" cx="0" cy="0" r="1" gradientUnits="userSpaceOnUse" gradientTransform="translate(2543.21 5941.36) scale(680.092 790.895)">
<stop stop-color="#699DD1"/>
<stop offset="0.27" stop-color="#6396CC"/>
<stop offset="0.64" stop-color="#5184BD"/>
<stop offset="1" stop-color="#396CAA"/>
</radialGradient>
<linearGradient id="paint6_linear" x1="87.1267" y1="179.047" x2="163.272" y2="179.047" gradientUnits="userSpaceOnUse">
<stop stop-color="#FDD762"/>
<stop offset="0.21" stop-color="#FCD55E"/>
<stop offset="0.41" stop-color="#FACF53"/>
<stop offset="0.61" stop-color="#F6C540"/>
<stop offset="0.8" stop-color="#F0B626"/>
<stop offset="0.98" stop-color="#E9A404"/>
<stop offset="1" stop-color="#E8A200"/>
</linearGradient>
<linearGradient id="paint7_linear" x1="4845.47" y1="7255.65" x2="20482.2" y2="11985.2" gradientUnits="userSpaceOnUse">
<stop stop-color="#FDD762"/>
<stop offset="0.21" stop-color="#FCD55E"/>
<stop offset="0.41" stop-color="#FACF53"/>
<stop offset="0.61" stop-color="#F6C540"/>
<stop offset="0.8" stop-color="#F0B626"/>
<stop offset="0.98" stop-color="#E9A404"/>
<stop offset="1" stop-color="#E8A200"/>
</linearGradient>
<linearGradient id="paint8_linear" x1="149.608" y1="104.236" x2="235.974" y2="155.998" gradientUnits="userSpaceOnUse">
<stop stop-color="#E8A200"/>
<stop offset="0.02" stop-color="#E9A404"/>
<stop offset="0.2" stop-color="#F0B626"/>
<stop offset="0.39" stop-color="#F6C540"/>
<stop offset="0.59" stop-color="#FACF53"/>
<stop offset="0.79" stop-color="#FCD55E"/>
<stop offset="1" stop-color="#FDD762"/>
</linearGradient>
<clipPath id="clip0">
<rect width="338" height="244" fill="white"/>
</clipPath>
</defs>
</svg>
