<svg width="130" height="130" viewBox="0 0 130 130" fill="none" xmlns="http://www.w3.org/2000/svg">
<g clip-path="url(#clip0)">
<path d="M130 65C130 94.4409 110.425 119.305 83.5814 127.3C82.9631 125.193 81.0184 123.652 78.7109 123.652L12.6953 93.8184C10.7258 93.8184 9.0218 94.9419 8.17959 96.5809C2.97121 87.2303 0 76.4629 0 65C0 29.1015 29.1015 0 65 0C100.899 0 130 29.1015 130 65Z" fill="#87D4FE"/>
<path d="M121.24 47.7224C121.24 48.7743 120.388 49.6267 119.336 49.6267H79.9779L99.6569 83.7118C100.183 84.6226 99.8707 85.7873 98.96 86.3131C98.6601 86.4863 98.3326 86.5685 98.0096 86.5685C97.3515 86.5685 96.7114 86.227 96.3587 85.6161L76.6797 51.5313L57.0007 85.6164C56.648 86.2273 56.0079 86.5688 55.3498 86.5688C55.0268 86.5688 54.6993 86.4865 54.3994 86.3134C53.4887 85.7875 53.1766 84.6229 53.7024 83.7121L73.3814 49.627H34.0234C32.9715 49.627 32.1191 48.7746 32.1191 47.7227C32.1191 46.6707 32.9715 45.8184 34.0234 45.8184H73.3812L53.7024 11.7332C53.1766 10.8225 53.4887 9.6578 54.3994 9.13196C55.3097 8.60637 56.4748 8.91792 57.0007 9.82893L76.6797 43.9141L96.3587 9.82893C96.8843 8.91792 98.0487 8.60612 98.96 9.13196C99.8707 9.6578 100.183 10.8225 99.6569 11.7332L79.9782 45.8181H119.336C120.388 45.8181 121.24 46.6707 121.24 47.7224Z" fill="#D1EFFF"/>
<path d="M87.5977 5.76394C90.7799 0.252142 97.828 -1.63641 103.34 1.54579C108.852 4.728 110.74 11.7762 107.558 17.288C104.376 22.7998 97.3276 24.6883 91.8158 21.5061C86.304 18.3239 84.4155 11.2757 87.5977 5.76394ZM34.8834 36.1987C28.5187 36.1987 23.3594 41.358 23.3594 47.7227C23.3594 54.0874 28.5187 59.2467 34.8834 59.2467C41.2481 59.2467 46.4075 54.0871 46.4075 47.7227C46.4075 41.3583 41.2481 36.1987 34.8834 36.1987ZM118.476 36.1987C112.111 36.1987 106.952 41.3583 106.952 47.7227C106.952 54.0871 112.111 59.2467 118.476 59.2467C124.841 59.2467 130 54.0871 130 47.7227C130 41.3583 124.841 36.1987 118.476 36.1987ZM50.0195 1.54579C44.5077 4.728 42.6192 11.7762 45.8014 17.288C48.9836 22.7998 56.0318 24.6883 61.5436 21.5061C67.0554 18.3239 68.9439 11.2757 65.7617 5.76394C62.5795 0.252142 55.5313 -1.63641 50.0195 1.54579ZM91.8158 73.939C86.304 77.1212 84.4155 84.1694 87.5977 89.6812C90.7799 95.193 97.828 97.0816 103.34 93.8994C108.852 90.7172 110.74 83.669 107.558 78.1572C104.376 72.6454 97.3276 70.7568 91.8158 73.939Z" fill="#D1EFFF"/>
<path d="M83.7891 50.7813V127.238C81.7967 127.839 79.7631 128.345 77.6953 128.755V126.953C77.6953 125.551 76.5586 124.414 75.1562 124.414L16.25 101.943C14.8477 101.943 13.7109 103.08 13.7109 104.482V104.926C11.4235 101.991 9.38107 98.8569 7.61719 95.5508V50.7813C7.61719 47.9766 9.89066 45.7031 12.6953 45.7031H78.7109C81.5156 45.7031 83.7891 47.9766 83.7891 50.7813Z" fill="#396CAA"/>
<path d="M38.0859 53.3203C38.0859 51.918 39.2227 50.7812 40.625 50.7812H50.7812C52.1836 50.7812 53.3203 51.918 53.3203 53.3203C53.3203 54.7226 52.1836 55.8594 50.7812 55.8594H40.625C39.2227 55.8594 38.0859 54.7226 38.0859 53.3203ZM13.7109 104.482C13.7109 103.08 14.8477 101.943 16.25 101.943L18.7891 102.912V50.7812C18.7891 47.9766 21.0625 45.7031 23.8672 45.7031H12.6953C9.89066 45.7031 7.61719 47.9766 7.61719 50.7812V95.5508C9.38107 98.8569 11.4237 101.991 13.7109 104.925V104.482Z" fill="#0D477C"/>
<path d="M77.6953 63.4766V128.757C73.5891 129.57 69.3451 130 65 130C44.1561 130 25.6057 120.187 13.7109 104.931V63.4766C13.7109 62.0742 14.8477 60.9375 16.25 60.9375H75.1562C76.5586 60.9375 77.6953 62.0742 77.6953 63.4766Z" fill="#87D4FE"/>
<path d="M77.6953 63.4766V128.757C73.5891 129.57 69.3451 130 65 130C48.1884 130 28.8184 117.305 21.3281 104.102V63.4766C21.3281 62.0742 22.4649 60.9375 23.8672 60.9375H75.1562C76.5586 60.9375 77.6953 62.0742 77.6953 63.4766Z" fill="#D1EFFF"/>
<path d="M67.5391 116.035V118.574C67.5391 119.275 66.9706 119.844 66.2695 119.844H30.1001C27.9855 118.495 25.9556 117.026 24.0167 115.449C24.229 115.045 24.6482 114.766 25.1367 114.766H66.2695C66.9706 114.766 67.5391 115.334 67.5391 116.035ZM66.2695 124.922H39.7721C47.5292 128.192 56.0534 130 65 130C65.4855 130 65.9689 129.992 66.4518 129.982C67.0658 129.893 67.5391 129.369 67.5391 128.73V126.191C67.5391 125.49 66.9706 124.922 66.2695 124.922ZM66.2695 104.609H25.1367C24.4357 104.609 23.8672 105.178 23.8672 105.879V108.418C23.8672 109.119 24.4357 109.688 25.1367 109.688H66.2695C66.9706 109.688 67.5391 109.119 67.5391 108.418V105.879C67.5391 105.178 66.9706 104.609 66.2695 104.609Z" fill="#396CAA"/>
<path d="M68.5547 99.0234H22.8516C21.4492 99.0234 20.3125 97.8867 20.3125 96.4844V71.0938C20.3125 69.6914 21.4492 68.5547 22.8516 68.5547H68.5547C69.957 68.5547 71.0938 69.6914 71.0938 71.0938V96.4844C71.0938 97.8867 69.957 99.0234 68.5547 99.0234Z" fill="#FDD762"/>
<path d="M46.4409 74.5813L48.9312 79.6272C49.051 79.8699 49.2826 80.0383 49.5507 80.0774L55.1191 80.8866C55.794 80.9846 56.0634 81.8138 55.5752 82.2899L51.5457 86.2176C51.3517 86.4065 51.2633 86.6789 51.309 86.9458L52.2602 92.4918C52.3754 93.1639 51.6701 93.6766 51.0663 93.3592L46.0857 90.7407C45.846 90.6147 45.5596 90.6147 45.3199 90.7407L40.3393 93.3592C39.7357 93.6766 39.0301 93.1639 39.1454 92.4918L40.0965 86.9458C40.1422 86.6789 40.0539 86.4065 39.8599 86.2176L35.8304 82.2899C35.3421 81.8138 35.6115 80.9846 36.2864 80.8866L41.8548 80.0774C42.1227 80.0385 42.3545 79.8702 42.4744 79.6272L44.9647 74.5813C45.2671 73.9696 46.139 73.9696 46.4409 74.5813Z" fill="#E8A200"/>
<path d="M76.6796 62.5793C68.4746 62.5793 61.823 55.9278 61.823 47.7228C61.823 39.5178 68.4746 32.8662 76.6796 32.8662C84.8845 32.8662 91.5361 39.5178 91.5361 47.7228C91.5361 55.9278 84.8845 62.5793 76.6796 62.5793Z" fill="#F2B42A"/>
<path d="M87.4833 37.6269L79.3581 55.0518C79.0516 55.7091 78.4016 56.0994 77.7206 56.1085C77.454 56.1121 76.0395 56.1177 75.7001 56.108C75.0986 56.0907 74.5174 55.7782 74.1832 55.2262L68.8187 46.5406C68.2962 45.6768 68.5734 44.5489 69.4372 44.0264L70.6897 43.2685C71.5535 42.7459 72.6814 43.0235 73.2039 43.887L76.4544 49.1497L82.8379 35.4606C83.2644 34.5455 84.356 34.1484 85.2711 34.575L86.598 35.1937C87.5128 35.6206 87.9099 36.7119 87.4833 37.6269Z" fill="#F2DD89"/>
</g>
<defs>
<clipPath id="clip0">
<rect width="130" height="130" fill="white"/>
</clipPath>
</defs>
</svg>
