<svg width="130" height="130" viewBox="0 0 130 130" fill="none" xmlns="http://www.w3.org/2000/svg">
<path d="M2.04775 81.25C0.711191 76.0561 0 70.6111 0 65C0 29.1015 29.1015 0 65 0C83.588 0 100.352 7.80406 112.199 20.3125H25.3906V81.25H2.04775Z" fill="#FDD762"/>
<path d="M128.546 78.7109C122.252 108.024 96.1942 130 65 130C33.8058 130 7.74846 108.024 1.45361 78.7109H128.546Z" fill="#396CAA"/>
<path d="M126.423 86.3209C125.377 89.3335 124.116 92.2455 122.658 95.0385H25.394C23.9917 95.0385 22.855 93.9018 22.855 92.4994V20.3159C22.855 18.9136 23.9917 17.7769 25.394 17.7769H109.661C112.951 20.889 115.913 24.3436 118.496 28.0794C117.509 28.4275 116.8 29.3659 116.8 30.4722V74.4614C116.8 80.201 120.875 84.9861 126.289 86.0891C126.395 86.1106 126.458 86.2191 126.423 86.3209Z" fill="#396CAA"/>
<path d="M32.5 95.0351H25.3906C23.9883 95.0351 22.8516 93.8983 22.8516 92.496V20.3125C22.8516 18.9102 23.9883 17.7734 25.3906 17.7734H32.5C31.0977 17.7734 29.9609 18.9102 29.9609 20.3125V92.496C29.9609 93.8983 31.0977 95.0351 32.5 95.0351Z" fill="#0D477C"/>
<path d="M124.414 91.4062C122.779 94.9531 121.649 98.2866 119.082 101.383H22.8516C18.6446 101.383 15.2344 97.9723 15.2344 93.7655V92.6758C15.2344 91.9745 15.8029 91.4062 16.5039 91.4062H124.414ZM83.7891 25.3906C85.1914 25.3906 86.3281 24.2539 86.3281 22.8516C86.3281 21.4492 85.1914 20.3125 83.7891 20.3125C82.3867 20.3125 81.25 21.4492 81.25 22.8516C81.25 24.2539 82.3867 25.3906 83.7891 25.3906Z" fill="#78C3EE"/>
<path d="M113.285 96.3045C112.097 98.0605 110.824 99.7545 109.474 101.383H22.8517C18.8545 101.383 15.5786 98.303 15.262 94.387C16.6064 95.5793 18.3743 96.3045 20.3127 96.3045H113.285Z" fill="#173D7A"/>
<path d="M118.394 27.9297C125.708 38.445 130 51.2203 130 65C130 72.4714 128.736 79.6466 126.415 86.3281H29.1992C28.4982 86.3281 27.9297 85.7599 27.9297 85.0586V29.1992C27.9297 28.4979 28.4982 27.9297 29.1992 27.9297H118.394Z" fill="#D5DAE0"/>
<path d="M130 65C130 72.4714 128.736 79.6466 126.415 86.3281H34.2773C33.5763 86.3281 33.0078 85.7599 33.0078 85.0586V29.1992C33.0078 28.4979 33.5763 27.9297 34.2773 27.9297H118.394C125.708 38.445 130 51.2203 130 65Z" fill="white"/>
<path d="M40.625 35.5469H122.958C127.46 44.3889 130 54.3976 130 65C130 66.1929 129.965 67.3776 129.902 68.5547H40.625C39.2227 68.5547 38.0859 67.4179 38.0859 66.0156V38.0859C38.0859 36.6836 39.2227 35.5469 40.625 35.5469Z" fill="#D8209B"/>
<path d="M57.0588 39.8609L58.5361 44.0148C58.7466 44.6069 59.4232 44.8872 59.9907 44.6173L63.9725 42.7247C64.8738 42.2961 65.8143 43.2366 65.3857 44.1379L63.4931 48.1197C63.2232 48.6874 63.5035 49.3638 64.0956 49.5743L68.2495 51.0515C69.19 51.3859 69.19 52.7159 68.2495 53.0503L64.0956 54.5275C63.5035 54.738 63.2232 55.4147 63.4931 55.9821L65.3857 59.9639C65.8143 60.8653 64.8738 61.8057 63.9725 61.3771L59.9907 59.4845C59.423 59.2146 58.7466 59.4949 58.5361 60.087L57.0588 64.2409C56.7244 65.1814 55.3945 65.1814 55.0601 64.2409L53.5829 60.087C53.3724 59.4949 52.6957 59.2146 52.1282 59.4845L48.1465 61.3771C47.2451 61.8057 46.3046 60.8653 46.7332 59.9639L48.6258 55.9821C48.8957 55.4144 48.6154 54.738 48.0233 54.5275L43.8694 53.0503C42.9289 52.7159 42.9289 51.3859 43.8694 51.0515L48.0233 49.5743C48.6154 49.3638 48.8957 48.6872 48.6258 48.1197L46.7332 44.1379C46.3046 43.2366 47.2451 42.2961 48.1465 42.7247L52.1282 44.6173C52.696 44.8872 53.3724 44.6069 53.5829 44.0148L55.0601 39.8609C55.3945 38.9204 56.7244 38.9204 57.0588 39.8609Z" fill="#FF2C9C"/>
<path d="M69.8242 78.7109H39.3555C38.6544 78.7109 38.0859 78.1424 38.0859 77.4414V74.9023C38.0859 74.2013 38.6544 73.6328 39.3555 73.6328H69.8242C70.5253 73.6328 71.0938 74.2013 71.0938 74.9023V77.4414C71.0938 78.1424 70.5253 78.7109 69.8242 78.7109Z" fill="#D5DAE0"/>
<path d="M117.154 119.234H81.25C78.4454 119.234 76.1719 116.961 76.1719 114.156V45.7031C76.1719 42.8985 78.4454 40.625 81.25 40.625H117.154C119.959 40.625 122.232 42.8985 122.232 45.7031V114.156C122.232 116.961 119.959 119.234 117.154 119.234Z" fill="#396CAA"/>
<path d="M85.998 119.234H79.2426C77.5468 119.234 76.1719 117.859 76.1719 116.164V43.6957C76.1719 41.9999 77.5468 40.625 79.2426 40.625H85.998C84.3022 40.625 82.9273 41.9999 82.9273 43.6957V116.164C82.9273 117.859 84.3022 119.234 85.998 119.234Z" fill="#0D477C"/>
<path d="M116.008 111.25H82.3955C80.9932 111.25 79.8564 110.114 79.8564 108.711V52.376C79.8564 50.9737 80.9932 49.8369 82.3955 49.8369H116.008C117.41 49.8369 118.547 50.9737 118.547 52.376V108.711C118.547 110.114 117.41 111.25 116.008 111.25Z" fill="#F2B42A"/>
<path d="M117.012 111.25H85.9983C85.1502 111.25 84.4629 110.563 84.4629 109.715V51.3723C84.4629 50.5242 85.1502 49.8369 85.9983 49.8369H117.012C117.86 49.8369 118.548 50.5242 118.548 51.3723V109.715C118.548 110.563 117.86 111.25 117.012 111.25Z" fill="#FDD762"/>
<path d="M103.04 113.554C103.04 115.674 101.322 117.392 99.2021 117.392C97.0822 117.392 95.3638 115.674 95.3638 113.554C95.3638 111.434 97.0822 109.716 99.2021 109.716C101.322 109.716 103.04 111.434 103.04 113.554Z" fill="#78C3EE"/>
<path d="M101.505 113.554C101.505 114.826 100.474 115.857 99.2018 115.857C97.93 115.857 96.8989 114.826 96.8989 113.554C96.8989 112.282 97.93 111.251 99.2018 111.251C100.474 111.251 101.505 112.282 101.505 113.554ZM102.273 43.6958H96.1311C95.283 43.6958 94.5957 44.3831 94.5957 45.2312C94.5957 46.0792 95.283 46.7665 96.1311 46.7665H102.273C103.121 46.7665 103.808 46.0792 103.808 45.2312C103.808 44.3831 103.12 43.6958 102.273 43.6958Z" fill="#0D477C"/>
<path d="M114.436 88.8672H83.9673C83.2663 88.8672 82.6978 88.2987 82.6978 87.5977V54.5898C82.6978 53.8888 83.2663 53.3203 83.9673 53.3203H114.436C115.137 53.3203 115.706 53.8888 115.706 54.5898V87.5977C115.706 88.2987 115.137 88.8672 114.436 88.8672Z" fill="#E8A200"/>
<path d="M100.201 58.9038L101.679 63.0577C101.889 63.6499 102.566 63.9302 103.133 63.6603L107.115 61.7676C108.016 61.3391 108.957 62.2795 108.528 63.1809L106.636 67.1626C106.366 67.7304 106.646 68.4068 107.238 68.6173L111.392 70.0945C112.333 70.4289 112.333 71.7589 111.392 72.0933L107.238 73.5705C106.646 73.781 106.366 74.4576 106.636 75.0251L108.528 79.0069C108.957 79.9082 108.016 80.8487 107.115 80.4201L103.133 78.5275C102.566 78.2576 101.889 78.5379 101.679 79.13L100.201 83.2839C99.867 84.2244 98.5371 84.2244 98.2027 83.2839L96.7254 79.13C96.5149 78.5379 95.8383 78.2576 95.2708 78.5275L91.289 80.4201C90.3877 80.8487 89.4472 79.9082 89.8758 79.0069L91.7684 75.0251C92.0383 74.4574 91.758 73.781 91.1659 73.5705L87.012 72.0933C86.0715 71.7589 86.0715 70.4289 87.012 70.0945L91.1659 68.6173C91.758 68.4068 92.0383 67.7301 91.7684 67.1626L89.8758 63.1809C89.4472 62.2795 90.3877 61.3391 91.289 61.7676L95.2708 63.6603C95.8385 63.9302 96.5149 63.6499 96.7254 63.0577L98.2027 58.9038C98.5371 57.9634 99.867 57.9634 100.201 58.9038Z" fill="#FDD762"/>
<path d="M112.786 95.2148V97.7539C112.786 98.4549 112.217 99.0234 111.516 99.0234H86.8872C86.1862 99.0234 85.6177 98.4549 85.6177 97.7539V95.2148C85.6177 94.5138 86.1862 93.9453 86.8872 93.9453H111.516C112.217 93.9453 112.786 94.5138 112.786 95.2148ZM105.728 101.562H92.6755C91.9745 101.562 91.406 102.131 91.406 102.832V105.371C91.406 106.072 91.9745 106.641 92.6755 106.641H105.728C106.429 106.641 106.997 106.072 106.997 105.371V102.832C106.997 102.131 106.429 101.562 105.728 101.562Z" fill="#F2B42A"/>
</svg>
