<svg width="1920" height="1860" viewBox="0 0 1920 1860" fill="none" xmlns="http://www.w3.org/2000/svg">
<rect width="1920" height="1860" fill="url(#paint0_linear)"/>
<rect x="1509.53" y="304" width="35" height="163" rx="17.5" transform="rotate(41.2758 1509.53 304)" fill="#87D4FE"/>
<rect x="265.923" y="1250" width="50.6658" height="174.208" rx="25.3329" transform="rotate(41.2758 265.923 1250)" fill="#87D4FE"/>
<rect x="1869.16" y="29" width="15.6768" height="73.0091" rx="7.8384" transform="rotate(41.2758 1869.16 29)" fill="#87D4FE"/>
<rect x="1831.16" y="507" width="15.6768" height="73.0091" rx="7.8384" transform="rotate(41.2758 1831.16 507)" fill="#87D4FE"/>
<rect x="106.163" y="1183" width="15.6768" height="73.0091" rx="7.8384" transform="rotate(41.2758 106.163 1183)" fill="#87D4FE"/>
<rect x="1124.16" y="171" width="15.6768" height="73.0091" rx="7.8384" transform="rotate(41.2758 1124.16 171)" fill="#87D4FE"/>
<rect x="88.1631" y="1630" width="15.6768" height="73.0091" rx="7.8384" transform="rotate(41.2758 88.1631 1630)" fill="#87D4FE"/>
<defs>
<linearGradient id="paint0_linear" x1="-28" y1="354.192" x2="2098.09" y2="765.217" gradientUnits="userSpaceOnUse">
<stop stop-color="#3BB9FF"/>
<stop offset="1" stop-color="#77CEFE"/>
</linearGradient>
</defs>
</svg>
