<svg width="281" height="50" viewBox="0 0 281 50" fill="none" xmlns="http://www.w3.org/2000/svg">
<g clip-path="url(#clip0)">
<path d="M78.0281 34.2051C75.7925 32.0209 74.6747 29.2499 74.6747 25.8919C74.6747 22.534 75.7925 19.7618 78.0281 17.5754C79.1103 16.5046 80.3969 15.6624 81.8112 15.0989C83.2256 14.5355 84.7388 14.2623 86.2609 14.2957C88.5914 14.257 90.8807 14.9131 92.837 16.1803C94.7559 17.4392 96.2011 19.301 96.945 21.4721H91.4721C90.4527 19.4824 88.7201 18.4864 86.2743 18.4842C84.2175 18.4842 82.5408 19.1604 81.2441 20.513C79.9474 21.8656 79.308 23.6686 79.3259 25.9221C79.3259 28.1578 79.9698 29.9552 81.2575 31.3145C82.5452 32.6737 84.222 33.35 86.2877 33.3433C88.7134 33.3433 90.446 32.3462 91.4855 30.352H96.9752C96.2356 32.5219 94.789 34.3806 92.8672 35.6304C90.9076 36.8886 88.6194 37.5385 86.2911 37.4982C83.0114 37.5005 80.2571 36.4028 78.0281 34.2051Z" fill="white"/>
<path d="M103.846 14.6379H108.427V33.8298H115.694V37.3039H103.846V14.6379Z" fill="white"/>
<path d="M136.583 37.3072L135.121 33.055H126.288L124.826 37.3072H119.987L128.008 14.5708H133.434L141.422 37.3072H136.583ZM127.492 29.544H133.954L130.704 20.0939L127.492 29.544Z" fill="white"/>
<path d="M152.109 28.2764V37.3073H147.529V14.6379H155.875C158.493 14.6379 160.512 15.2919 161.932 16.5997C162.615 17.2095 163.159 17.9595 163.527 18.7986C163.894 19.6378 164.077 20.5463 164.061 21.4622C164.06 22.897 163.606 24.2947 162.763 25.4562C161.898 26.6925 160.534 27.5376 158.672 27.9914L164.453 37.314H159.028L153.588 28.2764H152.109ZM152.109 18.1423V24.7721H155.875C157.022 24.7721 157.9 24.4747 158.508 23.8801C158.817 23.5609 159.057 23.1816 159.214 22.7656C159.37 22.3497 159.439 21.906 159.417 21.4622C159.439 21.0179 159.37 20.5737 159.214 20.1572C159.057 19.7407 158.817 19.3608 158.508 19.041C157.9 18.4463 157.022 18.149 155.875 18.149L152.109 18.1423Z" fill="white"/>
<path d="M181.858 37.5353C178.589 37.5353 175.84 36.441 173.608 34.2523C171.377 32.0636 170.259 29.287 170.255 25.9223C170.255 22.5555 171.373 19.7788 173.608 17.5923C175.836 15.4873 178.785 14.3145 181.849 14.3145C184.914 14.3145 187.863 15.4873 190.091 17.5923C192.326 19.781 193.444 22.5577 193.444 25.9223C193.444 29.287 192.326 32.0636 190.091 34.2523C187.871 36.441 185.126 37.5353 181.858 37.5353ZM186.858 31.3147C188.134 29.9733 188.774 28.1703 188.776 25.9056C188.778 23.6409 188.139 21.8445 186.858 20.5166C185.581 19.1752 183.915 18.5045 181.858 18.5045C179.801 18.5045 178.124 19.1808 176.828 20.5333C175.54 21.8747 174.896 23.671 174.896 25.9223C174.896 28.1736 175.54 29.9711 176.828 31.3147C178.115 32.6561 179.792 33.3323 181.858 33.3435C183.924 33.3547 185.59 32.6784 186.858 31.3147Z" fill="white"/>
<path d="M227.522 37.3072L226.06 33.055H217.227L215.765 37.3072H210.932L218.954 14.5708H224.376L232.364 37.3072H227.522ZM218.427 29.544H224.889L221.64 20.0939L218.427 29.544Z" fill="white"/>
<path d="M246.164 14.6379C249.801 14.6379 252.741 15.6775 254.983 17.7567C257.226 19.8358 258.343 22.5856 258.337 26.0061C258.337 29.4267 257.219 32.1653 254.983 34.2221C252.748 36.2789 249.808 37.3084 246.164 37.3106H238.451V14.6379H246.164ZM243.045 33.8298H246.164C248.545 33.8298 250.396 33.1255 251.717 31.7171C253.038 30.3086 253.699 28.4083 253.699 26.0162C253.699 23.6129 253.038 21.7126 251.717 20.3153C250.396 18.9181 248.545 18.2138 246.164 18.2027H243.045V33.8298Z" fill="white"/>
<path d="M272.21 17.9845C271.41 17.9479 270.622 18.1949 269.987 18.6821C269.702 18.9141 269.476 19.2098 269.326 19.5453C269.176 19.8808 269.107 20.2467 269.125 20.6136C269.084 21.3145 269.31 22.0048 269.759 22.5452C270.219 23.0365 270.796 23.4043 271.435 23.615C272.18 23.8797 272.939 24.1036 273.709 24.2857C274.532 24.4802 275.354 24.7183 276.177 25C276.969 25.2655 277.732 25.614 278.451 26.0395C279.166 26.4721 279.747 27.0958 280.127 27.8403C280.573 28.7313 280.79 29.7187 280.761 30.7142C280.763 31.6292 280.565 32.5335 280.18 33.3636C279.795 34.1938 279.234 34.9297 278.535 35.5197C277.052 36.8611 275.082 37.5318 272.622 37.5318C270.163 37.5318 268.177 36.9528 266.663 35.7947C265.148 34.6367 264.39 33.0069 264.39 30.9054H269.262C269.434 32.8996 270.571 33.8967 272.673 33.8967C273.569 33.9457 274.45 33.6547 275.141 33.0818C275.442 32.8113 275.679 32.4778 275.836 32.1051C275.993 31.7324 276.066 31.3296 276.05 30.9255C276.056 30.496 275.949 30.0724 275.738 29.6982C275.527 29.3239 275.22 29.0126 274.849 28.7961C273.956 28.2391 272.972 27.844 271.942 27.6291C270.806 27.3675 269.664 27.0534 268.514 26.6867C267.381 26.3253 266.37 25.6566 265.594 24.7552C264.791 23.8341 264.391 22.6157 264.393 21.0999C264.359 20.1598 264.543 19.2247 264.932 18.3681C265.321 17.5115 265.903 16.7569 266.633 16.1636C268.127 14.9295 270.048 14.3125 272.398 14.3125C274.747 14.3125 276.637 14.8479 278.065 15.9188C279.494 16.9919 280.276 18.6217 280.413 20.8081H275.392C275.344 20.0216 274.996 19.2836 274.42 18.7458C273.807 18.2203 273.017 17.9481 272.21 17.9845Z" fill="white"/>
<path d="M50.8552 32.1931L32.2703 0L29.6479 4.54058L26.7841 9.50033L13.6888 32.1931H44.041L46.8981 37.1563H53.7358L50.8552 32.1931ZM23.8934 26.2911L32.277 11.784L40.6607 26.2911H23.8934Z" fill="white"/>
<path d="M5.53655 26.5226C5.49855 21.9135 7.29074 17.4777 10.5198 14.1886C13.8162 10.7144 17.8672 8.95048 22.5654 8.95048C22.6392 8.95048 22.7096 8.95048 22.7867 8.95048L25.8048 3.72915C24.7517 3.59335 23.691 3.52391 22.6291 3.52124C16.4386 3.52124 11.0597 5.80159 6.6499 10.2952C2.24011 14.7888 0 20.2382 0 26.4656C0 31.9384 1.5057 36.7204 4.43327 40.758L7.59893 35.2751C6.21445 32.5671 5.5068 29.5639 5.53655 26.5226Z" fill="white"/>
<path d="M22.8705 50C26.9574 50.0517 30.9793 48.9749 34.4936 46.888C37.9864 44.7528 40.8259 41.6998 42.7028 38.0617L43.1623 37.1965H36.7907L36.613 37.4379C33.122 42.2535 28.3937 44.7015 22.5654 44.7015C17.7129 44.7015 13.625 42.894 10.4091 39.336C9.30125 38.1103 8.35668 36.7464 7.59889 35.2783L4.43323 40.7612C5.04797 41.6269 5.72017 42.4504 6.4453 43.226C10.7511 47.7196 16.2709 50 22.8705 50Z" fill="#0D477C"/>
<path d="M26.784 9.50031L29.6479 4.54055C28.3902 4.16795 27.1036 3.90098 25.8015 3.74243L22.8035 8.96711C24.1469 8.98408 25.4834 9.1631 26.784 9.50031Z" fill="#0D477C"/>
</g>
<defs>
<clipPath id="clip0">
<rect width="280.755" height="50" fill="white"/>
</clipPath>
</defs>
</svg>
