<svg width="320" height="81" viewBox="0 0 320 81" fill="none" xmlns="http://www.w3.org/2000/svg">
<path d="M80.443 0.194995V80H65.868V30.995C65.868 29.9683 65.8863 28.8683 65.923 27.695C65.9963 26.5217 66.1063 25.33 66.253 24.12L43.428 67.405C42.1813 69.7883 40.2563 70.98 37.653 70.98H35.343C34.0597 70.98 32.923 70.6867 31.933 70.1C30.943 69.4767 30.1547 68.5783 29.568 67.405L6.63301 23.955C6.74301 25.2383 6.83468 26.485 6.90801 27.695C6.98134 28.8683 7.01801 29.9683 7.01801 30.995V80H-7.55699V0.194995H4.98301C5.67968 0.194995 6.30301 0.213329 6.85301 0.249997C7.40301 0.286661 7.87968 0.39666 8.28301 0.579993C8.72301 0.726662 9.10801 0.98333 9.43801 1.35C9.80468 1.67999 10.153 2.15666 10.483 2.78L32.813 45.35C33.5097 46.6333 34.1513 47.9533 34.738 49.31C35.3613 50.6667 35.948 52.06 36.498 53.49C37.048 52.0233 37.6163 50.5933 38.203 49.2C38.8263 47.8067 39.4863 46.4683 40.183 45.185L62.348 2.78C62.678 2.15666 63.0263 1.67999 63.393 1.35C63.7597 0.98333 64.1447 0.726662 64.548 0.579993C64.988 0.39666 65.4647 0.286661 65.978 0.249997C66.528 0.213329 67.1697 0.194995 67.903 0.194995H80.443ZM119.182 13.12V33.635H145.802V46.12H119.182V67.075H153.392V80H102.572V0.194995H153.392V13.12H119.182ZM239.601 0.194995V80H231.076C229.793 80 228.711 79.7983 227.831 79.395C226.951 78.955 226.089 78.2217 225.246 77.195L185.481 26.595C185.591 27.8783 185.664 29.1433 185.701 30.39C185.774 31.6367 185.811 32.7917 185.811 33.855V80H171.236V0.194995H179.926C180.623 0.194995 181.209 0.231661 181.686 0.304993C182.199 0.341662 182.658 0.469997 183.061 0.689998C183.464 0.873331 183.849 1.13 184.216 1.45999C184.583 1.79 184.986 2.23 185.426 2.78L225.466 53.6C225.319 52.2067 225.209 50.8683 225.136 49.585C225.063 48.265 225.026 47.0183 225.026 45.845V0.194995H239.601ZM294.484 66.8C297.161 66.8 299.562 66.36 301.689 65.48C303.816 64.5633 305.612 63.28 307.079 61.63C308.546 59.98 309.664 57.9817 310.434 55.635C311.204 53.2883 311.589 50.6483 311.589 47.715V0.194995H328.089V47.715C328.089 52.555 327.301 57.01 325.724 61.08C324.184 65.1133 321.966 68.5967 319.069 71.53C316.172 74.4633 312.652 76.755 308.509 78.405C304.366 80.055 299.691 80.88 294.484 80.88C289.277 80.88 284.584 80.055 280.404 78.405C276.261 76.755 272.741 74.4633 269.844 71.53C266.947 68.5967 264.711 65.1133 263.134 61.08C261.594 57.01 260.824 52.555 260.824 47.715V0.194995H277.324V47.715C277.324 50.6483 277.709 53.2883 278.479 55.635C279.249 57.9817 280.367 59.98 281.834 61.63C283.301 63.28 285.097 64.5633 287.224 65.48C289.351 66.36 291.771 66.8 294.484 66.8Z" fill="#F2F3F5"/>
</svg>
